Oodle Sans (Automatisch gesichert).glyphspackage
{
glyphname = exclam;
layers = (
{
hints = (
{
horizontal = 1;
options = 4;
place = (0, 120);
type = TTStem;
}
);
layerId = "3E7589AA-8194-470F-8E2F-13C1C581BE24";
shapes = (
{
closed = 1;
nodes = (
(183,185,l),
(222,700,l),
(77,700,l),
(116,185,l)
);
},
{
closed = 1;
nodes = (
(195,-7,o),
(217,15,o),
(217,60,cs),
(217,104,o),
(195,126,o),
(151,126,cs),
(106,126,o),
(84,104,o),
(84,60,cs),
(84,15,o),
(106,-7,o),
(151,-7,cs)
);
}
);
width = 300;
},
{
layerId = "BFFFD157-90D3-4B85-B99D-9A2F366F03CA";
shapes = (
{
closed = 1;
nodes = (
(252,275,l),
(301,700,l),
(36,700,l),
(85,275,l)
);
},
{
closed = 1;
nodes = (
(257,-11,o),
(297,30,o),
(297,113,cs),
(297,195,o),
(257,235,o),
(176,235,cs),
(93,235,o),
(53,195,o),
(53,113,cs),
(53,30,o),
(93,-11,o),
(176,-11,cs)
);
}
);
width = 337;
},
{
layerId = "FA91A8E1-7324-47F6-AE85-AED49CFCD01C";
shapes = (
{
closed = 1;
nodes = (
(104,139,l),
(107,700,l),
(96,700,l),
(99,139,l)
);
},
{
closed = 1;
nodes = (
(113,-5,o),
(118,0,o),
(118,10,cs),
(118,20,o),
(113,25,o),
(104,25,cs),
(95,25,o),
(90,20,o),
(90,10,cs),
(90,0,o),
(95,-5,o),
(104,-5,cs)
);
}
);
width = 208;
}
);
metricLeft = "=period*1.2";
metricRight = "=period*1.2";
unicode = 33;
}
{
glyphname = numbersign;
layers = (
{
hints = (
{
horizontal = 1;
origin = (0,3);
type = TTSnap;
},
{
horizontal = 1;
origin = (1,2);
type = TTSnap;
},
{
horizontal = 1;
origin = (0,0);
type = TTSnap;
},
{
horizontal = 1;
origin = (1,1);
type = TTSnap;
},
{
horizontal = 1;
options = 4;
origin = (2,1);
stem = 1;
target = (2,0);
type = TTStem;
},
{
horizontal = 1;
options = 4;
origin = (3,0);
stem = 1;
target = (3,1);
type = TTStem;
}
);
layerId = "3E7589AA-8194-470F-8E2F-13C1C581BE24";
shapes = (
{
closed = 1;
nodes = (
(303,605,l),
(215,605,l),
(215,0,l),
(303,0,l)
);
},
{
closed = 1;
nodes = (
(565,605,l),
(477,605,l),
(477,0,l),
(565,0,l)
);
},
{
closed = 1;
nodes = (
(100,212,l),
(100,125,l),
(680,125,l),
(680,212,l)
);
},
{
closed = 1;
nodes = (
(100,480,l),
(100,393,l),
(680,393,l),
(680,480,l)
);
}
);
width = 780;
},
{
layerId = "BFFFD157-90D3-4B85-B99D-9A2F366F03CA";
shapes = (
{
closed = 1;
nodes = (
(373,700,l),
(185,700,l),
(185,0,l),
(373,0,l)
);
},
{
closed = 1;
nodes = (
(655,700,l),
(467,700,l),
(467,0,l),
(655,0,l)
);
},
{
closed = 1;
nodes = (
(80,292,l),
(80,105,l),
(760,105,l),
(760,292,l)
);
},
{
closed = 1;
nodes = (
(80,575,l),
(80,393,l),
(760,393,l),
(760,575,l)
);
}
);
width = 840;
},
{
layerId = "FA91A8E1-7324-47F6-AE85-AED49CFCD01C";
shapes = (
{
closed = 1;
nodes = (
(253,593,l),
(246,593,l),
(246,0,l),
(253,0,l)
);
},
{
closed = 1;
nodes = (
(508,593,l),
(501,593,l),
(501,0,l),
(508,0,l)
);
},
{
closed = 1;
nodes = (
(112,135,l),
(112,128,l),
(641,128,l),
(641,135,l)
);
},
{
closed = 1;
nodes = (
(112,468,l),
(112,461,l),
(641,461,l),
(641,468,l)
);
}
);
width = 753;
}
);
unicode = 35;
}
{
glyphname = dollar;
layers = (
{
anchors = (
{
name = bottom;
pos = (286,0);
},
{
name = top;
pos = (319,700);
},
{
name = topright;
pos = (551,700);
}
);
hints = (
{
horizontal = 1;
options = 4;
origin = (4,24);
stem = 2;
target = (4,17);
type = TTStem;
},
{
horizontal = 1;
options = 4;
origin = (4,2);
stem = 2;
target = (4,39);
type = TTStem;
},
{
horizontal = 1;
origin = (4,17);
other1 = (4,33);
target = (4,2);
type = TTInterpolate;
},
{
horizontal = 1;
origin = (4,24);
other1 = (4,8);
target = (4,39);
type = TTInterpolate;
}
);
layerId = "3E7589AA-8194-470F-8E2F-13C1C581BE24";
shapes = (
{
closed = 1;
nodes = (
(280,641,l),
(280,810,l),
(191,810,l),
(191,641,l)
);
},
{
closed = 1;
nodes = (
(430,641,l),
(430,810,l),
(341,810,l),
(341,641,l)
);
},
{
closed = 1;
nodes = (
(266,-125,l),
(266,44,l),
(177,44,l),
(177,-125,l)
);
},
{
closed = 1;
nodes = (
(415,-125,l),
(415,44,l),
(326,44,l),
(326,-125,l)
);
},
{
closed = 1;
nodes = (
(447,695,o),
(386,709,o),
(320,709,cs),
(155,709,o),
(89,617,o),
(89,502,cs),
(89,390,o),
(150,345,o),
(218,318,cs),
(259,302,o),
(305,286,o),
(350,266,cs),
(411,238,o),
(423,202,o),
(423,170,cs),
(423,104,o),
(369,81,o),
(293,81,cs),
(212,81,o),
(151,102,o),
(99,130,c),
(75,40,l),
(134,5,o),
(210,-11,o),
(286,-11,cs),
(432,-11,o),
(516,50,o),
(516,174,cs),
(516,259,o),
(478,317,o),
(382,354,cs),
(342,369,o),
(297,385,o),
(265,398,cs),
(199,425,o),
(180,461,o),
(180,508,cs),
(180,592,o),
(239,617,o),
(319,617,cs),
(376,617,o),
(430,605,o),
(473,582,c),
(501,668,l)
);
}
);
width = 591;
},
{
anchors = (
{
name = bottom;
pos = (297,0);
},
{
name = top;
pos = (347,700);
},
{
name = topright;
pos = (564,700);
}
);
layerId = "BFFFD157-90D3-4B85-B99D-9A2F366F03CA";
shapes = (
{
closed = 1;
nodes = (
(304,601,l),
(304,810,l),
(163,810,l),
(163,601,l)
);
},
{
closed = 1;
nodes = (
(494,601,l),
(494,810,l),
(353,810,l),
(353,601,l)
);
},
{
closed = 1;
nodes = (
(280,-125,l),
(280,64,l),
(139,64,l),
(139,-125,l)
);
},
{
closed = 1;
nodes = (
(470,-125,l),
(470,64,l),
(329,64,l),
(329,-125,l)
);
},
{
closed = 1;
nodes = (
(503,694,o),
(429,713,o),
(349,713,cs),
(133,713,o),
(64,607,o),
(64,476,cs),
(64,380,o),
(101,324,o),
(168,286,cs),
(208,264,o),
(246,250,o),
(283,234,cs),
(326,215,o),
(337,208,o),
(337,198,cs),
(337,188,o),
(323,186,o),
(296,186,cs),
(218,186,o),
(148,205,o),
(83,230,c),
(64,29,l),
(133,0,o),
(220,-15,o),
(297,-15,cs),
(485,-15,o),
(564,62,o),
(564,202,cs),
(564,324,o),
(503,371,o),
(439,400,cs),
(408,414,o),
(376,426,o),
(337,442,cs),
(304,455,o),
(289,460,o),
(289,478,cs),
(289,497,o),
(316,503,o),
(353,503,cs),
(412,503,o),
(470,486,o),
(519,466,c),
(551,669,l)
);
}
);
width = 618;
},
{
anchors = (
{
name = bottom;
pos = (276,0);
},
{
name = top;
pos = (303,700);
},
{
name = topright;
pos = (528,700);
}
);
layerId = "FA91A8E1-7324-47F6-AE85-AED49CFCD01C";
shapes = (
{
closed = 1;
nodes = (
(239,696,l),
(239,810,l),
(232,810,l),
(232,695,l)
);
},
{
closed = 1;
nodes = (
(368,696,l),
(368,810,l),
(362,810,l),
(362,697,l)
);
},
{
closed = 1;
nodes = (
(216,-125,l),
(216,-3,l),
(209,-3,l),
(209,-125,l)
);
},
{
closed = 1;
nodes = (
(346,-125,l),
(346,-1,l),
(339,-1,l),
(339,-125,l)
);
},
{
closed = 1;
nodes = (
(426,685,o),
(375,707,o),
(304,707,cs),
(189,707,o),
(101,650,o),
(101,524,cs),
(101,438,o),
(144,384,o),
(217,353,cs),
(263,334,o),
(326,313,o),
(373,290,cs),
(438,259,o),
(466,210,o),
(466,149,cs),
(466,45,o),
(390,1,o),
(276,1,cs),
(206,1,o),
(145,15,o),
(94,42,c),
(91,35,l),
(137,8,o),
(203,-7,o),
(277,-7,cs),
(392,-7,o),
(474,38,o),
(474,149,cs),
(474,214,o),
(446,264,o),
(376,298,cs),
(325,323,o),
(263,343,o),
(221,361,cs),
(149,392,o),
(109,442,o),
(109,524,cs),
(109,641,o),
(189,699,o),
(305,699,cs),
(370,699,o),
(420,680,o),
(454,656,c),
(458,663,l)
);
}
);
width = 568;
}
);
unicode = 36;
}
{
glyphname = quotesingle;
kernLeft = quote;
kernRight = quote;
layers = (
{
guides = (
{
pos = (110,545);
}
);
hints = (
{
horizontal = 1;
origin = (0,1);
type = TTSnap;
},
{
horizontal = 1;
origin = (0,2);
type = TTSnap;
}
);
layerId = "3E7589AA-8194-470F-8E2F-13C1C581BE24";
shapes = (
{
closed = 1;
nodes = (
(102,445,l),
(189,445,l),
(201,750,l),
(90,750,l)
);
}
);
width = 291;
},
{
layerId = "BFFFD157-90D3-4B85-B99D-9A2F366F03CA";
shapes = (
{
closed = 1;
nodes = (
(82,330,l),
(264,330,l),
(281,750,l),
(65,750,l)
);
}
);
width = 346;
},
{
layerId = "FA91A8E1-7324-47F6-AE85-AED49CFCD01C";
shapes = (
{
closed = 1;
nodes = (
(103,536,l),
(109,536,l),
(110,750,l),
(103,750,l)
);
}
);
width = 213;
}
);
unicode = 39;
}
{
glyphname = parenleft;
layers = (
{
hints = (
{
horizontal = 1;
options = 4;
origin = (0,12);
stem = 1;
target = (0,13);
type = TTStem;
},
{
horizontal = 1;
options = 4;
origin = (0,5);
stem = 1;
target = (0,13);
type = TTStem;
}
);
layerId = "3E7589AA-8194-470F-8E2F-13C1C581BE24";
shapes = (
{
closed = 1;
nodes = (
(233,-25,o),
(187,50,o),
(187,316,cs),
(187,585,o),
(236,672,o),
(336,685,c),
(322,773,l),
(159,753,o),
(95,609,o),
(95,316,cs),
(95,31,o),
(158,-106,o),
(322,-133,c),
(336,-45,l)
);
}
);
width = 400;
},
{
layerId = "BFFFD157-90D3-4B85-B99D-9A2F366F03CA";
shapes = (
{
closed = 1;
nodes = (
(323,14,o),
(275,57,o),
(275,298,cs),
(275,531,o),
(323,586,o),
(394,586,c),
(384,800,l),
(158,800,o),
(51,677,o),
(51,298,cs),
(51,-112,o),
(158,-200,o),
(384,-200,c),
(394,14,l)
);
}
);
width = 430;
},
{
layerId = "FA91A8E1-7324-47F6-AE85-AED49CFCD01C";
shapes = (
{
closed = 1;
nodes = (
(176,-74,o),
(122,34,o),
(122,327,cs),
(122,622,o),
(176,739,o),
(298,767,c),
(297,774,l),
(168,743,o),
(115,627,o),
(115,327,cs),
(115,31,o),
(170,-80,o),
(297,-120,c),
(300,-113,l)
);
}
);
width = 379;
}
);
unicode = 40;
}
{
glyphname = plus;
layers = (
{
hints = (
{
horizontal = 1;
origin = (1,0);
type = TTSnap;
},
{
horizontal = 1;
origin = (1,3);
type = TTSnap;
},
{
horizontal = 1;
options = 4;
origin = (0,2);
stem = 1;
target = (0,3);
type = TTStem;
}
);
layerId = "3E7589AA-8194-470F-8E2F-13C1C581BE24";
shapes = (
{
closed = 1;
nodes = (
(70,285,l),
(70,197,l),
(520,197,l),
(520,285,l)
);
},
{
closed = 1;
nodes = (
(339,481,l),
(251,481,l),
(251,0,l),
(339,0,l)
);
}
);
width = 590;
},
{
layerId = "BFFFD157-90D3-4B85-B99D-9A2F366F03CA";
shapes = (
{
closed = 1;
nodes = (
(40,350,l),
(40,140,l),
(530,140,l),
(530,350,l)
);
},
{
closed = 1;
nodes = (
(390,490,l),
(180,490,l),
(180,0,l),
(390,0,l)
);
}
);
width = 570;
},
{
layerId = "FA91A8E1-7324-47F6-AE85-AED49CFCD01C";
shapes = (
{
closed = 1;
nodes = (
(82,238,l),
(82,231,l),
(498,231,l),
(498,238,l)
);
},
{
closed = 1;
nodes = (
(293,441,l),
(286,441,l),
(286,29,l),
(293,29,l)
);
}
);
width = 578;
}
);
unicode = 43;
}
{
glyphname = hyphen;
kernLeft = hyphen;
kernRight = hyphen;
layers = (
{
hints = (
{
horizontal = 1;
options = 4;
origin = (0,2);
stem = 1;
target = (0,3);
type = TTStem;
}
);
layerId = "3E7589AA-8194-470F-8E2F-13C1C581BE24";
shapes = (
{
closed = 1;
nodes = (
(70,310,l),
(70,222,l),
(350,222,l),
(350,310,l)
);
}
);
width = 420;
},
{
layerId = "BFFFD157-90D3-4B85-B99D-9A2F366F03CA";
shapes = (
{
closed = 1;
nodes = (
(40,371,l),
(40,161,l),
(330,161,l),
(330,371,l)
);
}
);
width = 370;
},
{
layerId = "FA91A8E1-7324-47F6-AE85-AED49CFCD01C";
shapes = (
{
closed = 1;
nodes = (
(80,269,l),
(80,262,l),
(314,262,l),
(314,269,l)
);
}
);
width = 394;
}
);
unicode = 45;
}
{
glyphname = zero;
kernLeft = zero;
kernRight = zero;
layers = (
{
background = {
shapes = (
{
closed = 1;
nodes = (
(438,-12,o),
(515,110,o),
(515,350,cs),
(515,580,o),
(447,712,o),
(281,712,cs),
(115,712,o),
(39,585,o),
(39,342,cs),
(39,111,o),
(109,-12,o),
(272,-12,cs)
);
},
{
closed = 1;
nodes = (
(158,79,o),
(132,169,o),
(132,349,cs),
(132,532,o),
(163,621,o),
(276,621,cs),
(392,621,o),
(422,529,o),
(422,343,cs),
(422,164,o),
(393,79,o),
(278,79,cs)
);
}
);
};
hints = (
{
horizontal = 1;
options = 4;
origin = (0,11);
stem = 2;
target = (1,11);
type = TTStem;
},
{
horizontal = 1;
options = 4;
origin = (0,5);
stem = 2;
target = (1,5);
type = TTStem;
}
);
layerId = "3E7589AA-8194-470F-8E2F-13C1C581BE24";
shapes = (
{
closed = 1;
nodes = (
(428,-12,o),
(500,118,o),
(500,270,cs),
(500,414,o),
(437,552,o),
(281,552,cs),
(125,552,o),
(54,417,o),
(54,263,cs),
(54,119,o),
(119,-12,o),
(272,-12,cs)
);
},
{
closed = 1;
nodes = (
(168,79,o),
(147,166,o),
(147,269,cs),
(147,373,o),
(173,461,o),
(276,461,cs),
(382,461,o),
(407,372,o),
(407,265,cs),
(407,162,o),
(383,79,o),
(278,79,cs)
);
}
);
width = 554;
},
{
background = {
shapes = (
{
closed = 1;
nodes = (
(497,-15,o),
(605,114,o),
(605,354,cs),
(605,584,o),
(506,715,o),
(315,715,cs),
(119,715,o),
(12,585,o),
(12,342,cs),
(12,111,o),
(113,-15,o),
(303,-15,cs)
);
},
{
closed = 1;
nodes = (
(259,203,o),
(245,253,o),
(245,348,cs),
(245,444,o),
(260,488,o),
(308,488,cs),
(358,488,o),
(373,444,o),
(373,345,cs),
(373,250,o),
(360,203,o),
(311,203,cs)
);
}
);
};
layerId = "BFFFD157-90D3-4B85-B99D-9A2F366F03CA";
shapes = (
{
closed = 1;
nodes = (
(492,-15,o),
(600,87,o),
(600,278,cs),
(600,460,o),
(501,565,o),
(315,565,cs),
(124,565,o),
(17,461,o),
(17,268,cs),
(17,85,o),
(118,-15,o),
(303,-15,cs)
);
},
{
closed = 1;
nodes = (
(264,189,o),
(250,217,o),
(250,273,cs),
(250,328,o),
(265,353,o),
(308,353,cs),
(353,353,o),
(368,328,o),
(368,270,cs),
(368,216,o),
(355,189,o),
(311,189,cs)
);
}
);
width = 617;
},
{
layerId = "FA91A8E1-7324-47F6-AE85-AED49CFCD01C";
shapes = (
{
closed = 1;
nodes = (
(411,-7,o),
(482,94,o),
(482,262,cs),
(482,431,o),
(414,535,o),
(283,535,cs),
(150,535,o),
(80,429,o),
(80,263,cs),
(80,96,o),
(149,-7,o),
(282,-7,cs)
);
},
{
closed = 1;
nodes = (
(154,1,o),
(88,102,o),
(88,262,cs),
(88,425,o),
(155,527,o),
(284,527,cs),
(411,527,o),
(474,425,o),
(474,263,cs),
(474,97,o),
(406,1,o),
(281,1,cs)
);
}
);
width = 562;
}
);
unicode = 48;
}
{
color = 10;
glyphname = two;
layers = (
{
background = {
shapes = (
{
closed = 1;
nodes = (
(196,92,l),
(333,73,ls),
(478,53,o),
(475,255,o),
(475,344,cs),
(475,479,o),
(386,552,o),
(253,552,cs),
(169,552,o),
(103,525,o),
(50,482,c),
(89,405,l),
(132,437,o),
(184,461,o),
(245,461,cs),
(330,461,o),
(382,414,o),
(382,336,cs),
(382,265,o),
(307,234,o),
(232,187,cs),
(57,78,l),
(57,0,l),
(489,0,l),
(489,92,l)
);
}
);
};
hints = (
{
horizontal = 1;
options = 4;
origin = (0,24);
stem = 2;
target = (0,25);
type = TTStem;
},
{
horizontal = 1;
options = 4;
origin = (0,8);
stem = 2;
target = (0,15);
type = TTStem;
}
);
layerId = "3E7589AA-8194-470F-8E2F-13C1C581BE24";
shapes = (
{
closed = 1;
nodes = (
(192,92,l),
(183,67,l),
(280,146,ls),
(357,209,o),
(415,275,o),
(415,376,cs),
(415,482,o),
(351,552,o),
(231,552,cs),
(159,552,o),
(100,526,o),
(56,496,c),
(81,417,l),
(125,445,o),
(167,461,o),
(213,461,cs),
(281,461,o),
(324,427,o),
(324,365,cs),
(324,303,o),
(285,260,o),
(220,208,cs),
(57,78,l),
(57,0,l),
(449,0,l),
(449,92,l)
);
}
);
width = 504;
},
{
background = {
shapes = (
{
closed = 1;
nodes = (
(363,220,l),
(419,290,ls),
(465,348,o),
(494,410,o),
(494,492,cs),
(494,644,o),
(398,712,o),
(244,712,cs),
(156,712,o),
(63,687,o),
(-9,650,c),
(38,442,l),
(81,459,o),
(134,469,o),
(168,469,cs),
(203,469,o),
(225,459,o),
(225,427,cs),
(225,391,o),
(197,352,o),
(168,323,cs),
(24,177,l),
(24,0,l),
(516,0,l),
(516,220,l)
);
}
);
};
layerId = "BFFFD157-90D3-4B85-B99D-9A2F366F03CA";
shapes = (
{
closed = 1;
nodes = (
(258,200,l),
(284,113,l),
(402,221,ls),
(456,271,o),
(472,325,o),
(472,379,cs),
(472,500,o),
(388,565,o),
(244,565,cs),
(156,565,o),
(80,544,o),
(24,516,c),
(58,311,l),
(95,329,o),
(131,341,o),
(165,341,cs),
(211,341,o),
(224,320,o),
(224,297,cs),
(224,272,o),
(208,257,o),
(173,236,cs),
(44,158,l),
(44,0,l),
(506,0,l),
(506,200,l)
);
}
);
width = 521;
},
{
layerId = "FA91A8E1-7324-47F6-AE85-AED49CFCD01C";
shapes = (
{
closed = 1;
nodes = (
(81,9,l),
(83,5,l),
(249,131,ls),
(346,204,o),
(427,266,o),
(427,376,cs),
(427,468,o),
(366,535,o),
(262,535,cs),
(201,535,o),
(138,512,o),
(86,465,c),
(89,459,l),
(141,505,o),
(207,527,o),
(263,527,cs),
(361,527,o),
(419,464,o),
(419,376,cs),
(419,271,o),
(337,206,o),
(245,138,cs),
(75,10,l),
(75,0,l),
(480,0,l),
(480,8,l)
);
}
);
width = 535;
},
{
associatedMasterId = "3E7589AA-8194-470F-8E2F-13C1C581BE24";
attr = {
coordinates = (
155
);
};
background = {
shapes = (
{
closed = 1;
nodes = (
(191,92,l),
(328,73,ls),
(473,53,o),
(470,255,o),
(470,344,cs),
(470,479,o),
(381,552,o),
(248,552,cs),
(164,552,o),
(98,525,o),
(45,482,c),
(84,405,l),
(127,437,o),
(179,461,o),
(240,461,cs),
(325,461,o),
(377,414,o),
(377,336,cs),
(377,265,o),
(302,234,o),
(227,187,cs),
(52,78,l),
(52,0,l),
(484,0,l),
(484,92,l)
);
}
);
};
hints = (
{
horizontal = 1;
options = 4;
origin = (0,24);
stem = 2;
target = (0,25);
type = TTStem;
},
{
horizontal = 1;
options = 4;
origin = (0,8);
stem = 2;
target = (0,15);
type = TTStem;
}
);
layerId = "E79EF81B-D1A3-4723-B90E-C11834A3921A";
name = "{155}";
shapes = (
{
closed = 1;
nodes = (
(222,146,l),
(232,83,l),
(342,179,ls),
(402,231,o),
(440,282,o),
(440,368,cs),
(440,486,o),
(366,559,o),
(228,559,cs),
(158,559,o),
(90,538,o),
(40,508,c),
(67,364,l),
(109,387,o),
(156,406,o),
(206,406,cs),
(257,406,o),
(285,383,o),
(285,346,cs),
(285,298,o),
(239,260,o),
(189,220,cs),
(48,107,l),
(48,0,l),
(477,0,l),
(477,146,l)
);
}
);
width = 512;
}
);
unicode = 50;
}
{
glyphname = four;
layers = (
{
background = {
shapes = (
{
closed = 1;
nodes = (
(450,542,l),
(324,542,l),
(61,75,l),
(70,0,l),
(558,0,l),
(558,91,l),
(417,91,l),
(386,88,l),
(170,88,l),
(346,415,l),
(360,415,l),
(360,60,l),
(357,32,l),
(357,-150,l),
(450,-150,l)
);
}
);
};
hints = (
{
horizontal = 1;
options = 4;
origin = (0,4);
stem = 2;
target = (0,5);
type = TTStem;
},
{
horizontal = 1;
options = 4;
origin = (0,1);
stem = 2;
target = (0,9);
type = TTStem;
},
{
horizontal = 1;
origin = (0,14);
type = TTSnap;
},
{
horizontal = 1;
options = 4;
origin = (0,3);
stem = 2;
target = (0,8);
type = TTStem;
}
);
layerId = "3E7589AA-8194-470F-8E2F-13C1C581BE24";
shapes = (
{
closed = 1;
nodes = (
(474,542,l),
(348,542,l),
(55,75,l),
(64,0,l),
(602,0,l),
(602,91,l),
(441,91,l),
(410,91,l),
(165,91,l),
(371,415,l),
(382,415,l),
(382,60,l),
(381,32,l),
(381,-150,l),
(474,-150,l)
);
}
);
width = 629;
},
{
background = {
shapes = (
{
closed = 1;
nodes = (
(346,302,l),
(549,602,l),
(549,782,l),
(46,782,l),
(46,562,l),
(241,562,l),
(30,259,l),
(30,82,l),
(560,82,l),
(560,302,l)
);
}
);
};
layerId = "BFFFD157-90D3-4B85-B99D-9A2F366F03CA";
shapes = (
{
closed = 1;
nodes = (
(555,550,l),
(202,550,l),
(30,187,l),
(42,0,l),
(647,0,l),
(647,195,l),
(479,195,l),
(392,175,l),
(243,175,l),
(320,338,l),
(345,338,l),
(345,133,l),
(327,60,l),
(327,-130,l),
(555,-130,l)
);
}
);
width = 667;
},
{
associatedMasterId = "3E7589AA-8194-470F-8E2F-13C1C581BE24";
background = {
shapes = (
{
closed = 1;
nodes = (
(467,543,l),
(278,543,l),
(46,108,l),
(56,0,l),
(557,0,l),
(557,127,l),
(422,127,l),
(376,122,l),
(184,122,l),
(328,399,l),
(343,399,l),
(343,80,l),
(337,39,l),
(337,-149,l),
(467,-149,l)
);
}
);
};
hints = (
{
horizontal = 1;
options = 4;
origin = (0,4);
stem = 2;
target = (0,5);
type = TTStem;
},
{
horizontal = 1;
options = 4;
origin = (0,1);
stem = 2;
target = (0,9);
type = TTStem;
},
{
horizontal = 1;
origin = (0,14);
type = TTSnap;
},
{
horizontal = 1;
options = 4;
origin = (0,3);
stem = 2;
target = (0,8);
type = TTStem;
}
);
layerId = "CA0068B6-F497-4AE1-9256-AA50AE92D134";
name = "125, 100";
shapes = (
{
closed = 1;
nodes = (
(494,544,l),
(307,544,l),
(46,105,l),
(56,0,l),
(619,0,l),
(619,121,l),
(449,121,l),
(403,116,l),
(184,116,l),
(355,394,l),
(370,394,l),
(370,80,l),
(364,40,l),
(364,-145,l),
(494,-145,l)
);
}
);
width = 644;
},
{
background = {
shapes = (
{
closed = 1;
nodes = (
(394,528,l),
(360,528,l),
(79,9,l),
(80,0,l),
(560,0,l),
(560,8,l),
(392,8,l),
(389,8,l),
(88,8,l),
(365,519,l),
(386,519,l),
(386,7,l),
(387,4,l),
(387,-166,l),
(394,-166,l)
);
}
);
};
layerId = "FA91A8E1-7324-47F6-AE85-AED49CFCD01C";
shapes = (
{
closed = 1;
nodes = (
(398,528,l),
(364,528,l),
(63,9,l),
(64,0,l),
(559,0,l),
(559,8,l),
(396,8,l),
(393,8,l),
(72,8,l),
(369,519,l),
(390,519,l),
(390,7,l),
(390,4,l),
(390,-166,l),
(398,-166,l)
);
}
);
width = 605;
}
);
unicode = 52;
}
{
color = 10;
glyphname = six;
kernLeft = six.lf;
kernRight = six.lf;
layers = (
{
hints = (
{
horizontal = 1;
options = 4;
origin = (0,28);
stem = 2;
target = (0,9);
type = TTStem;
},
{
horizontal = 1;
origin = (0,34);
stem = 2;
target = (0,3);
type = TTStem;
},
{
horizontal = 1;
options = 4;
origin = (0,22);
stem = 2;
target = (0,15);
type = TTStem;
}
);
layerId = "3E7589AA-8194-470F-8E2F-13C1C581BE24";
shapes = (
{
closed = 1;
nodes = (
(160,250,l),
(200,302,o),
(248,326,o),
(302,326,cs),
(380,326,o),
(421,276,o),
(421,202,cs),
(421,123,o),
(378,79,o),
(303,79,cs),
(213,79,o),
(165,138,o),
(165,315,cs),
(165,514,o),
(219,617,o),
(369,617,cs),
(402,617,o),
(440,612,o),
(473,601,c),
(496,687,l),
(456,704,o),
(409,712,o),
(362,712,cs),
(167,712,o),
(70,565,o),
(70,319,cs),
(70,91,o),
(145,-12,o),
(298,-12,cs),
(429,-12,o),
(514,65,o),
(514,207,cs),
(514,334,o),
(441,423,o),
(319,423,cs),
(264,423,o),
(216,405,o),
(174,375,c),
(149,388,l)
);
}
);
width = 574;
},
{
background = {
shapes = (
{
closed = 1;
nodes = (
(242,441,l),
(302,502,o),
(404,520,o),
(536,520,c),
(519,711,l),
(77,711,o),
(12,490,o),
(12,313,cs),
(12,83,o),
(132,-15,o),
(304,-15,cs),
(462,-15,o),
(577,66,o),
(577,234,cs),
(577,384,o),
(485,452,o),
(350,452,cs),
(314,452,o),
(273,447,o),
(246,429,c)
);
},
{
closed = 1;
nodes = (
(225,262,l),
(248,287,o),
(274,295,o),
(300,295,cs),
(341,295,o),
(359,277,o),
(359,243,cs),
(359,208,o),
(340,193,o),
(304,193,cs),
(247,193,o),
(239,235,o),
(239,336,c)
);
}
);
};
layerId = "BFFFD157-90D3-4B85-B99D-9A2F366F03CA";
shapes = (
{
closed = 1;
nodes = (
(236,241,l),
(259,271,o),
(282,280,o),
(305,280,cs),
(336,280,o),
(355,259,o),
(355,220,cs),
(355,178,o),
(335,163,o),
(307,163,cs),
(252,163,o),
(246,226,o),
(246,330,cs),
(246,465,o),
(293,509,o),
(386,509,cs),
(426,509,o),
(476,501,o),
(521,487,c),
(552,685,l),
(482,707,o),
(429,713,o),
(381,713,cs),
(131,713,o),
(27,556,o),
(27,321,cs),
(27,95,o),
(118,-15,o),
(310,-15,cs),
(486,-15,o),
(572,80,o),
(572,227,cs),
(572,367,o),
(494,444,o),
(371,444,cs),
(335,444,o),
(294,438,o),
(267,425,c),
(237,441,l)
);
}
);
width = 595;
},
{
associatedMasterId = "3E7589AA-8194-470F-8E2F-13C1C581BE24";
attr = {
coordinates = (
155
);
};
background = {
shapes = (
{
closed = 1;
nodes = (
(190,245,l),
(222,280,o),
(262,296,o),
(305,296,cs),
(364,296,o),
(394,266,o),
(394,214,cs),
(394,158,o),
(361,132,o),
(307,132,cs),
(232,132,o),
(201,186,o),
(201,319,cs),
(201,489,o),
(264,556,o),
(385,556,cs),
(422,556,o),
(466,550,o),
(503,536,c),
(530,684,l),
(476,705,o),
(425,711,o),
(382,711,cs),
(155,711,o),
(44,554,o),
(44,309,cs),
(44,85,o),
(145,-10,o),
(306,-10,cs),
(447,-10,o),
(549,68,o),
(549,220,cs),
(549,354,o),
(474,441,o),
(346,441,cs),
(298,441,o),
(250,428,o),
(216,406,c),
(188,421,l)
);
}
);
};
hints = (
{
horizontal = 1;
options = 4;
origin = (0,28);
stem = 2;
target = (0,9);
type = TTStem;
},
{
horizontal = 1;
origin = (0,34);
stem = 2;
target = (0,3);
type = TTStem;
},
{
horizontal = 1;
options = 4;
origin = (0,22);
stem = 2;
target = (0,15);
type = TTStem;
}
);
layerId = "5F53A8F5-BA3B-4164-AF21-C4FAB298C0F8";
name = "{155}";
shapes = (
{
closed = 1;
nodes = (
(198,245,l),
(230,282,o),
(268,296,o),
(304,296,cs),
(358,296,o),
(388,264,o),
(388,213,cs),
(388,159,o),
(357,132,o),
(305,132,cs),
(233,132,o),
(205,186,o),
(205,320,cs),
(205,486,o),
(256,554,o),
(378,554,cs),
(414,554,o),
(458,547,o),
(497,535,c),
(524,686,l),
(469,706,o),
(419,713,o),
(372,713,cs),
(149,713,o),
(48,561,o),
(48,320,cs),
(48,93,o),
(146,-14,o),
(304,-14,cs),
(443,-14,o),
(543,66,o),
(543,218,cs),
(543,358,o),
(468,440,o),
(345,440,cs),
(300,440,o),
(255,428,o),
(221,406,c),
(193,421,l)
);
}
);
width = 585;
},
{
layerId = "FA91A8E1-7324-47F6-AE85-AED49CFCD01C";
shapes = (
{
closed = 1;
nodes = (
(94,266,l),
(146,341,o),
(217,385,o),
(312,385,cs),
(427,385,o),
(480,314,o),
(480,199,cs),
(480,92,o),
(431,2,o),
(299,2,cs),
(162,2,o),
(97,98,o),
(97,313,cs),
(97,568,o),
(167,699,o),
(338,699,cs),
(372,699,o),
(409,693,o),
(451,677,c),
(454,685,l),
(411,701,o),
(377,707,o),
(338,707,cs),
(161,707,o),
(89,573,o),
(89,313,cs),
(89,90,o),
(157,-6,o),
(298,-6,cs),
(438,-6,o),
(489,91,o),
(489,199,cs),
(489,318,o),
(433,394,o),
(313,394,cs),
(213,394,o),
(144,345,o),
(99,285,c),
(94,285,l)
);
}
);
width = 564;
}
);
unicode = 54;
}
{
glyphname = seven;
layers = (
{
background = {
shapes = (
{
closed = 1;
nodes = (
(497,464,l),
(497,540,l),
(25,540,l),
(36,269,l),
(119,269,l),
(124,449,l),
(397,449,l),
(196,-160,l),
(292,-160,l)
);
}
);
};
hints = (
{
horizontal = 1;
options = 4;
origin = (0,2);
stem = 2;
target = (0,5);
type = TTStem;
},
{
horizontal = 1;
origin = (0,8);
type = TTSnap;
}
);
layerId = "3E7589AA-8194-470F-8E2F-13C1C581BE24";
shapes = (
{
closed = 1;
nodes = (
(497,464,l),
(497,540,l),
(55,540,l),
(66,299,l),
(149,299,l),
(154,449,l),
(397,449,l),
(197,-158,l),
(288,-169,l)
);
}
);
width = 562;
},
{
background = {
shapes = (
{
closed = 1;
nodes = (
(589,340,l),
(589,550,l),
(20,550,l),
(37,180,l),
(225,180,l),
(232,335,l),
(346,335,l),
(181,-150,l),
(424,-150,l)
);
}
);
};
layerId = "BFFFD157-90D3-4B85-B99D-9A2F366F03CA";
shapes = (
{
closed = 1;
nodes = (
(589,340,l),
(589,550,l),
(20,550,l),
(37,200,l),
(225,200,l),
(232,335,l),
(346,335,l),
(177,-146,l),
(419,-160,l)
);
}
);
width = 624;
},
{
layerId = "FA91A8E1-7324-47F6-AE85-AED49CFCD01C";
shapes = (
{
closed = 1;
nodes = (
(479,523,l),
(479,528,l),
(80,528,l),
(84,305,l),
(91,305,l),
(88,520,l),
(470,520,l),
(275,-171,l),
(283,-172,l)
);
}
);
width = 557;
}
);
unicode = 55;
}
{
glyphname = semicolon;
layers = (
{
background = {
shapes = (
{
closed = 1;
nodes = (
(98,480,l),
(98,369,l),
(210,369,l),
(210,480,l)
);
},
{
closed = 1;
nodes = (
(190,-197,o),
(220,-150,o),
(220,-62,cs),
(220,95,l),
(48,95,l),
(48,0,l),
(133,0,l),
(133,-60,ls),
(133,-99,o),
(118,-120,o),
(58,-127,c),
(77,-213,l)
);
}
);
};
hints = (
{
horizontal = 1;
options = 4;
place = (480, 111);
type = TTStem;
},
{
horizontal = 1;
options = 4;
place = (0, 95);
stem = 1;
type = TTStem;
},
{
horizontal = 1;
place = (-213, 0);
type = TTSnap;
}
);
layerId = "3E7589AA-8194-470F-8E2F-13C1C581BE24";
shapes = (
{
closed = 1;
nodes = (
(215,359,o),
(237,381,o),
(237,426,cs),
(237,470,o),
(215,492,o),
(171,492,cs),
(126,492,o),
(104,470,o),
(104,426,cs),
(104,381,o),
(126,359,o),
(171,359,cs)
);
},
{
closed = 1;
nodes = (
(190,-197,o),
(220,-150,o),
(220,-62,cs),
(220,115,l),
(133,115,l),
(133,-60,ls),
(133,-99,o),
(118,-120,o),
(58,-127,c),
(77,-213,l)
);
}
);
width = 342;
},
{
background = {
shapes = (
{
closed = 1;
nodes = (
(31,490,l),
(31,257,l),
(261,257,l),
(261,490,l)
);
},
{
closed = 1;
nodes = (
(172,-193,o),
(261,-127,o),
(261,14,cs),
(261,204,l),
(31,204,l),
(31,30,l),
(92,30,l),
(92,21,ls),
(92,-29,o),
(67,-48,o),
(10,-60,c),
(60,-210,l)
);
}
);
};
layerId = "BFFFD157-90D3-4B85-B99D-9A2F366F03CA";
shapes = (
{
closed = 1;
nodes = (
(254,259,o),
(294,300,o),
(294,383,cs),
(294,465,o),
(254,505,o),
(173,505,cs),
(90,505,o),
(50,465,o),
(50,383,cs),
(50,300,o),
(90,259,o),
(173,259,cs)
);
},
{
closed = 1;
nodes = (
(182,-203,o),
(270,-147,o),
(270,-6,cs),
(270,204,l),
(72,204,l),
(72,41,ls),
(72,-5,o),
(52,-18,o),
(10,-29,c),
(80,-210,l)
);
}
);
width = 344;
},
{
background = {
shapes = (
{
closed = 1;
nodes = (
(129,468,l),
(129,449,l),
(148,449,l),
(148,468,l)
);
},
{
closed = 1;
nodes = (
(142,-189,o),
(158,-153,o),
(158,-105,cs),
(158,8,l),
(76,8,l),
(76,0,l),
(150,0,l),
(150,-107,ls),
(150,-156,o),
(133,-183,o),
(80,-198,c),
(83,-205,l)
);
}
);
};
layerId = "FA91A8E1-7324-47F6-AE85-AED49CFCD01C";
shapes = (
{
closed = 1;
nodes = (
(148,442,o),
(153,447,o),
(153,457,cs),
(153,467,o),
(148,472,o),
(139,472,cs),
(130,472,o),
(125,467,o),
(125,457,cs),
(125,447,o),
(130,442,o),
(139,442,cs)
);
},
{
closed = 1;
nodes = (
(128,-189,o),
(144,-153,o),
(144,-105,cs),
(144,78,l),
(136,78,l),
(136,-107,ls),
(136,-156,o),
(119,-183,o),
(66,-198,c),
(69,-205,l)
);
}
);
width = 268;
}
);
unicode = 59;
}
{
glyphname = equal;
layers = (
{
hints = (
{
horizontal = 1;
options = 4;
origin = (1,2);
target = (1,3);
type = TTStem;
},
{
horizontal = 1;
options = 4;
origin = (0,2);
target = (0,3);
type = TTStem;
}
);
layerId = "3E7589AA-8194-470F-8E2F-13C1C581BE24";
shapes = (
{
closed = 1;
nodes = (
(77,385,l),
(77,297,l),
(507,297,l),
(507,385,l)
);
},
{
closed = 1;
nodes = (
(77,185,l),
(77,97,l),
(507,97,l),
(507,185,l)
);
}
);
width = 584;
},
{
layerId = "BFFFD157-90D3-4B85-B99D-9A2F366F03CA";
shapes = (
{
closed = 1;
nodes = (
(44,490,l),
(44,280,l),
(534,280,l),
(534,490,l)
);
},
{
closed = 1;
nodes = (
(44,210,l),
(44,0,l),
(534,0,l),
(534,210,l)
);
}
);
width = 578;
},
{
layerId = "FA91A8E1-7324-47F6-AE85-AED49CFCD01C";
shapes = (
{
closed = 1;
nodes = (
(90,327,l),
(90,320,l),
(463,320,l),
(463,327,l)
);
},
{
closed = 1;
nodes = (
(90,138,l),
(90,131,l),
(463,131,l),
(463,138,l)
);
}
);
width = 553;
}
);
metricLeft = "=minus*1.1";
metricRight = "=minus*1.1";
unicode = 61;
}
{
color = 10;
glyphname = question;
layers = (
{
background = {
shapes = (
{
closed = 1;
nodes = (
(262,217,o),
(260,249,o),
(298,273,cs),
(390,331,o),
(448,399,o),
(448,501,cs),
(448,662,o),
(356,712,o),
(220,712,cs),
(163,712,o),
(112,700,o),
(67,679,c),
(83,591,l),
(118,606,o),
(164,619,o),
(216,619,cs),
(303,619,o),
(355,584,o),
(355,500,cs),
(355,422,o),
(316,378,o),
(234,332,cs),
(216,322,o),
(202,308,o),
(194,288,cs),
(185,263,o),
(184,230,o),
(193,185,c),
(268,185,l)
);
}
);
};
hints = (
{
horizontal = 1;
options = 4;
place = (0, 120);
type = TTStem;
}
);
layerId = "3E7589AA-8194-470F-8E2F-13C1C581BE24";
shapes = (
{
closed = 1;
nodes = (
(267,203,o),
(265,221,o),
(270,238,cs),
(293,315,o),
(448,347,o),
(448,521,cs),
(448,658,o),
(356,712,o),
(228,712,cs),
(167,712,o),
(112,700,o),
(67,681,c),
(83,590,l),
(118,604,o),
(164,618,o),
(218,618,cs),
(303,618,o),
(355,580,o),
(355,510,cs),
(355,398,o),
(222,370,o),
(189,281,cs),
(180,257,o),
(178,230,o),
(187,185,c),
(270,185,l)
);
},
{
closed = 1;
nodes = (
(287,-7,o),
(309,15,o),
(309,60,cs),
(309,104,o),
(287,126,o),
(243,126,cs),
(198,126,o),
(176,104,o),
(176,60,cs),
(176,15,o),
(198,-7,o),
(243,-7,cs)
);
}
);
width = 499;
},
{
background = {
shapes = (
{
closed = 1;
nodes = (
(286,275,l),
(335,700,l),
(70,700,l),
(119,275,l)
);
}
);
};
layerId = "BFFFD157-90D3-4B85-B99D-9A2F366F03CA";
shapes = (
{
closed = 1;
nodes = (
(303,265,o),
(303,273,o),
(305,282,cs),
(322,357,o),
(468,350,o),
(468,518,cs),
(468,692,o),
(329,715,o),
(206,715,cs),
(131,715,o),
(74,706,o),
(31,696,c),
(65,488,l),
(93,494,o),
(130,499,o),
(171,499,cs),
(204,499,o),
(233,492,o),
(233,463,cs),
(233,406,o),
(115,432,o),
(90,340,cs),
(84,318,o),
(83,292,o),
(96,254,c),
(306,255,l)
);
},
{
closed = 1;
nodes = (
(291,-11,o),
(331,30,o),
(331,113,cs),
(331,195,o),
(291,235,o),
(210,235,cs),
(127,235,o),
(87,195,o),
(87,113,cs),
(87,30,o),
(127,-11,o),
(210,-11,cs)
);
}
);
width = 489;
},
{
layerId = "FA91A8E1-7324-47F6-AE85-AED49CFCD01C";
shapes = (
{
closed = 1;
nodes = (
(241,182,o),
(236,235,o),
(261,274,cs),
(319,363,o),
(444,381,o),
(444,535,cs),
(444,645,o),
(377,707,o),
(258,707,cs),
(192,707,o),
(136,687,o),
(90,654,c),
(92,646,l),
(134,677,o),
(197,699,o),
(257,699,cs),
(373,699,o),
(436,640,o),
(436,534,cs),
(436,385,o),
(315,369,o),
(255,278,cs),
(228,236,o),
(234,179,o),
(258,139,c),
(265,139,l)
);
},
{
closed = 1;
nodes = (
(284,-5,o),
(289,0,o),
(289,10,cs),
(289,20,o),
(284,25,o),
(275,25,cs),
(266,25,o),
(261,20,o),
(261,10,cs),
(261,0,o),
(266,-5,o),
(275,-5,cs)
);
}
);
width = 516;
},
{
associatedMasterId = "3E7589AA-8194-470F-8E2F-13C1C581BE24";
attr = {
coordinates = (
155
);
};
background = {
shapes = (
{
closed = 1;
nodes = (
(255,217,o),
(253,249,o),
(291,273,cs),
(383,331,o),
(441,399,o),
(441,501,cs),
(441,662,o),
(349,712,o),
(213,712,cs),
(156,712,o),
(105,700,o),
(60,679,c),
(76,591,l),
(111,606,o),
(157,619,o),
(209,619,cs),
(296,619,o),
(348,584,o),
(348,500,cs),
(348,422,o),
(309,378,o),
(227,332,cs),
(209,322,o),
(195,308,o),
(187,288,cs),
(178,263,o),
(177,230,o),
(186,185,c),
(261,185,l)
);
}
);
};
hints = (
{
horizontal = 1;
options = 4;
place = (0, 60);
type = TTStem;
}
);
layerId = "7E337871-3B5B-48E8-8CAF-A6DB579C5CF8";
name = "{155}";
shapes = (
{
closed = 1;
nodes = (
(287,234,o),
(286,247,o),
(289,260,cs),
(307,338,o),
(461,344,o),
(461,518,cs),
(461,668,o),
(337,714,o),
(217,714,cs),
(154,714,o),
(96,703,o),
(52,689,c),
(77,541,l),
(108,550,o),
(150,559,o),
(196,559,cs),
(256,559,o),
(297,540,o),
(297,499,cs),
(297,427,o),
(176,420,o),
(144,314,cs),
(136,288,o),
(134,258,o),
(145,220,c),
(290,220,l)
);
},
{
closed = 1;
nodes = (
(292,-9,o),
(323,23,o),
(323,87,cs),
(323,150,o),
(292,181,o),
(229,181,cs),
(165,181,o),
(134,150,o),
(134,87,cs),
(134,23,o),
(165,-9,o),
(229,-9,cs)
);
}
);
width = 497;
}
);
unicode = 63;
}
{
glyphname = at;
layers = (
{
background = {
shapes = (
{
closed = 1;
nodes = (
(655,810,l),
(565,810,l),
(565,221,ls),
(565,118,o),
(517,84,o),
(454,84,cs),
(374,84,o),
(336,136,o),
(336,246,cs),
(336,356,o),
(379,411,o),
(467,411,cs),
(509,411,o),
(548,398,o),
(574,368,c),
(593,454,l),
(567,480,o),
(523,499,o),
(460,499,cs),
(318,499,o),
(246,402,o),
(246,238,cs),
(246,93,o),
(296,-1,o),
(429,-1,cs),
(495,-1,o),
(541,22,o),
(561,67,c),
(569,67,l),
(578,10,l),
(655,10,l)
);
}
);
};
hints = (
{
horizontal = 1;
options = 4;
origin = (0,43);
stem = 1;
target = (0,50);
type = TTStem;
},
{
horizontal = 1;
options = 4;
origin = (0,24);
stem = 1;
target = (1,2);
type = TTStem;
},
{
horizontal = 1;
options = 4;
origin = (1,8);
stem = 1;
target = (0,18);
type = TTStem;
},
{
horizontal = 1;
options = 4;
origin = (0,5);
stem = 1;
target = (0,37);
type = TTStem;
},
{
horizontal = 1;
options = 4;
origin = (1,2);
target = (0,11);
type = TTShift;
},
{
horizontal = 1;
options = 4;
origin = (0,24);
target = (0,31);
type = TTShift;
}
);
layerId = "3E7589AA-8194-470F-8E2F-13C1C581BE24";
shapes = (
{
closed = 1;
nodes = (
(268,-124,o),
(173,4,o),
(173,252,cs),
(173,501,o),
(278,644,o),
(490,644,cs),
(678,644,o),
(770,533,o),
(770,346,cs),
(770,209,o),
(731,126,o),
(640,126,c),
(630,160,o),
(629,197,o),
(629,244,cs),
(629,437,l),
(598,459,o),
(545,474,o),
(488,474,cs),
(355,474,o),
(287,389,o),
(287,236,cs),
(287,113,o),
(337,21,o),
(438,21,cs),
(479,21,o),
(529,40,o),
(556,90,c),
(562,90,l),
(567,70,o),
(574,47,o),
(581,29,c),
(759,28,o),
(858,141,o),
(858,352,cs),
(858,587,o),
(729,730,o),
(490,730,cs),
(225,730,o),
(85,543,o),
(85,247,cs),
(85,-48,o),
(213,-210,o),
(502,-210,cs),
(618,-210,o),
(710,-193,o),
(801,-162,c),
(780,-80,l),
(697,-109,o),
(613,-124,o),
(506,-124,cs)
);
},
{
closed = 1;
nodes = (
(541,152,o),
(513,105,o),
(459,105,cs),
(402,105,o),
(378,155,o),
(378,240,cs),
(378,334,o),
(408,384,o),
(485,384,cs),
(508,384,o),
(526,380,o),
(541,373,c),
(541,240,ls)
);
}
);
width = 935;
},
{
layerId = "BFFFD157-90D3-4B85-B99D-9A2F366F03CA";
shapes = (
{
closed = 1;
nodes = (
(313,-13,o),
(236,54,o),
(236,260,cs),
(236,485,o),
(338,553,o),
(516,553,cs),
(654,553,o),
(753,509,o),
(753,346,cs),
(753,290,o),
(741,234,o),
(701,234,c),
(698,253,o),
(696,282,o),
(696,323,cs),
(696,458,l),
(656,485,o),
(595,508,o),
(515,508,cs),
(365,508,o),
(278,429,o),
(278,253,cs),
(278,116,o),
(330,31,o),
(437,31,cs),
(495,31,o),
(533,55,o),
(556,89,c),
(566,89,l),
(569,71,o),
(573,56,o),
(578,41,c),
(840,41,o),
(948,134,o),
(948,363,cs),
(948,642,o),
(791,765,o),
(521,765,cs),
(237,765,o),
(40,606,o),
(40,260,cs),
(40,-45,o),
(160,-212,o),
(516,-212,cs),
(642,-212,o),
(817,-189,o),
(893,-159,c),
(854,36,l),
(773,7,o),
(651,-13,o),
(534,-13,cs)
);
},
{
closed = 1;
nodes = (
(522,233,o),
(515,213,o),
(490,213,cs),
(464,213,o),
(458,237,o),
(458,258,cs),
(458,292,o),
(472,309,o),
(496,309,cs),
(505,309,o),
(514,308,o),
(522,305,c),
(522,267,ls)
);
}
);
width = 984;
},
{
layerId = "FA91A8E1-7324-47F6-AE85-AED49CFCD01C";
shapes = (
{
closed = 1;
nodes = (
(237,-163,o),
(126,-18,o),
(126,250,cs),
(126,520,o),
(246,683,o),
(484,683,cs),
(726,683,o),
(803,529,o),
(803,318,cs),
(803,152,o),
(752,52,o),
(605,52,c),
(599,86,o),
(588,137,o),
(588,225,cs),
(588,407,l),
(562,425,o),
(525,435,o),
(485,435,cs),
(377,435,o),
(319,361,o),
(319,227,cs),
(319,105,o),
(368,39,o),
(455,39,cs),
(523,39,o),
(567,79,o),
(582,173,c),
(583,173,l),
(585,117,o),
(594,73,o),
(600,45,c),
(756,45,o),
(810,147,o),
(810,317,cs),
(810,532,o),
(732,690,o),
(484,690,cs),
(242,690,o),
(119,524,o),
(119,250,cs),
(119,-23,o),
(233,-170,o),
(503,-170,cs),
(601,-170,o),
(691,-154,o),
(778,-119,c),
(775,-112,l),
(690,-146,o),
(601,-163,o),
(503,-163,cs)
);
},
{
closed = 1;
nodes = (
(578,105,o),
(534,45,o),
(455,45,cs),
(375,45,o),
(327,108,o),
(327,226,cs),
(327,356,o),
(382,428,o),
(485,428,cs),
(522,428,o),
(558,417,o),
(581,402,c),
(579,225,ls)
);
}
);
width = 917;
}
);
metricLeft = H;
metricRight = "=H*.9";
unicode = 64;
}
{
glyphname = C;
kernLeft = O;
kernRight = C;
layers = (
{
anchors = (
{
name = bottom;
pos = (327,0);
},
{
name = top;
pos = (337,700);
},
{
name = topright;
pos = (573,700);
}
);
background = {
shapes = (
{
closed = 1;
nodes = (
(603,-15,o),
(741,114,o),
(741,354,cs),
(741,584,o),
(612,715,o),
(401,715,cs),
(185,715,o),
(48,585,o),
(48,342,cs),
(48,111,o),
(179,-15,o),
(389,-15,cs)
);
},
{
closed = 1;
nodes = (
(325,203,o),
(281,253,o),
(281,348,cs),
(281,444,o),
(326,488,o),
(394,488,cs),
(464,488,o),
(509,444,o),
(509,345,cs),
(509,250,o),
(466,203,o),
(397,203,cs)
);
}
);
};
layerId = "BFFFD157-90D3-4B85-B99D-9A2F366F03CA";
shapes = (
{
closed = 1;
nodes = (
(535,222,l),
(487,213,o),
(447,206,o),
(396,206,cs),
(316,206,o),
(261,245,o),
(261,347,cs),
(261,443,o),
(315,483,o),
(391,483,cs),
(444,483,o),
(478,474,o),
(527,461,c),
(551,682,l),
(506,699,o),
(448,715,o),
(359,715,cs),
(149,715,o),
(28,585,o),
(28,342,cs),
(28,111,o),
(141,-15,o),
(348,-15,cs),
(443,-15,o),
(507,3,o),
(553,23,c)
);
}
);
width = 588;
},
{
anchors = (
{
name = bottom;
pos = (350,0);
},
{
name = top;
pos = (365,700);
},
{
name = topright;
pos = (554,700);
}
);
background = {
shapes = (
{
closed = 1;
nodes = (
(567,-12,o),
(694,113,o),
(694,350,cs),
(694,580,o),
(576,712,o),
(390,712,cs),
(204,712,o),
(78,585,o),
(78,342,cs),
(78,114,o),
(198,-12,o),
(381,-12,cs)
);
},
{
closed = 1;
nodes = (
(247,78,o),
(171,172,o),
(171,349,cs),
(171,532,o),
(252,621,o),
(385,621,cs),
(521,621,o),
(601,529,o),
(601,343,cs),
(601,167,o),
(522,78,o),
(387,78,cs)
);
}
);
};
hints = (
{
horizontal = 1;
options = 4;
origin = (0,22);
stem = 2;
target = (0,3);
type = TTStem;
},
{
horizontal = 1;
options = 4;
origin = (0,16);
stem = 2;
target = (0,9);
type = TTStem;
}
);
layerId = "3E7589AA-8194-470F-8E2F-13C1C581BE24";
shapes = (
{
closed = 1;
nodes = (
(535,107,l),
(487,88,o),
(421,80,o),
(374,80,cs),
(237,80,o),
(163,162,o),
(163,344,cs),
(163,533,o),
(235,618,o),
(373,618,cs),
(423,618,o),
(481,609,o),
(527,590,c),
(546,677,l),
(503,697,o),
(443,711,o),
(376,711,cs),
(181,711,o),
(70,585,o),
(70,342,cs),
(70,111,o),
(177,-11,o),
(367,-11,cs),
(443,-11,o),
(508,5,o),
(551,26,c)
);
}
);
width = 624;
},
{
anchors = (
{
name = bottom;
pos = (349,0);
},
{
name = top;
pos = (358,700);
},
{
name = topright;
pos = (576,700);
}
);
layerId = "FA91A8E1-7324-47F6-AE85-AED49CFCD01C";
shapes = (
{
closed = 1;
nodes = (
(539,39,l),
(495,17,o),
(436,1,o),
(367,1,cs),
(200,1,o),
(93,118,o),
(93,342,cs),
(93,575,o),
(183,699,o),
(361,699,cs),
(427,699,o),
(480,683,o),
(524,661,c),
(526,668,l),
(482,690,o),
(428,707,o),
(361,707,cs),
(179,707,o),
(85,581,o),
(85,342,cs),
(85,113,o),
(193,-7,o),
(367,-7,cs),
(439,-7,o),
(497,9,o),
(541,31,c)
);
}
);
width = 626;
}
);
metricLeft = O;
unicode = 67;
}
{
glyphname = D;
kernLeft = H;
kernRight = O;
layers = (
{
anchors = (
{
name = bottom;
pos = (318,0);
},
{
name = center;
pos = (348,350);
},
{
name = stroke;
pos = (165,342);
},
{
name = top;
pos = (318,700);
},
{
name = topright;
pos = (686,700);
}
);
background = {
shapes = (
{
closed = 1;
nodes = (
(575,-15,o),
(713,114,o),
(713,354,cs),
(713,584,o),
(584,715,o),
(373,715,cs),
(157,715,o),
(20,585,o),
(20,342,cs),
(20,111,o),
(151,-15,o),
(361,-15,cs)
);
},
{
closed = 1;
nodes = (
(297,203,o),
(253,253,o),
(253,348,cs),
(253,444,o),
(298,488,o),
(366,488,cs),
(436,488,o),
(481,444,o),
(481,345,cs),
(481,250,o),
(438,203,o),
(369,203,cs)
);
}
);
};
layerId = "BFFFD157-90D3-4B85-B99D-9A2F366F03CA";
shapes = (
{
closed = 1;
nodes = (
(265,686,l),
(40,700,l),
(40,0,l),
(265,20,l)
);
},
{
closed = 1;
nodes = (
(537,-8,o),
(672,108,o),
(672,349,cs),
(672,588,o),
(541,707,o),
(260,707,cs),
(186,707,o),
(103,704,o),
(40,700,c),
(224,482,l),
(249,485,o),
(276,487,o),
(305,487,cs),
(395,487,o),
(442,439,o),
(442,338,cs),
(442,230,o),
(388,196,o),
(304,196,cs),
(272,196,o),
(244,198,o),
(221,201,c),
(40,0,l),
(119,-5,o),
(186,-8,o),
(260,-8,cs)
);
}
);
width = 700;
},
{
anchors = (
{
name = bottom;
pos = (317,0);
},
{
name = center;
pos = (347,350);
},
{
name = stroke;
pos = (160,334);
},
{
name = top;
pos = (317,700);
},
{
name = topright;
pos = (678,700);
}
);
background = {
shapes = (
{
closed = 1;
nodes = (
(564,-15,o),
(691,110,o),
(691,350,cs),
(691,580,o),
(573,712,o),
(377,712,cs),
(181,712,o),
(55,585,o),
(55,342,cs),
(55,111,o),
(175,-15,o),
(368,-15,cs)
);
},
{
closed = 1;
nodes = (
(224,75,o),
(148,169,o),
(148,349,cs),
(148,532,o),
(229,621,o),
(372,621,cs),
(518,621,o),
(598,529,o),
(598,343,cs),
(598,164,o),
(519,75,o),
(374,75,cs)
);
}
);
};
hints = (
{
horizontal = 1;
options = 4;
origin = (1,25);
stem = 2;
target = (1,18);
type = TTStem;
},
{
horizontal = 1;
options = 4;
origin = (1,5);
stem = 2;
target = (1,12);
type = TTStem;
}
);
layerId = "3E7589AA-8194-470F-8E2F-13C1C581BE24";
shapes = (
{
closed = 1;
nodes = (
(178,669,l),
(85,700,l),
(85,0,l),
(178,34,l)
);
},
{
closed = 1;
nodes = (
(486,-6,o),
(638,104,o),
(638,352,cs),
(638,585,o),
(498,706,o),
(267,706,cs),
(211,706,o),
(148,704,o),
(85,700,c),
(143,609,l),
(186,612,o),
(229,613,o),
(266,613,cs),
(466,613,o),
(545,505,o),
(545,342,cs),
(545,171,o),
(453,86,o),
(280,86,cs),
(231,86,o),
(184,88,o),
(138,91,c),
(85,0,l),
(148,-4,o),
(211,-6,o),
(267,-6,cs)
);
}
);
width = 708;
},
{
anchors = (
{
name = bottom;
pos = (326,0);
},
{
name = center;
pos = (367,350);
},
{
name = stroke;
pos = (177,336);
},
{
name = top;
pos = (337,700);
},
{
name = topright;
pos = (703,700);
}
);
background = {
shapes = (
{
closed = 1;
nodes = (
(127,700,l),
(119,700,l),
(119,0,l),
(127,0,l)
);
},
{
closed = 1;
nodes = (
(125,700,l),
(125,692,l),
(501,692,l),
(501,700,l)
);
},
{
closed = 1;
nodes = (
(125,8,l),
(125,0,l),
(511,0,l),
(511,8,l)
);
},
{
closed = 1;
nodes = (
(125,340,l),
(125,332,l),
(481,332,l),
(481,340,l)
);
}
);
};
layerId = "FA91A8E1-7324-47F6-AE85-AED49CFCD01C";
shapes = (
{
closed = 1;
nodes = (
(127,697,l),
(119,700,l),
(119,0,l),
(127,4,l)
);
},
{
closed = 1;
nodes = (
(509,-6,o),
(634,103,o),
(634,340,cs),
(634,585,o),
(507,706,o),
(279,706,cs),
(231,706,o),
(176,704,o),
(119,700,c),
(124,692,l),
(177,696,o),
(233,698,o),
(279,698,cs),
(501,698,o),
(625,578,o),
(625,342,cs),
(625,107,o),
(503,2,o),
(284,2,cs),
(235,2,o),
(178,4,o),
(126,8,c),
(119,0,l),
(176,-4,o),
(231,-6,o),
(285,-6,cs)
);
}
);
width = 719;
}
);
metricLeft = H;
metricRight = O;
unicode = 68;
}
{
glyphname = H;
kernLeft = H;
kernRight = H;
layers = (
{
anchors = (
{
name = "#exit";
pos = (680,0);
},
{
name = bottom;
pos = (360,0);
},
{
name = stroke;
pos = (360,557);
},
{
name = tonos;
pos = (10,800);
},
{
name = top;
pos = (360,700);
},
{
name = topleft;
pos = (10,700);
}
);
background = {
shapes = (
{
closed = 1;
nodes = (
(265,700,l),
(40,700,l),
(40,0,l),
(265,0,l)
);
},
{
closed = 1;
nodes = (
(170,700,l),
(162,510,l),
(495,510,l),
(495,700,l)
);
},
{
closed = 1;
nodes = (
(170,170,l),
(162,0,l),
(505,0,l),
(505,170,l)
);
},
{
closed = 1;
nodes = (
(170,428,l),
(162,248,l),
(475,248,l),
(475,428,l)
);
}
);
};
layerId = "BFFFD157-90D3-4B85-B99D-9A2F366F03CA";
shapes = (
{
closed = 1;
nodes = (
(265,700,l),
(40,700,l),
(40,0,l),
(265,0,l)
);
},
{
closed = 1;
nodes = (
(680,700,l),
(455,700,l),
(455,0,l),
(680,0,l)
);
},
{
closed = 1;
nodes = (
(256,447,l),
(256,226,l),
(562,226,l),
(562,447,l)
);
}
);
width = 720;
},
{
anchors = (
{
name = "#exit";
pos = (625,0);
},
{
name = bottom;
pos = (355,0);
},
{
name = stroke;
pos = (355,518);
},
{
name = tonos;
pos = (33,800);
},
{
name = top;
pos = (355,700);
},
{
name = topleft;
pos = (15,700);
}
);
background = {
shapes = (
{
closed = 1;
nodes = (
(178,700,l),
(85,700,l),
(85,0,l),
(178,0,l)
);
},
{
closed = 1;
nodes = (
(139,700,l),
(137,610,l),
(501,610,l),
(501,700,l)
);
},
{
closed = 1;
nodes = (
(139,90,l),
(137,0,l),
(511,0,l),
(511,90,l)
);
},
{
closed = 1;
nodes = (
(139,382,l),
(137,292,l),
(481,292,l),
(481,382,l)
);
}
);
};
hints = (
{
horizontal = 1;
origin = (0,3);
type = TTSnap;
},
{
horizontal = 1;
origin = (1,2);
type = TTSnap;
},
{
horizontal = 1;
origin = (0,0);
type = TTSnap;
},
{
horizontal = 1;
origin = (1,1);
type = TTSnap;
},
{
horizontal = 1;
origin = (2,3);
stem = 2;
target = (2,2);
type = TTStem;
}
);
layerId = "3E7589AA-8194-470F-8E2F-13C1C581BE24";
shapes = (
{
closed = 1;
nodes = (
(178,700,l),
(85,700,l),
(85,0,l),
(178,0,l)
);
},
{
closed = 1;
nodes = (
(625,700,l),
(532,700,l),
(532,0,l),
(625,0,l)
);
},
{
closed = 1;
nodes = (
(139,382,l),
(139,291,l),
(534,291,l),
(534,382,l)
);
}
);
width = 710;
},
{
anchors = (
{
name = "#exit";
pos = (581,0);
},
{
name = bottom;
pos = (351,0);
},
{
name = stroke;
pos = (351,513);
},
{
name = tonos;
pos = (20,800);
},
{
name = top;
pos = (351,700);
},
{
name = topleft;
pos = (32,700);
}
);
background = {
shapes = (
{
closed = 1;
nodes = (
(127,700,l),
(119,700,l),
(119,0,l),
(127,0,l)
);
},
{
closed = 1;
nodes = (
(125,700,l),
(125,692,l),
(501,692,l),
(501,700,l)
);
},
{
closed = 1;
nodes = (
(125,8,l),
(125,0,l),
(511,0,l),
(511,8,l)
);
},
{
closed = 1;
nodes = (
(125,340,l),
(125,332,l),
(481,332,l),
(481,340,l)
);
}
);
};
layerId = "FA91A8E1-7324-47F6-AE85-AED49CFCD01C";
shapes = (
{
closed = 1;
nodes = (
(127,700,l),
(119,700,l),
(119,0,l),
(127,0,l)
);
},
{
closed = 1;
nodes = (
(581,700,l),
(573,700,l),
(573,0,l),
(581,0,l)
);
},
{
closed = 1;
nodes = (
(125,340,l),
(125,332,l),
(575,332,l),
(575,340,l)
);
}
);
width = 700;
}
);
unicode = 72;
}
{
glyphname = T;
kernLeft = T;
kernRight = T;
layers = (
{
anchors = (
{
name = bottom;
pos = (323,0);
},
{
name = center;
pos = (323,350);
},
{
name = stroke;
pos = (323,269);
},
{
name = top;
pos = (323,700);
},
{
name = topright;
pos = (634,700);
}
);
layerId = "BFFFD157-90D3-4B85-B99D-9A2F366F03CA";
shapes = (
{
closed = 1;
nodes = (
(436,626,l),
(211,626,l),
(211,0,l),
(436,0,l)
);
},
{
closed = 1;
nodes = (
(27,700,l),
(27,485,l),
(619,485,l),
(619,700,l)
);
}
);
width = 646;
},
{
anchors = (
{
name = bottom;
pos = (315,0);
},
{
name = center;
pos = (315,350);
},
{
name = stroke;
pos = (314,319);
},
{
name = top;
pos = (315,700);
},
{
name = topright;
pos = (621,700);
}
);
background = {
shapes = (
{
closed = 1;
nodes = (
(158,700,l),
(65,700,l),
(65,0,l),
(158,0,l)
);
},
{
closed = 1;
nodes = (
(565,700,l),
(472,700,l),
(472,0,l),
(565,0,l)
);
},
{
closed = 1;
nodes = (
(119,369,l),
(117,278,l),
(529,278,l),
(533,369,l)
);
}
);
};
hints = (
{
horizontal = 1;
origin = (0,2);
type = TTSnap;
},
{
horizontal = 1;
options = 4;
origin = (1,0);
stem = 2;
target = (1,1);
type = TTStem;
},
{
horizontal = 1;
options = 4;
origin = (1,1);
target = (1,2);
type = TTShift;
}
);
layerId = "3E7589AA-8194-470F-8E2F-13C1C581BE24";
shapes = (
{
closed = 1;
nodes = (
(361,700,l),
(268,700,l),
(268,0,l),
(361,0,l)
);
},
{
closed = 1;
nodes = (
(38,700,l),
(38,609,l),
(591,609,l),
(591,700,l)
);
}
);
width = 629;
},
{
anchors = (
{
name = bottom;
pos = (309,0);
},
{
name = center;
pos = (309,350);
},
{
name = stroke;
pos = (309,319);
},
{
name = top;
pos = (309,700);
},
{
name = topright;
pos = (614,700);
}
);
layerId = "FA91A8E1-7324-47F6-AE85-AED49CFCD01C";
shapes = (
{
closed = 1;
nodes = (
(313,696,l),
(305,696,l),
(305,0,l),
(313,0,l)
);
},
{
closed = 1;
nodes = (
(45,700,l),
(45,692,l),
(572,692,l),
(572,700,l)
);
}
);
width = 617;
}
);
unicode = 84;
}
{
glyphname = V;
kernLeft = V;
kernRight = V;
layers = (
{
anchors = (
{
name = bottom;
pos = (365,0);
},
{
name = top;
pos = (365,700);
}
);
background = {
shapes = (
{
closed = 1;
nodes = (
(188,0,l),
(538,0,l),
(723,700,l),
(490,700,l),
(387,230,l),
(358,230,l),
(252,700,l),
(10,700,l)
);
}
);
};
layerId = "BFFFD157-90D3-4B85-B99D-9A2F366F03CA";
shapes = (
{
closed = 1;
nodes = (
(181,0,l),
(545,0,l),
(721,700,l),
(485,700,l),
(383,210,l),
(359,210,l),
(260,700,l),
(10,700,l)
);
}
);
width = 730;
},
{
anchors = (
{
name = bottom;
pos = (344,0);
},
{
name = top;
pos = (344,700);
}
);
background = {
shapes = (
{
closed = 1;
nodes = (
(260,0,l),
(424,0,l),
(632,700,l),
(538,700,l),
(359,90,l),
(330,90,l),
(151,700,l),
(55,700,l)
);
},
{
closed = 1;
nodes = (
(522,431,l),
(524,522,l),
(162,522,l),
(158,431,l)
);
}
);
};
hints = (
{
horizontal = 1;
options = 4;
origin = (0,0);
stem = 2;
target = (0,5);
type = TTStem;
},
{
horizontal = 1;
origin = (0,7);
type = TTSnap;
},
{
horizontal = 1;
options = 4;
origin = (0,7);
target = (0,3);
type = TTShift;
}
);
layerId = "3E7589AA-8194-470F-8E2F-13C1C581BE24";
shapes = (
{
closed = 1;
nodes = (
(264,0,l),
(422,0,l),
(642,700,l),
(548,700,l),
(357,93,l),
(334,93,l),
(141,700,l),
(45,700,l)
);
}
);
width = 687;
},
{
anchors = (
{
name = bottom;
pos = (337,0);
},
{
name = top;
pos = (337,700);
}
);
layerId = "FA91A8E1-7324-47F6-AE85-AED49CFCD01C";
shapes = (
{
closed = 1;
nodes = (
(323,0,l),
(346,0,l),
(602,700,l),
(593,700,l),
(340,8,l),
(329,8,l),
(79,700,l),
(70,700,l)
);
}
);
width = 672;
}
);
metricLeft = A;
metricRight = A;
unicode = 86;
}
{
glyphname = X;
kernLeft = X;
kernRight = X;
layers = (
{
anchors = (
{
name = "#exit";
pos = (630,0);
},
{
name = bottom;
pos = (340,0);
},
{
name = top;
pos = (360,700);
}
);
background = {
shapes = (
{
closed = 1;
nodes = (
(707,700,l),
(467,700,l),
(383,432,l),
(368,432,l),
(283,700,l),
(20,700,l),
(146,359,l),
(6,0,l),
(262,0,l),
(324,217,l),
(339,217,l),
(417,0,l),
(695,0,l),
(573,329,l)
);
}
);
};
layerId = "BFFFD157-90D3-4B85-B99D-9A2F366F03CA";
shapes = (
{
closed = 1;
nodes = (
(687,700,l),
(437,700,l),
(362,502,l),
(352,502,l),
(268,700,l),
(18,700,l),
(183,354,l),
(10,0,l),
(260,0,l),
(334,188,l),
(344,188,l),
(427,0,l),
(687,0,l),
(511,331,l)
);
}
);
width = 697;
},
{
anchors = (
{
name = "#exit";
pos = (568,0);
},
{
name = bottom;
pos = (330,0);
},
{
name = top;
pos = (330,700);
}
);
background = {
shapes = (
{
closed = 1;
nodes = (
(584,700,l),
(483,700,l),
(348,401,l),
(333,401,l),
(187,700,l),
(79,700,l),
(261,356,l),
(65,0,l),
(171,0,l),
(311,272,l),
(326,272,l),
(480,0,l),
(594,0,l),
(395,328,l)
);
}
);
};
backgroundImage = {
imagePath = "/Users/yanone/Desktop/Bildschirmfoto 2016-12-06 um 14.28.14.png";
locked = 1;
pos = (-547,-140);
scale = (3.5985,3.9138);
};
hints = (
{
horizontal = 1;
origin = (0,7);
type = TTSnap;
},
{
horizontal = 1;
origin = (0,5);
type = TTSnap;
},
{
horizontal = 1;
options = 4;
origin = (0,5);
target = (0,1);
type = TTShift;
},
{
horizontal = 1;
options = 4;
origin = (0,7);
target = (0,11);
type = TTShift;
}
);
layerId = "3E7589AA-8194-470F-8E2F-13C1C581BE24";
shapes = (
{
closed = 1;
nodes = (
(594,700,l),
(493,700,l),
(337,408,l),
(331,408,l),
(177,700,l),
(69,700,l),
(264,351,l),
(55,0,l),
(161,0,l),
(320,278,l),
(326,278,l),
(490,0,l),
(604,0,l),
(396,339,l)
);
}
);
width = 659;
},
{
anchors = (
{
name = "#exit";
pos = (542,0);
},
{
name = bottom;
pos = (307,0);
},
{
name = top;
pos = (307,700);
}
);
layerId = "FA91A8E1-7324-47F6-AE85-AED49CFCD01C";
shapes = (
{
closed = 1;
nodes = (
(523,700,l),
(513,700,l),
(309,359,l),
(308,359,l),
(92,700,l),
(83,700,l),
(302,353,l),
(70,0,l),
(79,0,l),
(307,346,l),
(308,346,l),
(537,0,l),
(547,0,l),
(313,352,l)
);
}
);
width = 617;
}
);
unicode = 88;
}
{
glyphname = Y;
kernLeft = Y;
kernRight = Y;
layers = (
{
anchors = (
{
name = bottom;
pos = (345,0);
},
{
name = stroke;
pos = (348,298);
},
{
name = tonos;
pos = (-20,800);
},
{
name = top;
pos = (355,700);
},
{
name = topright;
pos = (664,700);
}
);
background = {
shapes = (
{
closed = 1;
nodes = (
(161,0,l),
(517,0,l),
(684,700,l),
(458,700,l),
(364,210,l),
(349,210,l),
(251,700,l),
(-5,700,l)
);
}
);
};
layerId = "BFFFD157-90D3-4B85-B99D-9A2F366F03CA";
shapes = (
{
closed = 1;
nodes = (
(239,170,l),
(460,170,l),
(681,700,l),
(435,700,l),
(365,445,l),
(341,445,l),
(271,700,l),
(5,700,l)
);
},
{
closed = 1;
nodes = (
(460,205,l),
(239,205,l),
(231,0,l),
(468,0,l)
);
}
);
width = 686;
},
{
anchors = (
{
name = bottom;
pos = (329,0);
},
{
name = stroke;
pos = (328,278);
},
{
name = tonos;
pos = (3,800);
},
{
name = top;
pos = (329,700);
},
{
name = topright;
pos = (637,700);
}
);
hints = (
{
horizontal = 1;
origin = (1,2);
type = TTSnap;
},
{
horizontal = 1;
origin = (0,7);
type = TTSnap;
},
{
horizontal = 1;
options = 4;
origin = (0,7);
target = (0,3);
type = TTShift;
}
);
layerId = "3E7589AA-8194-470F-8E2F-13C1C581BE24";
shapes = (
{
closed = 1;
nodes = (
(296,209,l),
(364,209,l),
(617,700,l),
(518,700,l),
(340,354,l),
(325,354,l),
(142,700,l),
(40,700,l)
);
},
{
closed = 1;
nodes = (
(371,310,l),
(288,310,l),
(283,0,l),
(376,0,l)
);
}
);
width = 657;
},
{
anchors = (
{
name = bottom;
pos = (326,0);
},
{
name = stroke;
pos = (327,251);
},
{
name = tonos;
pos = (0,800);
},
{
name = top;
pos = (325,700);
},
{
name = topright;
pos = (596,700);
}
);
layerId = "FA91A8E1-7324-47F6-AE85-AED49CFCD01C";
shapes = (
{
closed = 1;
nodes = (
(329,237,l),
(326,237,l),
(585,700,l),
(576,700,l),
(330,260,l),
(326,260,l),
(79,700,l),
(70,700,l)
);
},
{
closed = 1;
nodes = (
(331,256,l),
(324,256,l),
(323,0,l),
(331,0,l)
);
}
);
width = 655;
}
);
unicode = 89;
}
{
glyphname = bracketright;
layers = (
{
hints = (
{
horizontal = 1;
options = 4;
origin = (0,6);
stem = 1;
target = (0,2);
type = TTStem;
},
{
horizontal = 1;
options = 4;
origin = (0,2);
stem = 1;
target = (0,2);
type = TTStem;
}
);
layerId = "3E7589AA-8194-470F-8E2F-13C1C581BE24";
shapes = (
{
closed = 1;
nodes = (
(195,685,l),
(195,-45,l),
(64,-45,l),
(64,-133,l),
(285,-133,l),
(285,773,l),
(64,773,l),
(64,685,l)
);
}
);
width = 380;
},
{
layerId = "BFFFD157-90D3-4B85-B99D-9A2F366F03CA";
shapes = (
{
closed = 1;
nodes = (
(117,587,l),
(117,13,l),
(36,13,l),
(36,-200,l),
(335,-200,l),
(335,800,l),
(36,800,l),
(36,587,l)
);
}
);
width = 386;
},
{
layerId = "FA91A8E1-7324-47F6-AE85-AED49CFCD01C";
shapes = (
{
closed = 1;
nodes = (
(261,766,l),
(261,-113,l),
(79,-113,l),
(79,-120,l),
(268,-120,l),
(268,773,l),
(79,773,l),
(79,766,l)
);
}
);
width = 383;
}
);
metricLeft = "=|parenleft";
metricRight = "=|parenleft";
unicode = 93;
}
{
glyphname = asciicircum;
layers = (
{
hints = (
{
horizontal = 1;
origin = (0,3);
type = TTSnap;
},
{
horizontal = 1;
origin = (0,1);
type = TTSnap;
}
);
layerId = "3E7589AA-8194-470F-8E2F-13C1C581BE24";
shapes = (
{
closed = 1;
nodes = (
(309,700,l),
(202,700,l),
(80,485,l),
(170,485,l),
(253,626,l),
(334,485,l),
(427,485,l)
);
}
);
width = 507;
},
{
layerId = "BFFFD157-90D3-4B85-B99D-9A2F366F03CA";
shapes = (
{
closed = 1;
nodes = (
(407,700,l),
(139,700,l),
(20,456,l),
(237,456,l),
(267,528,l),
(295,456,l),
(518,456,l)
);
}
);
width = 538;
},
{
layerId = "FA91A8E1-7324-47F6-AE85-AED49CFCD01C";
shapes = (
{
closed = 1;
nodes = (
(187,700,l),
(182,700,l),
(46,471,l),
(55,471,l),
(185,688,l),
(313,471,l),
(322,471,l)
);
}
);
width = 368;
}
);
unicode = 94;
}
{
glyphname = underscore;
layers = (
{
background = {
shapes = (
{
closed = 1;
nodes = (
(130,0,l),
(130,270,ls),
(130,362,o),
(172,402,o),
(240,402,cs),
(278,402,o),
(308,390,o),
(328,370,c),
(328,0,l),
(418,0,l),
(418,423,l),
(388,454,o),
(343,490,o),
(257,490,cs),
(168,490,o),
(133,452,o),
(118,409,c),
(110,409,l),
(102,480,l),
(40,480,l),
(40,0,l)
);
}
);
};
hints = (
{
horizontal = 1;
origin = (0,2);
type = TTSnap;
},
{
horizontal = 1;
origin = (0,3);
type = TTSnap;
}
);
layerId = "3E7589AA-8194-470F-8E2F-13C1C581BE24";
shapes = (
{
closed = 1;
nodes = (
(-10,-84,l),
(-10,-172,l),
(390,-172,l),
(390,-84,l)
);
}
);
width = 380;
},
{
background = {
shapes = (
{
closed = 1;
nodes = (
(210,0,l),
(210,240,ls),
(210,272,o),
(224,283,o),
(244,283,cs),
(255,283,o),
(264,280,o),
(270,276,c),
(270,0,l),
(490,0,l),
(490,448,l),
(450,478,o),
(390,501,o),
(317,501,cs),
(219,501,o),
(169,461,o),
(148,401,c),
(138,401,l),
(122,490,l),
(-10,490,l),
(-10,0,l)
);
}
);
};
layerId = "BFFFD157-90D3-4B85-B99D-9A2F366F03CA";
shapes = (
{
closed = 1;
nodes = (
(-10,-50,l),
(-10,-210,l),
(369,-210,l),
(369,-50,l)
);
}
);
width = 359;
},
{
layerId = "FA91A8E1-7324-47F6-AE85-AED49CFCD01C";
shapes = (
{
closed = 1;
nodes = (
(-10,-100,l),
(-10,-107,l),
(299,-107,l),
(299,-100,l)
);
}
);
width = 289;
}
);
metricLeft = "=-10";
metricRight = "=-10";
unicode = 95;
}
{
color = 10;
glyphname = a;
kernLeft = a;
kernRight = a;
lastChange = "2022-01-23 18:00:01 +0000";
layers = (
{
anchors = (
{
name = bottom;
pos = (228,0);
},
{
name = ogonek;
pos = (464,0);
},
{
name = top;
pos = (240,490);
}
);
background = {
shapes = (
{
closed = 1;
nodes = (
(464,750,l),
(243,750,l),
(243,240,ls),
(243,185,o),
(227,159,o),
(195,159,cs),
(162,159,o),
(149,185,o),
(149,231,cs),
(149,285,o),
(167,311,o),
(208,311,cs),
(223,311,o),
(240,307,o),
(251,301,c),
(279,466,l),
(248,490,o),
(205,503,o),
(153,503,cs),
(8,503,o),
(-60,400,o),
(-60,233,cs),
(-60,89,o),
(-12,-10,o),
(145,-10,cs),
(222,-10,o),
(264,15,o),
(293,46,c),
(303,46,l),
(331,0,l),
(464,0,l)
);
}
);
};
layerId = "BFFFD157-90D3-4B85-B99D-9A2F366F03CA";
shapes = (
{
closed = 1;
nodes = (
(254,159,ls),
(254,126,o),
(240,117,o),
(222,117,cs),
(200,117,o),
(191,130,o),
(191,148,cs),
(191,158,o),
(194,169,o),
(204,175,cs),
(218,184,o),
(236,187,o),
(297,187,c),
(307,302,l),
(184,305,o),
(114,289,o),
(72,258,cs),
(32,228,o),
(17,178,o),
(17,130,cs),
(17,45,o),
(63,-12,o),
(158,-12,cs),
(230,-12,o),
(275,20,o),
(295,41,c),
(305,41,l),
(331,0,l),
(464,0,l),
(464,314,ls),
(464,448,o),
(378,501,o),
(237,501,cs),
(155,501,o),
(81,488,o),
(26,472,c),
(39,313,l),
(86,324,o),
(136,333,o),
(187,333,cs),
(243,333,o),
(254,321,o),
(254,295,cs)
);
}
);
width = 494;
},
{
anchors = (
{
name = bottom;
pos = (237,0);
},
{
name = ogonek;
pos = (412,0);
},
{
name = top;
pos = (229,480);
}
);
background = {
shapes = (
{
closed = 1;
nodes = (
(322,166,ls),
(322,109,o),
(294,68,o),
(218,68,cs),
(155,68,o),
(142,98,o),
(142,125,cs),
(142,151,o),
(155,167,o),
(172,177,cs),
(208,198,o),
(273,204,o),
(327,204,c),
(327,283,l),
(241,281,o),
(176,270,o),
(135,251,cs),
(77,225,o),
(54,178,o),
(54,124,cs),
(54,38,o),
(106,-10,o),
(200,-10,cs),
(263,-10,o),
(304,11,o),
(327,47,c),
(335,47,l),
(346,0,l),
(412,0,l),
(412,340,ls),
(412,460,o),
(329,489,o),
(236,489,cs),
(170,489,o),
(107,477,o),
(59,454,c),
(72,369,l),
(112,387,o),
(162,401,o),
(218,401,cs),
(309,401,o),
(322,364,o),
(322,316,cs)
);
}
);
};
layerId = "3E7589AA-8194-470F-8E2F-13C1C581BE24";
shapes = (
{
closed = 1;
nodes = (
(322,166,ls),
(322,109,o),
(294,68,o),
(218,68,cs),
(165,68,o),
(142,89,o),
(142,125,cs),
(142,151,o),
(155,167,o),
(172,177,cs),
(208,199,o),
(273,204,o),
(327,204,c),
(327,283,l),
(241,281,o),
(175,269,o),
(134,251,cs),
(76,225,o),
(53,178,o),
(53,124,cs),
(53,38,o),
(106,-10,o),
(200,-10,cs),
(263,-10,o),
(304,11,o),
(327,47,c),
(335,47,l),
(346,0,l),
(412,0,l),
(412,340,ls),
(412,446,o),
(341,489,o),
(230,489,cs),
(170,489,o),
(109,476,o),
(59,454,c),
(72,372,l),
(112,387,o),
(162,399,o),
(219,399,cs),
(294,399,o),
(322,377,o),
(322,316,cs)
);
}
);
width = 482;
},
{
anchors = (
{
name = bottom;
pos = (239,0);
},
{
name = ogonek;
pos = (445,0);
},
{
name = top;
pos = (246,485);
}
);
associatedMasterId = "3E7589AA-8194-470F-8E2F-13C1C581BE24";
attr = {
coordinates = (
155
);
};
background = {
shapes = (
{
closed = 1;
nodes = (
(293,159,ls),
(293,126,o),
(278,102,o),
(230,102,cs),
(189,102,o),
(178,119,o),
(178,135,cs),
(178,150,o),
(187,160,o),
(199,165,cs),
(225,176,o),
(262,180,o),
(299,180,c),
(304,295,l),
(221,294,o),
(150,278,o),
(106,249,cs),
(59,218,o),
(42,176,o),
(42,127,cs),
(42,38,o),
(94,-11,o),
(192,-11,cs),
(257,-11,o),
(297,12,o),
(319,46,c),
(328,46,l),
(342,0,l),
(443,0,l),
(443,337,ls),
(443,460,o),
(359,495,o),
(245,495,cs),
(169,495,o),
(91,479,o),
(37,458,c),
(66,325,l),
(106,340,o),
(159,355,o),
(214,355,cs),
(281,355,o),
(293,333,o),
(293,301,cs)
);
}
);
};
hints = (
{
horizontal = 1;
options = 4;
place = (-10, 78);
stem = 1;
type = TTStem;
},
{
horizontal = 1;
place = (283, -79);
stem = 1;
type = TTStem;
},
{
horizontal = 1;
options = 4;
place = (489, -86);
stem = 1;
type = TTStem;
},
{
horizontal = 1;
place = (0, 0);
type = TTSnap;
}
);
layerId = "1FA54028-AD2E-4209-AA7B-72DF2DF16264";
name = "{155}";
shapes = (
{
closed = 1;
nodes = (
(294,163,ls),
(294,130,o),
(279,106,o),
(230,106,cs),
(189,106,o),
(178,123,o),
(178,139,cs),
(178,154,o),
(187,164,o),
(199,169,cs),
(225,180,o),
(263,184,o),
(300,184,c),
(305,298,l),
(222,297,o),
(150,281,o),
(106,252,cs),
(59,221,o),
(41,176,o),
(41,127,cs),
(41,38,o),
(94,-11,o),
(192,-11,cs),
(257,-11,o),
(298,12,o),
(320,46,c),
(329,46,l),
(343,0,l),
(444,0,l),
(444,337,ls),
(444,460,o),
(360,495,o),
(245,495,cs),
(172,495,o),
(102,482,o),
(45,461,c),
(66,336,l),
(106,346,o),
(159,358,o),
(212,358,cs),
(282,358,o),
(294,336,o),
(294,304,cs)
);
}
);
width = 494;
},
{
anchors = (
{
name = bottom;
pos = (212,0);
},
{
name = ogonek;
pos = (360,0);
},
{
name = top;
pos = (225,470);
}
);
background = {
shapes = (
{
closed = 1;
nodes = (
(362,146,ls),
(362,52,o),
(300,0,o),
(209,0,cs),
(124,0,o),
(88,46,o),
(88,106,cs),
(88,137,o),
(99,162,o),
(114,178,cs),
(157,223,o),
(248,229,o),
(365,229,c),
(365,236,l),
(246,236,o),
(153,229,o),
(110,184,cs),
(91,164,o),
(81,139,o),
(81,106,cs),
(81,42,o),
(119,-7,o),
(209,-7,cs),
(282,-7,o),
(342,27,o),
(361,94,c),
(363,94,l),
(364,0,l),
(369,0,l),
(369,347,ls),
(369,435,o),
(327,475,o),
(231,475,cs),
(167,475,o),
(117,457,o),
(83,435,c),
(86,429,l),
(118,450,o),
(169,468,o),
(230,468,cs),
(323,468,o),
(362,430,o),
(362,348,cs)
);
}
);
};
layerId = "FA91A8E1-7324-47F6-AE85-AED49CFCD01C";
shapes = (
{
closed = 1;
nodes = (
(362,146,ls),
(362,52,o),
(300,0,o),
(209,0,cs),
(114,0,o),
(78,46,o),
(78,106,cs),
(78,137,o),
(88,161,o),
(104,178,cs),
(150,226,o),
(248,229,o),
(365,229,c),
(365,236,l),
(246,236,o),
(146,232,o),
(100,184,cs),
(80,163,o),
(71,139,o),
(71,106,cs),
(71,42,o),
(109,-7,o),
(209,-7,cs),
(282,-7,o),
(344,26,o),
(361,94,c),
(363,94,l),
(364,0,l),
(369,0,l),
(369,347,ls),
(369,435,o),
(318,475,o),
(227,475,cs),
(165,475,o),
(115,458,o),
(74,436,c),
(76,429,l),
(116,451,o),
(167,468,o),
(226,468,cs),
(314,468,o),
(362,430,o),
(362,348,cs)
);
}
);
width = 463;
}
);
metricRight = "=m";
unicode = 97;
}
{
glyphname = c;
kernLeft = o;
kernRight = c;
layers = (
{
anchors = (
{
name = bottom;
pos = (222,0);
},
{
name = top;
pos = (219,490);
},
{
name = topright;
pos = (401,490);
}
);
background = {
shapes = (
{
closed = 1;
nodes = (
(431,-14,o),
(520,77,o),
(520,248,cs),
(520,412,o),
(438,505,o),
(274,505,cs),
(109,505,o),
(17,410,o),
(17,239,cs),
(17,75,o),
(101,-14,o),
(264,-14,cs)
);
},
{
closed = 1;
nodes = (
(235,159,o),
(218,184,o),
(218,238,cs),
(218,288,o),
(234,311,o),
(268,311,cs),
(302,311,o),
(319,287,o),
(319,233,cs),
(319,183,o),
(303,159,o),
(270,159,cs)
);
}
);
};
layerId = "BFFFD157-90D3-4B85-B99D-9A2F366F03CA";
shapes = (
{
closed = 1;
nodes = (
(371,173,l),
(351,169,o),
(322,165,o),
(299,165,cs),
(249,165,o),
(228,185,o),
(228,238,cs),
(228,290,o),
(249,308,o),
(299,308,cs),
(325,308,o),
(352,303,o),
(369,297,c),
(389,489,l),
(357,498,o),
(310,502,o),
(274,502,cs),
(98,502,o),
(17,412,o),
(17,239,cs),
(17,77,o),
(94,-13,o),
(250,-13,cs),
(303,-13,o),
(353,-3,o),
(388,13,c)
);
}
);
width = 404;
},
{
anchors = (
{
name = bottom;
pos = (240,0);
},
{
name = top;
pos = (256,468);
},
{
name = topright;
pos = (409,468);
}
);
layerId = "FA91A8E1-7324-47F6-AE85-AED49CFCD01C";
shapes = (
{
closed = 1;
nodes = (
(381,28,l),
(348,9,o),
(306,0,o),
(264,0,cs),
(144,0,o),
(81,76,o),
(81,230,cs),
(81,379,o),
(132,468,o),
(261,468,cs),
(308,468,o),
(346,456,o),
(378,438,c),
(380,444,l),
(351,461,o),
(312,475,o),
(261,475,cs),
(128,475,o),
(74,384,o),
(74,231,cs),
(74,71,o),
(138,-7,o),
(264,-7,cs),
(310,-7,o),
(351,3,o),
(383,21,c)
);
}
);
width = 448;
},
{
anchors = (
{
name = bottom;
pos = (250,0);
},
{
name = top;
pos = (239,468);
},
{
name = topright;
pos = (399,468);
}
);
associatedMasterId = "FA91A8E1-7324-47F6-AE85-AED49CFCD01C";
layerId = "D078C88F-0BCD-47FA-BC5E-88E2D34377F0";
name = "Jul 15 17, 10:24";
shapes = (
{
closed = 1;
nodes = (
(370,38,l),
(339,14,o),
(296,0,o),
(249,0,cs),
(134,0,o),
(81,76,o),
(81,230,cs),
(81,379,o),
(123,468,o),
(247,468,cs),
(303,468,o),
(338,449,o),
(365,426,c),
(369,432,l),
(343,454,o),
(307,475,o),
(247,475,cs),
(119,475,o),
(74,384,o),
(74,231,cs),
(74,71,o),
(128,-7,o),
(249,-7,cs),
(300,-7,o),
(341,8,o),
(373,32,c)
);
}
);
width = 422;
},
{
anchors = (
{
name = bottom;
pos = (262,0);
},
{
name = top;
pos = (219,490);
},
{
name = topright;
pos = (401,490);
}
);
associatedMasterId = "BFFFD157-90D3-4B85-B99D-9A2F366F03CA";
background = {
shapes = (
{
closed = 1;
nodes = (
(431,-14,o),
(520,77,o),
(520,248,cs),
(520,412,o),
(438,505,o),
(274,505,cs),
(109,505,o),
(17,410,o),
(17,239,cs),
(17,75,o),
(101,-14,o),
(264,-14,cs)
);
},
{
closed = 1;
nodes = (
(235,159,o),
(218,184,o),
(218,238,cs),
(218,288,o),
(234,311,o),
(268,311,cs),
(302,311,o),
(319,287,o),
(319,233,cs),
(319,183,o),
(303,159,o),
(270,159,cs)
);
}
);
};
layerId = "43CDB287-E436-41C3-B7BF-648940BC688C";
name = "Jul 15 17, 10:24";
shapes = (
{
closed = 1;
nodes = (
(371,179,l),
(351,171,o),
(326,165,o),
(301,165,cs),
(253,165,o),
(228,185,o),
(228,238,cs),
(228,290,o),
(253,308,o),
(303,308,cs),
(329,308,o),
(352,303,o),
(369,297,c),
(389,483,l),
(357,495,o),
(310,502,o),
(264,502,cs),
(98,502,o),
(17,412,o),
(17,239,cs),
(17,77,o),
(94,-13,o),
(259,-13,cs),
(303,-13,o),
(353,-6,o),
(388,9,c)
);
}
);
width = 405;
},
{
anchors = (
{
name = bottom;
pos = (280,0);
},
{
name = top;
pos = (249,480);
},
{
name = topright;
pos = (429,480);
}
);
associatedMasterId = "3E7589AA-8194-470F-8E2F-13C1C581BE24";
background = {
shapes = (
{
closed = 1;
nodes = (
(378,101,l),
(345,86,o),
(309,78,o),
(274,78,cs),
(195,78,o),
(146,122,o),
(146,243,cs),
(146,354,o),
(188,400,o),
(270,400,cs),
(304,400,o),
(337,392,o),
(368,376,c),
(387,463,l),
(354,481,o),
(318,489,o),
(274,489,cs),
(130,489,o),
(56,401,o),
(56,237,cs),
(56,73,o),
(133,-11,o),
(270,-11,cs),
(315,-11,o),
(352,-4,o),
(389,13,c)
);
}
);
};
hints = (
{
horizontal = 1;
options = 4;
origin = (0,16);
stem = 1;
target = (0,9);
type = TTStem;
},
{
horizontal = 1;
options = 4;
origin = (0,22);
stem = 1;
target = (0,3);
type = TTStem;
}
);
layerId = "4B5F4F68-199D-4AA6-9274-76D7A0161A2A";
name = "Jul 15 17, 10:25";
shapes = (
{
closed = 1;
nodes = (
(378,101,l),
(345,86,o),
(309,78,o),
(274,78,cs),
(195,78,o),
(146,122,o),
(146,243,cs),
(146,354,o),
(188,400,o),
(270,400,cs),
(304,400,o),
(337,392,o),
(375,376,c),
(375,468,l),
(354,481,o),
(318,489,o),
(274,489,cs),
(130,489,o),
(56,401,o),
(56,237,cs),
(56,73,o),
(133,-11,o),
(270,-11,cs),
(315,-11,o),
(352,-4,o),
(389,13,c)
);
}
);
width = 424;
},
{
anchors = (
{
name = bottom;
pos = (250,0);
},
{
name = top;
pos = (249,480);
},
{
name = topright;
pos = (429,480);
}
);
background = {
shapes = (
{
closed = 1;
nodes = (
(378,101,l),
(345,86,o),
(309,78,o),
(274,78,cs),
(195,78,o),
(146,122,o),
(146,243,cs),
(146,354,o),
(188,400,o),
(270,400,cs),
(304,400,o),
(337,392,o),
(368,376,c),
(387,463,l),
(354,481,o),
(318,489,o),
(274,489,cs),
(130,489,o),
(56,401,o),
(56,237,cs),
(56,73,o),
(133,-11,o),
(270,-11,cs),
(315,-11,o),
(352,-4,o),
(389,13,c)
);
}
);
};
hints = (
{
horizontal = 1;
options = 4;
origin = (0,16);
stem = 1;
target = (0,9);
type = TTStem;
},
{
horizontal = 1;
options = 4;
origin = (0,22);
stem = 1;
target = (0,3);
type = TTStem;
}
);
layerId = "3E7589AA-8194-470F-8E2F-13C1C581BE24";
shapes = (
{
closed = 1;
nodes = (
(378,93,l),
(345,83,o),
(312,77,o),
(275,77,cs),
(198,77,o),
(146,122,o),
(146,243,cs),
(146,352,o),
(191,398,o),
(270,398,cs),
(307,398,o),
(337,392,o),
(368,380,c),
(387,467,l),
(354,481,o),
(321,489,o),
(271,489,cs),
(133,489,o),
(56,401,o),
(56,237,cs),
(56,73,o),
(134,-11,o),
(265,-11,cs),
(316,-11,o),
(352,-2,o),
(389,13,c)
);
}
);
width = 434;
}
);
metricLeft = o;
unicode = 99;
}
{
glyphname = d;
kernLeft = o;
kernRight = d;
layers = (
{
anchors = (
{
name = "#exit";
pos = (541,490);
},
{
name = bottom;
pos = (287,0);
},
{
name = cedilla;
pos = (177,1);
},
{
name = center;
pos = (283,245);
},
{
name = stroke;
pos = (394,637);
},
{
name = top;
pos = (428,750);
}
);
background = {
shapes = (
{
closed = 1;
nodes = (
(330,153,ls),
(330,120,o),
(316,111,o),
(298,111,cs),
(276,111,o),
(267,124,o),
(267,142,cs),
(267,152,o),
(270,163,o),
(280,169,cs),
(294,178,o),
(312,181,o),
(373,181,c),
(383,298,l),
(251,298,o),
(191,284,o),
(144,249,cs),
(106,221,o),
(93,176,o),
(93,131,cs),
(93,45,o),
(140,-12,o),
(242,-12,cs),
(311,-12,o),
(352,11,o),
(375,41,c),
(385,41,l),
(402,0,l),
(540,0,l),
(540,314,ls),
(540,448,o),
(454,501,o),
(313,501,cs),
(231,501,o),
(149,486,o),
(99,468,c),
(115,307,l),
(162,318,o),
(212,327,o),
(263,327,cs),
(319,327,o),
(330,315,o),
(330,289,cs)
);
}
);
};
layerId = "BFFFD157-90D3-4B85-B99D-9A2F366F03CA";
shapes = (
{
closed = 1;
nodes = (
(541,750,l),
(320,750,l),
(320,240,ls),
(320,185,o),
(304,159,o),
(272,159,cs),
(239,159,o),
(226,185,o),
(226,231,cs),
(226,285,o),
(244,311,o),
(285,311,cs),
(300,311,o),
(317,307,o),
(328,301,c),
(356,466,l),
(325,490,o),
(282,503,o),
(230,503,cs),
(85,503,o),
(17,400,o),
(17,226,cs),
(17,89,o),
(60,-10,o),
(214,-10,cs),
(294,-10,o),
(340,16,o),
(370,46,c),
(380,46,l),
(408,0,l),
(541,0,l)
);
}
);
width = 571;
},
{
anchors = (
{
name = "#exit";
pos = (465,480);
},
{
name = bottom;
pos = (268,0);
},
{
name = cedilla;
pos = (209,1);
},
{
name = center;
pos = (274,240);
},
{
name = stroke;
pos = (366,637);
},
{
name = top;
pos = (419,750);
}
);
background = {
shapes = (
{
closed = 1;
nodes = (
(395,61,l),
(403,0,l),
(465,0,l),
(465,670,l),
(375,670,l),
(375,237,ls),
(375,123,o),
(325,84,o),
(255,84,cs),
(182,84,o),
(146,125,o),
(146,232,cs),
(146,345,o),
(192,403,o),
(288,403,cs),
(323,403,o),
(360,395,o),
(394,367,c),
(422,445,l),
(377,478,o),
(329,489,o),
(280,489,cs),
(132,489,o),
(56,390,o),
(56,224,cs),
(56,86,o),
(103,-9,o),
(239,-9,cs),
(308,-9,o),
(361,16,o),
(387,61,c)
);
}
);
};
hints = (
{
horizontal = 1;
options = 4;
origin = (0,18);
stem = 1;
target = (0,11);
type = TTStem;
},
{
horizontal = 1;
options = 4;
origin = (0,24);
stem = 1;
target = (0,5);
type = TTStem;
},
{
horizontal = 1;
origin = (0,1);
type = TTSnap;
},
{
horizontal = 1;
origin = (0,29);
type = TTSnap;
}
);
layerId = "3E7589AA-8194-470F-8E2F-13C1C581BE24";
shapes = (
{
closed = 1;
nodes = (
(465,750,l),
(375,750,l),
(375,249,ls),
(375,116,o),
(327,80,o),
(261,80,cs),
(184,80,o),
(146,129,o),
(146,230,cs),
(146,337,o),
(190,399,o),
(286,399,cs),
(324,399,o),
(359,389,o),
(387,372,c),
(413,454,l),
(377,476,o),
(335,489,o),
(281,489,cs),
(128,489,o),
(56,383,o),
(56,216,cs),
(56,84,o),
(110,-11,o),
(235,-11,cs),
(296,-11,o),
(341,12,o),
(371,51,c),
(379,51,l),
(393,0,l),
(465,0,l)
);
}
);
width = 536;
},
{
anchors = (
{
name = "#exit";
pos = (421,468);
},
{
name = bottom;
pos = (266,0);
},
{
name = cedilla;
pos = (251,1);
},
{
name = center;
pos = (257,234);
},
{
name = stroke;
pos = (353,637);
},
{
name = top;
pos = (416,750);
}
);
layerId = "FA91A8E1-7324-47F6-AE85-AED49CFCD01C";
shapes = (
{
closed = 1;
nodes = (
(421,750,l),
(414,750,l),
(414,176,ls),
(414,59,o),
(356,0,o),
(252,0,cs),
(137,0,o),
(81,72,o),
(81,224,cs),
(81,379,o),
(141,468,o),
(280,468,cs),
(320,468,o),
(374,460,o),
(416,431,c),
(417,438,l),
(378,466,o),
(324,475,o),
(280,475,cs),
(137,475,o),
(74,384,o),
(74,224,cs),
(74,67,o),
(132,-7,o),
(251,-7,cs),
(342,-7,o),
(395,37,o),
(412,108,c),
(413,108,l),
(415,0,l),
(421,0,l)
);
}
);
width = 514;
}
);
metricLeft = o;
metricRight = "=|h*.95";
unicode = 100;
}
{
glyphname = f;
kernLeft = f;
kernRight = f;
layers = (
{
anchors = (
{
name = bottom;
pos = (188,0);
},
{
name = top;
pos = (243,750);
}
);
background = {
shapes = (
{
closed = 1;
nodes = (
(346,569,o),
(361,566,o),
(375,560,c),
(389,752,l),
(355,761,o),
(319,764,o),
(289,764,cs),
(149,764,o),
(73,695,o),
(73,532,cs),
(73,492,l),
(11,486,l),
(11,336,l),
(73,328,l),
(73,0,l),
(293,0,l),
(293,312,l),
(377,312,l),
(377,490,l),
(293,490,l),
(293,523,ls),
(293,554,o),
(302,569,o),
(332,569,cs)
);
}
);
};
layerId = "BFFFD157-90D3-4B85-B99D-9A2F366F03CA";
shapes = (
{
closed = 1;
nodes = (
(345,569,o),
(362,565,o),
(375,560,c),
(390,751,l),
(355,761,o),
(321,764,o),
(290,764,cs),
(145,764,o),
(73,695,o),
(73,532,cs),
(73,492,l),
(11,486,l),
(11,336,l),
(73,328,l),
(73,0,l),
(293,0,l),
(293,312,l),
(372,312,l),
(372,490,l),
(293,490,l),
(293,519,ls),
(293,554,o),
(304,569,o),
(330,569,cs)
);
}
);
width = 401;
},
{
anchors = (
{
name = bottom;
pos = (172,0);
},
{
name = top;
pos = (266,750);
}
);
background = {
shapes = (
{
closed = 1;
nodes = (
(225,81,o),
(206,99,o),
(206,143,cs),
(206,390,l),
(336,390,l),
(336,480,l),
(206,480,l),
(206,639,l),
(129,639,l),
(117,481,l),
(30,474,l),
(30,400,l),
(116,392,l),
(116,145,ls),
(116,39,o),
(163,-7,o),
(256,-7,cs),
(276,-7,o),
(301,-5,o),
(329,0,c),
(341,88,l),
(314,83,o),
(290,81,o),
(272,81,cs)
);
}
);
};
hints = (
{
horizontal = 1;
options = 4;
origin = (0,19);
stem = 1;
target = (0,16);
type = TTStem;
},
{
horizontal = 1;
options = 4;
origin = (0,10);
target = (0,19);
type = TTShift;
},
{
horizontal = 1;
options = 4;
origin = (0,16);
target = (0,13);
type = TTShift;
},
{
horizontal = 1;
origin = (0,15);
type = TTSnap;
},
{
horizontal = 1;
options = 4;
origin = (0,6);
stem = 1;
target = (0,23);
type = TTStem;
}
);
layerId = "3E7589AA-8194-470F-8E2F-13C1C581BE24";
shapes = (
{
closed = 1;
nodes = (
(310,669,o),
(332,666,o),
(358,656,c),
(375,744,l),
(351,752,o),
(322,757,o),
(291,757,cs),
(173,757,o),
(126,686,o),
(126,562,cs),
(126,480,l),
(30,474,l),
(30,400,l),
(126,391,l),
(126,0,l),
(216,0,l),
(216,390,l),
(334,390,l),
(334,480,l),
(216,480,l),
(216,558,ls),
(216,630,o),
(232,669,o),
(293,669,cs)
);
}
);
width = 360;
},
{
anchors = (
{
name = bottom;
pos = (187,0);
},
{
name = top;
pos = (311,800);
}
);
associatedMasterId = "3E7589AA-8194-470F-8E2F-13C1C581BE24";
background = {
shapes = (
{
closed = 1;
nodes = (
(48,480,l),
(39,392,l),
(375,392,l),
(384,480,l)
);
}
);
};
layerId = "60927752-649B-4EEA-9038-BF7A5C2F5152";
name = "Nov 17 16, 14:07";
shapes = (
{
closed = 1;
nodes = (
(231,670,o),
(247,719,o),
(310,719,cs),
(325,719,o),
(347,716,o),
(373,704,c),
(390,788,l),
(366,801,o),
(337,807,o),
(306,807,cs),
(188,807,o),
(141,726,o),
(141,602,cs),
(141,0,l),
(231,0,l),
(231,598,ls)
);
},
{
closed = 1;
nodes = (
(48,480,l),
(40,402,l),
(174,392,l),
(349,392,l),
(349,480,l)
);
}
);
width = 362;
},
{
anchors = (
{
name = bottom;
pos = (150,0);
},
{
name = top;
pos = (263,803);
}
);
associatedMasterId = "FA91A8E1-7324-47F6-AE85-AED49CFCD01C";
background = {
shapes = (
{
closed = 1;
nodes = (
(44,470,l),
(42,453,l),
(331,453,l),
(333,470,l)
);
}
);
};
hints = (
{
horizontal = 1;
options = 4;
place = (0, 0);
type = TTSnap;
},
{
horizontal = 1;
options = 4;
place = (803, -16);
stem = 1;
type = TTStem;
},
{
horizontal = 1;
options = 4;
place = (470, -17);
stem = 1;
type = TTStem;
}
);
layerId = "1801AF8D-52FE-452F-95FB-B8EFCDF6A606";
name = "Nov 17 16, 14:10";
shapes = (
{
closed = 1;
nodes = (
(158,724,o),
(176,787,o),
(264,787,cs),
(293,787,o),
(320,779,o),
(341,763,c),
(347,777,l),
(325,793,o),
(301,803,o),
(263,803,cs),
(167,803,o),
(141,733,o),
(141,642,cs),
(141,0,l),
(158,0,l),
(158,641,ls)
);
},
{
closed = 1;
nodes = (
(44,470,l),
(42,455,l),
(148,453,l),
(300,453,l),
(300,470,l)
);
}
);
width = 317;
},
{
anchors = (
{
name = bottom;
pos = (193,0);
},
{
name = top;
pos = (308,800);
}
);
associatedMasterId = "BFFFD157-90D3-4B85-B99D-9A2F366F03CA";
background = {
shapes = (
{
closed = 1;
nodes = (
(20,490,l),
(8,295,l),
(413,295,l),
(425,490,l)
);
}
);
};
layerId = "59654F30-7A97-4B3B-9CF2-D743DE925878";
name = "Nov 17 16, 14:10";
shapes = (
{
closed = 1;
nodes = (
(298,602,o),
(312,625,o),
(343,625,cs),
(355,625,o),
(373,622,o),
(387,616,c),
(406,793,l),
(371,807,o),
(332,814,o),
(294,814,cs),
(155,814,o),
(78,733,o),
(78,560,cs),
(78,0,l),
(298,0,l),
(298,571,ls)
);
},
{
closed = 1;
nodes = (
(21,490,l),
(11,325,l),
(174,305,l),
(389,305,l),
(389,490,l)
);
}
);
width = 398;
},
{
anchors = (
{
name = bottom;
pos = (135,0);
},
{
name = top;
pos = (230,750);
}
);
background = {
shapes = (
{
closed = 1;
nodes = (
(166,1,o),
(138,35,o),
(138,106,cs),
(138,461,l),
(290,461,l),
(290,468,l),
(138,468,l),
(138,630,l),
(132,630,l),
(131,468,l),
(30,467,l),
(30,462,l),
(131,461,l),
(131,106,ls),
(131,29,o),
(162,-6,o),
(224,-6,cs),
(246,-6,o),
(273,-3,o),
(295,9,c),
(294,16,l),
(271,4,o),
(243,1,o),
(224,1,cs)
);
}
);
};
layerId = "FA91A8E1-7324-47F6-AE85-AED49CFCD01C";
shapes = (
{
closed = 1;
nodes = (
(291,750,o),
(322,742,o),
(349,729,c),
(351,735,l),
(322,749,o),
(293,757,o),
(258,757,cs),
(167,757,o),
(131,701,o),
(131,614,cs),
(131,468,l),
(32,467,l),
(32,462,l),
(131,461,l),
(131,0,l),
(138,0,l),
(138,461,l),
(301,461,l),
(301,468,l),
(138,468,l),
(138,613,ls),
(138,698,o),
(171,750,o),
(258,750,cs)
);
}
);
width = 339;
}
);
metricLeft = t;
unicode = 102;
}
{
glyphname = h;
kernLeft = h;
kernRight = m;
layers = (
{
anchors = (
{
name = bottom;
pos = (290,0);
},
{
name = center;
pos = (282,245);
},
{
name = stroke;
pos = (177,637);
},
{
name = top;
pos = (138,750);
}
);
background = {
shapes = (
{
closed = 1;
nodes = (
(252,0,l),
(252,242,ls),
(252,281,o),
(266,298,o),
(294,298,cs),
(320,298,o),
(328,283,o),
(328,252,cs),
(328,0,l),
(548,0,l),
(548,317,ls),
(548,453,o),
(484,501,o),
(373,501,cs),
(278,501,o),
(227,466,o),
(200,426,c),
(190,426,l),
(167,490,l),
(32,490,l),
(32,0,l)
);
}
);
};
layerId = "BFFFD157-90D3-4B85-B99D-9A2F366F03CA";
shapes = (
{
closed = 1;
nodes = (
(252,0,l),
(252,244,ls),
(252,276,o),
(264,298,o),
(295,298,cs),
(318,298,o),
(328,286,o),
(328,254,cs),
(328,0,l),
(548,0,l),
(548,317,ls),
(548,465,o),
(487,500,o),
(401,500,cs),
(330,500,o),
(287,474,o),
(263,437,c),
(252,437,l),
(252,750,l),
(32,750,l),
(32,0,l)
);
}
);
width = 578;
},
{
anchors = (
{
name = bottom;
pos = (274,0);
},
{
name = center;
pos = (274,240);
},
{
name = stroke;
pos = (178,637);
},
{
name = top;
pos = (121,750);
}
);
background = {
shapes = (
{
closed = 1;
nodes = (
(165,0,l),
(165,294,ls),
(165,365,o),
(206,402,o),
(279,402,cs),
(352,402,o),
(378,365,o),
(378,294,cs),
(378,0,l),
(468,0,l),
(468,314,ls),
(468,405,o),
(436,490,o),
(298,490,cs),
(210,490,o),
(168,452,o),
(153,409,c),
(145,409,l),
(137,480,l),
(75,480,l),
(75,0,l)
);
}
);
};
hints = (
{
horizontal = 1;
origin = (0,18);
type = TTSnap;
},
{
horizontal = 1;
origin = (0,0);
type = TTSnap;
},
{
horizontal = 1;
origin = (0,8);
type = TTSnap;
},
{
horizontal = 1;
options = 4;
origin = (0,13);
stem = 1;
target = (0,4);
type = TTStem;
}
);
layerId = "3E7589AA-8194-470F-8E2F-13C1C581BE24";
shapes = (
{
closed = 1;
nodes = (
(165,0,l),
(165,259,ls),
(165,350,o),
(204,397,o),
(282,397,cs),
(349,397,o),
(378,363,o),
(378,292,cs),
(378,0,l),
(468,0,l),
(468,316,ls),
(468,439,o),
(407,490,o),
(309,490,cs),
(248,490,o),
(201,470,o),
(173,437,c),
(165,437,l),
(165,750,l),
(75,750,l),
(75,0,l)
);
}
);
width = 538;
},
{
anchors = (
{
name = bottom;
pos = (264,0);
},
{
name = center;
pos = (264,234);
},
{
name = stroke;
pos = (172,637);
},
{
name = top;
pos = (100,750);
}
);
background = {
shapes = (
{
closed = 1;
nodes = (
(105,0,l),
(105,282,ls),
(105,414,o),
(182,468,o),
(278,468,cs),
(370,468,o),
(424,420,o),
(424,303,cs),
(424,0,l),
(431,0,l),
(431,304,ls),
(431,423,o),
(375,475,o),
(279,475,cs),
(178,475,o),
(116,417,o),
(105,338,c),
(104,338,l),
(104,468,l),
(98,468,l),
(98,0,l)
);
}
);
};
layerId = "FA91A8E1-7324-47F6-AE85-AED49CFCD01C";
shapes = (
{
closed = 1;
nodes = (
(105,0,l),
(105,286,ls),
(105,411,o),
(180,468,o),
(278,468,cs),
(371,468,o),
(424,420,o),
(424,304,cs),
(424,0,l),
(431,0,l),
(431,305,ls),
(431,424,o),
(375,475,o),
(279,475,cs),
(177,475,o),
(117,417,o),
(106,341,c),
(105,341,l),
(105,750,l),
(98,750,l),
(98,0,l)
);
}
);
width = 525;
}
);
metricLeft = m;
metricRight = m;
unicode = 104;
}
{
glyphname = k;
kernLeft = h;
kernRight = k;
layers = (
{
anchors = (
{
name = bottom;
pos = (280,0);
},
{
name = top;
pos = (137,750);
}
);
background = {
shapes = (
{
closed = 1;
nodes = (
(252,800,l),
(32,800,l),
(32,0,l),
(252,0,l)
);
},
{
closed = 1;
nodes = (
(557,11,l),
(535,71,o),
(514,124,o),
(488,182,cs),
(464,235,o),
(435,287,o),
(378,316,c),
(366,177,l),
(427,222,o),
(455,264,o),
(477,315,cs),
(501,371,o),
(522,424,o),
(541,480,c),
(538,490,l),
(315,490,l),
(309,446,o),
(302,408,o),
(292,359,cs),
(285,323,o),
(280,317,o),
(266,317,cs),
(216,317,l),
(211,121,l),
(264,121,ls),
(278,121,o),
(284,117,o),
(292,95,cs),
(305,58,o),
(313,33,o),
(322,0,c),
(555,0,l)
);
}
);
};
layerId = "BFFFD157-90D3-4B85-B99D-9A2F366F03CA";
shapes = (
{
closed = 1;
nodes = (
(252,750,l),
(32,750,l),
(32,0,l),
(252,0,l)
);
},
{
closed = 1;
nodes = (
(571,0,l),
(459,253,l),
(554,490,l),
(325,490,l),
(268,307,l),
(229,307,l),
(234,11,l),
(274,124,l),
(285,124,l),
(332,0,l)
);
}
);
width = 571;
},
{
anchors = (
{
name = bottom;
pos = (280,0);
},
{
name = top;
pos = (137,800);
}
);
associatedMasterId = "BFFFD157-90D3-4B85-B99D-9A2F366F03CA";
background = {
shapes = (
{
closed = 1;
nodes = (
(252,0,l),
(252,240,ls),
(252,272,o),
(266,283,o),
(286,283,cs),
(297,283,o),
(306,280,o),
(312,276,c),
(312,0,l),
(532,0,l),
(532,446,l),
(492,477,o),
(440,500,o),
(379,500,cs),
(304,500,o),
(275,465,o),
(263,427,c),
(252,427,l),
(252,800,l),
(32,800,l),
(32,0,l)
);
}
);
};
layerId = "E7CBC5A8-A74A-496E-928E-EBEE9345917D";
name = "Nov 17 16, 14:21";
shapes = (
{
closed = 1;
nodes = (
(252,800,l),
(32,800,l),
(32,0,l),
(252,0,l)
);
},
{
closed = 1;
nodes = (
(558,15,l),
(457,249,l),
(546,477,l),
(542,490,l),
(323,490,l),
(269,307,l),
(236,307,l),
(236,136,l),
(269,136,l),
(321,0,l),
(555,0,l)
);
}
);
width = 558;
},
{
anchors = (
{
name = bottom;
pos = (280,0);
},
{
name = top;
pos = (137,800);
}
);
associatedMasterId = "BFFFD157-90D3-4B85-B99D-9A2F366F03CA";
background = {
shapes = (
{
closed = 1;
nodes = (
(252,0,l),
(252,240,ls),
(252,272,o),
(266,283,o),
(286,283,cs),
(297,283,o),
(306,280,o),
(312,276,c),
(312,0,l),
(532,0,l),
(532,446,l),
(492,477,o),
(440,500,o),
(379,500,cs),
(304,500,o),
(275,465,o),
(263,427,c),
(252,427,l),
(252,800,l),
(32,800,l),
(32,0,l)
);
}
);
};
layerId = "81064E0A-DF39-4874-89FE-6008FE73F3ED";
name = "Nov 17 16, 14:40";
shapes = (
{
closed = 1;
nodes = (
(252,800,l),
(32,800,l),
(32,0,l),
(252,0,l)
);
},
{
closed = 1;
nodes = (
(558,15,l),
(537,67,o),
(515,118,o),
(491,170,cs),
(470,216,o),
(447,265,o),
(394,306,c),
(390,188,l),
(453,240,o),
(472,293,o),
(495,345,cs),
(514,388,o),
(530,433,o),
(546,477,c),
(542,490,l),
(323,490,l),
(311,451,o),
(301,412,o),
(290,373,cs),
(274,317,o),
(271,307,o),
(257,307,cs),
(251,307,o),
(244,307,o),
(236,307,c),
(236,136,l),
(243,136,o),
(250,136,o),
(256,136,cs),
(269,136,o),
(274,131,o),
(285,102,cs),
(298,68,o),
(310,33,o),
(321,0,c),
(555,0,l)
);
}
);
width = 558;
},
{
anchors = (
{
name = bottom;
pos = (248,0);
},
{
name = top;
pos = (121,800);
}
);
associatedMasterId = "3E7589AA-8194-470F-8E2F-13C1C581BE24";
background = {
shapes = (
{
closed = 1;
nodes = (
(165,800,l),
(75,800,l),
(75,0,l),
(165,0,l)
);
},
{
closed = 1;
nodes = (
(260,244,l),
(432,480,l),
(328,480,l),
(181,267,l),
(146,267,l),
(146,196,l),
(181,196,l),
(345,-6,l),
(458,3,l)
);
}
);
};
layerId = "36A0FF1F-3641-4449-87C5-021FF319B736";
name = "Nov 25 16, 07:39";
shapes = (
{
closed = 1;
nodes = (
(165,800,l),
(75,800,l),
(75,0,l),
(165,0,l)
);
},
{
closed = 1;
nodes = (
(446,15,l),
(269,243,l),
(422,467,l),
(418,480,l),
(328,480,l),
(198,279,l),
(161,279,l),
(161,196,l),
(198,196,l),
(344,0,l),
(443,0,l)
);
}
);
width = 461;
},
{
anchors = (
{
name = bottom;
pos = (248,0);
},
{
name = top;
pos = (121,800);
}
);
associatedMasterId = "3E7589AA-8194-470F-8E2F-13C1C581BE24";
background = {
shapes = (
{
closed = 1;
nodes = (
(446,15,l),
(409,72,o),
(369,130,o),
(328,187,cs),
(309,214,o),
(289,238,o),
(251,266,c),
(268,234,l),
(422,467,l),
(418,480,l),
(321,480,l),
(205,279,l),
(157,279,l),
(159,193,l),
(186,193,ls),
(213,193,o),
(226,179,o),
(247,149,cs),
(283,97,o),
(314,48,o),
(344,0,c),
(443,0,l)
);
}
);
};
layerId = "DE943D1A-2D67-4625-BBBE-2EB4A142E883";
name = "Regular Nov 25 16, 14:49";
shapes = (
{
closed = 1;
nodes = (
(165,800,l),
(75,800,l),
(75,0,l),
(165,0,l)
);
},
{
closed = 1;
nodes = (
(448,11,l),
(414,67,o),
(377,132,o),
(345,180,cs),
(318,220,o),
(286,251,o),
(252,268,c),
(264,226,l),
(292,245,o),
(316,269,o),
(339,310,cs),
(368,361,o),
(395,411,o),
(422,467,c),
(418,480,l),
(319,480,l),
(298,425,o),
(275,371,o),
(254,327,cs),
(238,293,o),
(228,286,o),
(205,286,cs),
(127,286,l),
(127,194,l),
(195,194,ls),
(225,194,o),
(234,191,o),
(252,162,cs),
(284,112,o),
(317,52,o),
(345,0,c),
(445,0,l)
);
}
);
width = 453;
},
{
anchors = (
{
name = bottom;
pos = (248,0);
},
{
name = top;
pos = (121,750);
}
);
background = {
shapes = (
{
closed = 1;
nodes = (
(165,800,l),
(75,800,l),
(75,0,l),
(165,0,l)
);
},
{
closed = 1;
nodes = (
(446,15,l),
(269,243,l),
(422,467,l),
(418,480,l),
(328,480,l),
(198,279,l),
(161,279,l),
(161,196,l),
(198,196,l),
(344,0,l),
(443,0,l)
);
}
);
};
hints = (
{
horizontal = 1;
origin = (0,1);
type = TTSnap;
},
{
horizontal = 1;
origin = (1,3);
type = TTSnap;
},
{
horizontal = 1;
origin = (1,9);
type = TTSnap;
},
{
horizontal = 1;
origin = (0,2);
type = TTSnap;
}
);
layerId = "3E7589AA-8194-470F-8E2F-13C1C581BE24";
shapes = (
{
closed = 1;
nodes = (
(165,750,l),
(75,750,l),
(75,0,l),
(165,0,l)
);
},
{
closed = 1;
nodes = (
(476,0,l),
(274,243,l),
(446,480,l),
(341,480,l),
(178,247,l),
(147,247,l),
(147,99,l),
(203,175,l),
(213,175,l),
(355,0,l)
);
}
);
width = 488;
},
{
anchors = (
{
name = bottom;
pos = (227,0);
},
{
name = top;
pos = (110,750);
}
);
layerId = "FA91A8E1-7324-47F6-AE85-AED49CFCD01C";
shapes = (
{
closed = 1;
nodes = (
(105,750,l),
(98,750,l),
(98,0,l),
(105,0,l)
);
},
{
closed = 1;
nodes = (
(415,0,l),
(192,243,l),
(409,468,l),
(399,468,l),
(107,164,l),
(102,164,l),
(103,150,l),
(187,238,l),
(188,238,l),
(406,0,l)
);
}
);
width = 462;
},
{
anchors = (
{
name = bottom;
pos = (227,0);
},
{
name = top;
pos = (110,750);
}
);
associatedMasterId = "FA91A8E1-7324-47F6-AE85-AED49CFCD01C";
layerId = "9D459087-A85E-4C5E-BA0B-86BD60A99FAF";
name = "Dec 2 16, 14:08";
shapes = (
{
closed = 1;
nodes = (
(105,750,l),
(98,750,l),
(98,0,l),
(105,0,l)
);
},
{
closed = 1;
nodes = (
(385,0,l),
(184,272,l),
(379,468,l),
(370,468,l),
(107,204,l),
(102,204,l),
(103,191,l),
(179,267,l),
(180,267,l),
(376,0,l)
);
}
);
width = 412;
}
);
metricLeft = h;
unicode = 107;
}
{
glyphname = m;
kernLeft = m;
kernRight = m;
layers = (
{
anchors = (
{
name = bottom;
pos = (423,0);
},
{
name = top;
pos = (470,490);
}
);
background = {
shapes = (
{
closed = 1;
nodes = (
(563,0,l),
(563,242,ls),
(563,277,o),
(574,298,o),
(605,298,cs),
(628,298,o),
(639,287,o),
(639,255,cs),
(639,0,l),
(859,0,l),
(859,242,ls),
(859,278,o),
(870,298,o),
(901,298,cs),
(924,298,o),
(935,287,o),
(935,254,cs),
(935,0,l),
(1155,0,l),
(1155,317,ls),
(1155,453,o),
(1090,501,o),
(991,500,cs),
(883,499,o),
(826,441,o),
(802,362,c),
(828,369,l),
(814,447,o),
(771,502,o),
(667,502,cs),
(570,502,o),
(527,452,o),
(511,426,c),
(501,426,l),
(478,490,l),
(343,490,l),
(343,0,l)
);
}
);
};
layerId = "BFFFD157-90D3-4B85-B99D-9A2F366F03CA";
shapes = (
{
closed = 1;
nodes = (
(252,0,l),
(252,242,ls),
(252,277,o),
(263,298,o),
(294,298,cs),
(317,298,o),
(328,287,o),
(328,255,cs),
(328,0,l),
(548,0,l),
(548,242,ls),
(548,278,o),
(559,298,o),
(590,298,cs),
(613,298,o),
(624,287,o),
(624,254,cs),
(624,0,l),
(844,0,l),
(844,317,ls),
(844,453,o),
(776,501,o),
(672,500,cs),
(569,499,o),
(513,453,o),
(479,374,c),
(518,371,l),
(504,449,o),
(460,502,o),
(356,502,cs),
(259,502,o),
(216,452,o),
(200,426,c),
(190,426,l),
(167,490,l),
(32,490,l),
(32,0,l)
);
}
);
width = 874;
},
{
anchors = (
{
name = bottom;
pos = (407,0);
},
{
name = top;
pos = (407,480);
}
);
background = {
shapes = (
{
closed = 1;
nodes = (
(454,0,l),
(454,259,ls),
(454,369,o),
(504,397,o),
(562,397,cs),
(619,397,o),
(652,371,o),
(652,291,cs),
(652,0,l),
(742,0,l),
(742,259,ls),
(742,362,o),
(784,397,o),
(852,397,cs),
(919,397,o),
(940,363,o),
(940,287,cs),
(940,0,l),
(1030,0,l),
(1030,312,ls),
(1030,432,o),
(980,490,o),
(874,490,cs),
(784,490,o),
(733,448,o),
(707,385,c),
(722,404,l),
(694,461,o),
(653,490,o),
(583,490,cs),
(502,490,o),
(460,451,o),
(442,419,c),
(434,419,l),
(426,480,l),
(364,480,l),
(364,0,l)
);
}
);
};
hints = (
{
horizontal = 1;
origin = (0,36);
type = TTSnap;
},
{
horizontal = 1;
origin = (0,8);
type = TTSnap;
},
{
horizontal = 1;
origin = (0,17);
type = TTSnap;
},
{
horizontal = 1;
origin = (0,35);
type = TTSnap;
},
{
horizontal = 1;
options = 4;
origin = (0,29);
stem = 1;
target = (0,4);
type = TTStem;
},
{
horizontal = 1;
options = 4;
origin = (0,22);
stem = 1;
target = (0,13);
type = TTStem;
}
);
layerId = "3E7589AA-8194-470F-8E2F-13C1C581BE24";
shapes = (
{
closed = 1;
nodes = (
(165,0,l),
(165,259,ls),
(165,369,o),
(215,397,o),
(273,397,cs),
(330,397,o),
(363,371,o),
(363,291,cs),
(363,0,l),
(453,0,l),
(453,259,ls),
(453,362,o),
(495,397,o),
(563,397,cs),
(630,397,o),
(651,363,o),
(651,287,cs),
(651,0,l),
(741,0,l),
(741,312,ls),
(741,432,o),
(691,490,o),
(585,490,cs),
(495,490,o),
(442,449,o),
(416,386,c),
(433,404,l),
(405,461,o),
(364,490,o),
(294,490,cs),
(213,490,o),
(171,451,o),
(153,419,c),
(145,419,l),
(137,480,l),
(75,480,l),
(75,0,l)
);
}
);
width = 811;
},
{
anchors = (
{
name = bottom;
pos = (389,0);
},
{
name = top;
pos = (389,468);
}
);
background = {
shapes = (
{
closed = 1;
nodes = (
(105,0,l),
(105,282,ls),
(105,414,o),
(169,468,o),
(266,468,cs),
(358,468,o),
(404,420,o),
(404,303,cs),
(404,0,l),
(411,0,l),
(411,304,ls),
(411,423,o),
(363,475,o),
(267,475,cs),
(165,475,o),
(116,417,o),
(105,343,c),
(104,343,l),
(104,468,l),
(98,468,l),
(98,0,l)
);
}
);
};
layerId = "FA91A8E1-7324-47F6-AE85-AED49CFCD01C";
shapes = (
{
closed = 1;
nodes = (
(105,0,l),
(105,304,ls),
(105,404,o),
(163,468,o),
(261,468,cs),
(362,468,o),
(392,406,o),
(392,309,cs),
(392,0,l),
(399,0,l),
(399,307,ls),
(399,413,o),
(465,468,o),
(556,468,cs),
(667,468,o),
(687,389,o),
(687,311,cs),
(687,0,l),
(694,0,l),
(694,311,ls),
(694,394,o),
(671,475,o),
(557,475,cs),
(461,475,o),
(405,417,o),
(397,346,c),
(396,346,l),
(390,411,o),
(366,475,o),
(262,475,cs),
(161,475,o),
(119,415,o),
(105,358,c),
(104,358,l),
(104,468,l),
(98,468,l),
(98,0,l)
);
}
);
width = 788;
}
);
unicode = 109;
}
{
glyphname = o;
kernLeft = o;
kernRight = o;
layers = (
{
anchors = (
{
name = "#exit";
pos = (434,410);
},
{
name = bottom;
pos = (269,0);
},
{
name = center;
pos = (268,244);
},
{
name = ogonek;
pos = (364,0);
},
{
name = top;
pos = (273,490);
},
{
name = topright;
pos = (528,490);
}
);
background = {
shapes = (
{
closed = 1;
nodes = (
(546,800,l),
(325,800,l),
(325,222,ls),
(325,187,o),
(314,162,o),
(282,162,cs),
(249,162,o),
(230,187,o),
(230,238,cs),
(230,289,o),
(249,315,o),
(287,315,cs),
(305,315,o),
(322,309,o),
(333,295,c),
(365,457,l),
(334,485,o),
(292,503,o),
(232,503,cs),
(90,503,o),
(17,403,o),
(17,242,cs),
(17,86,o),
(83,-8,o),
(230,-8,cs),
(306,-8,o),
(343,17,o),
(365,54,c),
(375,54,l),
(393,0,l),
(546,0,l)
);
}
);
};
layerId = "BFFFD157-90D3-4B85-B99D-9A2F366F03CA";
shapes = (
{
closed = 1;
nodes = (
(431,-14,o),
(520,77,o),
(520,248,cs),
(520,412,o),
(438,505,o),
(274,505,cs),
(109,505,o),
(17,410,o),
(17,239,cs),
(17,75,o),
(101,-14,o),
(264,-14,cs)
);
},
{
closed = 1;
nodes = (
(235,164,o),
(218,189,o),
(218,243,cs),
(218,293,o),
(234,316,o),
(268,316,cs),
(302,316,o),
(319,292,o),
(319,238,cs),
(319,188,o),
(303,164,o),
(270,164,cs)
);
}
);
width = 537;
},
{
anchors = (
{
name = "#exit";
pos = (416,410);
},
{
name = bottom;
pos = (264,0);
},
{
name = center;
pos = (262,240);
},
{
name = ogonek;
pos = (341,0);
},
{
name = top;
pos = (264,480);
},
{
name = topright;
pos = (510,480);
}
);
background = {
shapes = (
{
closed = 1;
nodes = (
(403,-12,o),
(476,79,o),
(476,244,cs),
(476,405,o),
(407,492,o),
(267,492,cs),
(126,492,o),
(52,404,o),
(52,239,cs),
(52,79,o),
(122,-12,o),
(263,-12,cs)
);
},
{
closed = 1;
nodes = (
(183,72,o),
(140,123,o),
(140,243,cs),
(140,357,o),
(180,403,o),
(265,403,cs),
(347,403,o),
(388,360,o),
(388,238,cs),
(388,119,o),
(350,72,o),
(267,72,cs)
);
}
);
};
hints = (
{
horizontal = 1;
options = 4;
origin = (0,11);
stem = 1;
target = (1,11);
type = TTStem;
},
{
horizontal = 1;
options = 4;
origin = (0,5);
stem = 1;
target = (1,5);
type = TTStem;
}
);
layerId = "3E7589AA-8194-470F-8E2F-13C1C581BE24";
shapes = (
{
closed = 1;
nodes = (
(403,-12,o),
(476,79,o),
(476,244,cs),
(476,405,o),
(407,492,o),
(267,492,cs),
(126,492,o),
(52,404,o),
(52,239,cs),
(52,79,o),
(122,-12,o),
(263,-12,cs)
);
},
{
closed = 1;
nodes = (
(183,72,o),
(140,123,o),
(140,243,cs),
(140,357,o),
(180,403,o),
(265,403,cs),
(347,403,o),
(388,360,o),
(388,238,cs),
(388,119,o),
(350,72,o),
(267,72,cs)
);
}
);
width = 528;
},
{
anchors = (
{
name = "#exit";
pos = (415,410);
},
{
name = bottom;
pos = (269,0);
},
{
name = center;
pos = (272,234);
},
{
name = ogonek;
pos = (327,0);
},
{
name = top;
pos = (268,468);
},
{
name = topright;
pos = (492,468);
}
);
layerId = "FA91A8E1-7324-47F6-AE85-AED49CFCD01C";
shapes = (
{
closed = 1;
nodes = (
(389,-7,o),
(459,68,o),
(459,232,cs),
(459,399,o),
(388,475,o),
(268,475,cs),
(150,475,o),
(74,404,o),
(74,235,cs),
(74,70,o),
(145,-7,o),
(268,-7,cs)
);
},
{
closed = 1;
nodes = (
(149,0,o),
(81,73,o),
(81,236,cs),
(81,400,o),
(154,468,o),
(268,468,cs),
(384,468,o),
(452,396,o),
(452,232,cs),
(452,71,o),
(384,0,o),
(268,0,cs)
);
}
);
width = 533;
}
);
unicode = 111;
}
{
glyphname = q;
kernLeft = o;
kernRight = q;
layers = (
{
anchors = (
{
name = bottom;
pos = (197,0);
},
{
name = top;
pos = (225,490);
}
);
background = {
shapes = (
{
closed = 1;
nodes = (
(431,-14,o),
(520,77,o),
(520,248,cs),
(520,412,o),
(438,505,o),
(274,505,cs),
(109,505,o),
(17,410,o),
(17,239,cs),
(17,75,o),
(101,-14,o),
(264,-14,cs)
);
},
{
closed = 1;
nodes = (
(235,159,o),
(218,184,o),
(218,238,cs),
(218,288,o),
(234,311,o),
(268,311,cs),
(302,311,o),
(319,287,o),
(319,233,cs),
(319,183,o),
(303,159,o),
(270,159,cs)
);
}
);
};
layerId = "BFFFD157-90D3-4B85-B99D-9A2F366F03CA";
shapes = (
{
closed = 1;
nodes = (
(464,491,o),
(390,503,o),
(315,503,cs),
(91,503,o),
(17,402,o),
(17,227,cs),
(17,75,o),
(75,-10,o),
(199,-10,cs),
(253,-10,o),
(288,6,o),
(310,23,c),
(321,23,l),
(321,-180,l),
(541,-180,l),
(541,465,l)
);
},
{
closed = 1;
nodes = (
(239,159,o),
(225,185,o),
(225,232,cs),
(225,282,o),
(242,311,o),
(284,311,cs),
(303,311,o),
(322,306,o),
(339,298,c),
(320,391,l),
(320,238,ls),
(320,184,o),
(304,159,o),
(271,159,cs)
);
}
);
width = 571;
},
{
anchors = (
{
name = bottom;
pos = (244,0);
},
{
name = top;
pos = (259,480);
}
);
background = {
shapes = (
{
closed = 1;
nodes = (
(407,-12,o),
(480,79,o),
(480,244,cs),
(480,405,o),
(411,492,o),
(271,492,cs),
(130,492,o),
(56,404,o),
(56,239,cs),
(56,79,o),
(126,-12,o),
(267,-12,cs)
);
},
{
closed = 1;
nodes = (
(187,72,o),
(144,123,o),
(144,243,cs),
(144,357,o),
(184,403,o),
(269,403,cs),
(351,403,o),
(392,360,o),
(392,238,cs),
(392,119,o),
(354,72,o),
(271,72,cs)
);
}
);
};
hints = (
{
horizontal = 1;
options = 4;
origin = (0,8);
stem = 1;
target = (1,13);
type = TTStem;
},
{
horizontal = 1;
options = 4;
origin = (0,2);
stem = 1;
target = (1,5);
type = TTStem;
},
{
horizontal = 1;
origin = (0,14);
type = TTSnap;
},
{
horizontal = 1;
origin = (0,15);
type = TTSnap;
}
);
layerId = "3E7589AA-8194-470F-8E2F-13C1C581BE24";
shapes = (
{
closed = 1;
nodes = (
(400,484,o),
(349,492,o),
(303,492,cs),
(129,492,o),
(56,378,o),
(56,217,cs),
(56,87,o),
(110,-10,o),
(238,-10,cs),
(294,-10,o),
(340,9,o),
(365,47,c),
(375,47,l),
(375,-190,l),
(465,-190,l),
(465,460,l)
);
},
{
closed = 1;
nodes = (
(196,79,o),
(146,116,o),
(146,226,cs),
(146,333,o),
(185,402,o),
(290,402,cs),
(324,402,o),
(364,395,o),
(396,378,c),
(375,424,l),
(375,236,ls),
(375,123,o),
(333,79,o),
(261,79,cs)
);
}
);
width = 535;
},
{
anchors = (
{
name = bottom;
pos = (259,0);
},
{
name = top;
pos = (278,468);
}
);
background = {
shapes = (
{
closed = 1;
nodes = (
(421,750,l),
(414,750,l),
(414,176,ls),
(414,59,o),
(356,0,o),
(252,0,cs),
(137,0,o),
(81,72,o),
(81,224,cs),
(81,377,o),
(141,468,o),
(280,468,cs),
(320,468,o),
(374,460,o),
(416,431,c),
(417,438,l),
(378,466,o),
(324,475,o),
(280,475,cs),
(137,475,o),
(74,384,o),
(74,224,cs),
(74,67,o),
(132,-7,o),
(251,-7,cs),
(342,-7,o),
(395,37,o),
(412,108,c),
(413,108,l),
(415,0,l),
(421,0,l)
);
}
);
};
layerId = "FA91A8E1-7324-47F6-AE85-AED49CFCD01C";
shapes = (
{
closed = 1;
nodes = (
(377,463,o),
(329,475,o),
(280,475,cs),
(139,475,o),
(74,391,o),
(74,224,cs),
(74,66,o),
(130,-7,o),
(255,-7,cs),
(344,-7,o),
(395,32,o),
(411,107,c),
(414,107,l),
(414,-200,l),
(421,-200,l),
(421,442,l)
);
},
{
closed = 1;
nodes = (
(137,0,o),
(81,72,o),
(81,223,cs),
(81,384,o),
(142,468,o),
(280,468,cs),
(326,468,o),
(375,456,o),
(416,436,c),
(414,440,l),
(414,190,ls),
(414,53,o),
(357,0,o),
(256,0,cs)
);
}
);
width = 515;
}
);
metricLeft = o;
metricRight = m;
unicode = 113;
}
{
glyphname = r;
kernLeft = m;
kernRight = r;
layers = (
{
anchors = (
{
name = bottom;
pos = (148,0);
},
{
name = top;
pos = (203,490);
}
);
background = {
shapes = (
{
closed = 1;
nodes = (
(374,490,l),
(353,498,o),
(334,500,o),
(317,500,cs),
(243,500,o),
(214,461,o),
(200,417,c),
(190,417,l),
(167,490,l),
(32,490,l),
(32,0,l),
(252,0,l),
(252,207,ls),
(252,268,o),
(288,285,o),
(327,285,cs),
(336,285,o),
(347,284,o),
(356,281,c)
);
}
);
};
layerId = "BFFFD157-90D3-4B85-B99D-9A2F366F03CA";
shapes = (
{
closed = 1;
nodes = (
(374,490,l),
(353,498,o),
(334,500,o),
(317,500,cs),
(243,500,o),
(214,461,o),
(200,417,c),
(190,417,l),
(167,490,l),
(32,490,l),
(32,0,l),
(252,0,l),
(252,207,ls),
(252,268,o),
(288,285,o),
(327,285,cs),
(336,285,o),
(347,284,o),
(356,281,c)
);
}
);
width = 380;
},
{
anchors = (
{
name = bottom;
pos = (120,0);
},
{
name = top;
pos = (201,480);
}
);
background = {
shapes = (
{
closed = 1;
nodes = (
(165,0,l),
(165,270,ls),
(165,362,o),
(207,402,o),
(275,402,cs),
(313,402,o),
(343,390,o),
(363,370,c),
(363,0,l),
(453,0,l),
(453,423,l),
(421,454,o),
(372,490,o),
(286,490,cs),
(197,490,o),
(168,452,o),
(153,409,c),
(144,409,l),
(137,480,l),
(75,480,l),
(75,0,l)
);
}
);
};
hints = (
{
horizontal = 1;
origin = (0,9);
type = TTSnap;
},
{
horizontal = 1;
origin = (0,10);
type = TTSnap;
},
{
horizontal = 1;
options = 4;
origin = (0,3);
stem = 1;
target = (0,15);
type = TTStem;
}
);
layerId = "3E7589AA-8194-470F-8E2F-13C1C581BE24";
shapes = (
{
closed = 1;
nodes = (
(320,480,l),
(303,485,o),
(287,487,o),
(269,487,cs),
(186,487,o),
(165,443,o),
(153,405,c),
(145,405,l),
(137,480,l),
(75,480,l),
(75,0,l),
(165,0,l),
(165,234,ls),
(165,338,o),
(190,393,o),
(271,393,cs),
(282,393,o),
(296,392,o),
(311,388,c)
);
}
);
width = 347;
},
{
anchors = (
{
name = bottom;
pos = (100,0);
},
{
name = top;
pos = (214,468);
}
);
layerId = "FA91A8E1-7324-47F6-AE85-AED49CFCD01C";
shapes = (
{
closed = 1;
nodes = (
(296,464,l),
(276,472,o),
(256,475,o),
(236,475,cs),
(155,475,o),
(117,417,o),
(105,342,c),
(104,342,l),
(103,468,l),
(98,468,l),
(98,0,l),
(105,0,l),
(105,268,ls),
(105,391,o),
(145,468,o),
(236,468,cs),
(254,468,o),
(275,465,o),
(295,457,c)
);
}
);
width = 329;
}
);
metricLeft = m;
unicode = 114;
}
{
glyphname = v;
kernLeft = v;
kernRight = v;
layers = (
{
anchors = (
{
name = bottom;
pos = (286,0);
},
{
name = top;
pos = (286,490);
}
);
background = {
shapes = (
{
closed = 1;
nodes = (
(599,189,l),
(589,189,l),
(528,480,l),
(329,480,l),
(279,189,l),
(269,189,l),
(238,490,l),
(6,490,l),
(109,0,l),
(380,0,l),
(419,192,l),
(426,192,l),
(469,0,l),
(740,0,l),
(845,490,l),
(619,490,l)
);
}
);
};
layerId = "BFFFD157-90D3-4B85-B99D-9A2F366F03CA";
shapes = (
{
closed = 1;
nodes = (
(438,0,l),
(565,490,l),
(339,490,l),
(298,179,l),
(286,179,l),
(238,490,l),
(6,490,l),
(127,0,l)
);
}
);
width = 571;
},
{
anchors = (
{
name = bottom;
pos = (260,0);
},
{
name = top;
pos = (260,480);
}
);
background = {
shapes = (
{
closed = 1;
nodes = (
(167,0,l),
(167,270,ls),
(167,362,o),
(209,402,o),
(277,402,cs),
(315,402,o),
(345,390,o),
(365,370,c),
(365,0,l),
(455,0,l),
(455,423,l),
(423,454,o),
(374,490,o),
(288,490,cs),
(199,490,o),
(150,452,o),
(139,382,c),
(159,356,l),
(139,480,l),
(77,480,l),
(77,0,l)
);
}
);
};
hints = (
{
horizontal = 1;
origin = (0,2);
type = TTSnap;
},
{
horizontal = 1;
origin = (0,5);
type = TTSnap;
},
{
horizontal = 1;
options = 4;
origin = (0,7);
stem = 1;
target = (0,4);
type = TTStem;
}
);
layerId = "3E7589AA-8194-470F-8E2F-13C1C581BE24";
shapes = (
{
closed = 1;
nodes = (
(331,0,l),
(493,480,l),
(398,480,l),
(273,86,l),
(263,86,l),
(133,480,l),
(37,480,l),
(200,0,l)
);
}
);
width = 530;
},
{
anchors = (
{
name = bottom;
pos = (247,0);
},
{
name = top;
pos = (247,468);
}
);
layerId = "FA91A8E1-7324-47F6-AE85-AED49CFCD01C";
shapes = (
{
closed = 1;
nodes = (
(253,0,l),
(440,468,l),
(432,468,l),
(248,8,l),
(245,8,l),
(61,468,l),
(53,468,l),
(240,0,l)
);
}
);
width = 493;
}
);
unicode = 118;
}
{
glyphname = x;
kernLeft = x;
kernRight = x;
layers = (
{
anchors = (
{
name = "#exit";
pos = (494,0);
},
{
name = bottom;
pos = (260,0);
},
{
name = top;
pos = (285,490);
}
);
background = {
shapes = (
{
closed = 1;
nodes = (
(543,506,l),
(344,506,l),
(285,357,l),
(277,357,l),
(210,506,l),
(11,506,l),
(142,231,l),
(5,-50,l),
(204,-50,l),
(262,91,l),
(270,91,l),
(336,-50,l),
(543,-50,l),
(403,213,l)
);
}
);
};
layerId = "BFFFD157-90D3-4B85-B99D-9A2F366F03CA";
shapes = (
{
closed = 1;
nodes = (
(546,490,l),
(336,490,l),
(297,344,l),
(289,344,l),
(246,490,l),
(10,490,l),
(112,247,l),
(5,0,l),
(214,0,l),
(249,117,l),
(257,117,l),
(299,0,l),
(545,0,l),
(440,230,l)
);
}
);
width = 558;
},
{
anchors = (
{
name = "#exit";
pos = (442,0);
},
{
name = bottom;
pos = (259,0);
},
{
name = top;
pos = (269,480);
}
);
background = {
shapes = (
{
closed = 1;
nodes = (
(524,596,l),
(423,596,l),
(267,304,l),
(261,304,l),
(107,596,l),
(-1,596,l),
(194,247,l),
(-15,-104,l),
(91,-104,l),
(250,174,l),
(256,174,l),
(420,-104,l),
(534,-104,l),
(326,235,l)
);
}
);
};
hints = (
{
horizontal = 1;
origin = (0,1);
type = TTSnap;
},
{
horizontal = 1;
origin = (0,4);
type = TTSnap;
},
{
horizontal = 1;
origin = (0,8);
type = TTSnap;
},
{
horizontal = 1;
origin = (0,11);
type = TTSnap;
}
);
layerId = "3E7589AA-8194-470F-8E2F-13C1C581BE24";
shapes = (
{
closed = 1;
nodes = (
(458,480,l),
(363,480,l),
(270,303,l),
(264,303,l),
(169,480,l),
(65,480,l),
(198,245,l),
(53,0,l),
(153,0,l),
(250,178,l),
(256,178,l),
(362,0,l),
(470,0,l),
(322,236,l)
);
}
);
width = 523;
},
{
anchors = (
{
name = "#exit";
pos = (414,0);
},
{
name = bottom;
pos = (249,0);
},
{
name = top;
pos = (249,468);
}
);
background = {
shapes = (
{
closed = 1;
nodes = (
(465,590,l),
(455,590,l),
(251,249,l),
(250,249,l),
(34,590,l),
(25,590,l),
(244,243,l),
(12,-110,l),
(21,-110,l),
(249,236,l),
(250,236,l),
(479,-110,l),
(489,-110,l),
(255,242,l)
);
}
);
};
layerId = "FA91A8E1-7324-47F6-AE85-AED49CFCD01C";
shapes = (
{
closed = 1;
nodes = (
(404,468,l),
(396,468,l),
(249,241,l),
(248,241,l),
(97,468,l),
(88,468,l),
(243,235,l),
(79,0,l),
(87,0,l),
(248,229,l),
(249,229,l),
(410,0,l),
(419,0,l),
(254,235,l)
);
}
);
width = 498;
}
);
unicode = 120;
}
{
color = 10;
glyphname = y;
kernLeft = y;
kernRight = y;
layers = (
{
anchors = (
{
name = bottom;
pos = (374,-77);
},
{
name = top;
pos = (285,490);
},
{
name = topright;
pos = (525,490);
}
);
background = {
shapes = (
{
closed = 1;
nodes = (
(436,0,l),
(551,490,l),
(325,490,l),
(294,159,l),
(287,159,l),
(244,490,l),
(12,490,l),
(125,0,l)
);
}
);
};
layerId = "BFFFD157-90D3-4B85-B99D-9A2F366F03CA";
shapes = (
{
closed = 1;
nodes = (
(318,344,o),
(307,251,o),
(294,159,c),
(287,159,l),
(244,490,l),
(12,490,l),
(147,-99,l),
(162,36,l),
(126,13,o),
(52,-8,o),
(11,-22,c),
(64,-215,l),
(179,-179,o),
(259,-157,o),
(330,-97,cs),
(457,11,o),
(511,207,o),
(535,490,c),
(320,490,l)
);
}
);
width = 546;
},
{
anchors = (
{
name = bottom;
pos = (279,-65);
},
{
name = top;
pos = (255,480);
},
{
name = topright;
pos = (483,480);
}
);
background = {
shapes = (
{
closed = 1;
nodes = (
(343,293,o),
(309,180,o),
(263,86,c),
(255,86,l),
(133,480,l),
(37,480,l),
(196,-3,l),
(156,-52,o),
(92,-103,o),
(35,-145,c),
(85,-212,l),
(165,-159,o),
(239,-94,o),
(297,-6,cs),
(379,119,o),
(429,269,o),
(463,480,c),
(373,480,l)
);
}
);
};
hints = (
{
horizontal = 1;
origin = (0,4);
type = TTSnap;
},
{
horizontal = 1;
origin = (0,18);
type = TTSnap;
},
{
horizontal = 1;
origin = (0,11);
type = TTSnap;
}
);
layerId = "3E7589AA-8194-470F-8E2F-13C1C581BE24";
shapes = (
{
closed = 1;
nodes = (
(357,295,o),
(311,179,o),
(263,86,c),
(255,86,l),
(133,480,l),
(37,480,l),
(209,-41,l),
(207,15,l),
(160,-43,o),
(103,-87,o),
(38,-141,c),
(93,-209,l),
(157,-155,o),
(239,-94,o),
(311,15,cs),
(374,111,o),
(442,267,o),
(473,480,c),
(383,480,l)
);
}
);
width = 514;
},
{
anchors = (
{
name = bottom;
pos = (322,-75);
},
{
name = top;
pos = (270,485);
},
{
name = topright;
pos = (503,485);
}
);
associatedMasterId = "3E7589AA-8194-470F-8E2F-13C1C581BE24";
attr = {
coordinates = (
155
);
};
background = {
shapes = (
{
closed = 1;
nodes = (
(331,319,o),
(308,216,o),
(279,123,c),
(271,123,l),
(189,485,l),
(25,485,l),
(159,0,l),
(126,-30,o),
(73,-62,o),
(28,-83,c),
(75,-212,l),
(169,-176,o),
(249,-124,o),
(311,-53,cs),
(418,67,o),
(470,238,o),
(499,485,c),
(347,485,l)
);
}
);
};
layerId = "E3545DD6-F0DC-4FCF-9473-AC535318A861";
name = "{155}";
shapes = (
{
closed = 1;
nodes = (
(332,319,o),
(306,217,o),
(274,133,c),
(267,133,l),
(188,485,l),
(24,485,l),
(170,-43,l),
(173,25,l),
(142,-11,o),
(79,-47,o),
(19,-81,c),
(92,-214,l),
(165,-170,o),
(249,-122,o),
(317,-47,cs),
(417,65,o),
(474,238,o),
(503,485,c),
(342,485,l)
);
}
);
width = 534;
},
{
anchors = (
{
name = bottom;
pos = (246,-108);
},
{
name = top;
pos = (243,468);
},
{
name = topright;
pos = (453,468);
}
);
layerId = "FA91A8E1-7324-47F6-AE85-AED49CFCD01C";
shapes = (
{
closed = 1;
nodes = (
(376,277,o),
(325,133,o),
(252,9,c),
(249,9,l),
(61,468,l),
(53,468,l),
(247,-5,l),
(247,1,l),
(196,-85,o),
(142,-137,o),
(75,-200,c),
(80,-206,l),
(146,-142,o),
(201,-90,o),
(256,3,cs),
(331,131,o),
(382,274,o),
(425,468,c),
(418,468,l)
);
}
);
width = 483;
},
{
anchors = (
{
name = bottom;
pos = (279,-65);
},
{
name = top;
pos = (255,480);
},
{
name = topright;
pos = (483,480);
}
);
associatedMasterId = "3E7589AA-8194-470F-8E2F-13C1C581BE24";
background = {
shapes = (
{
closed = 1;
nodes = (
(343,293,o),
(309,180,o),
(263,86,c),
(255,86,l),
(133,480,l),
(37,480,l),
(196,-3,l),
(156,-52,o),
(92,-103,o),
(35,-145,c),
(85,-212,l),
(165,-159,o),
(239,-94,o),
(297,-6,cs),
(379,119,o),
(429,269,o),
(463,480,c),
(373,480,l)
);
}
);
};
hints = (
{
horizontal = 1;
origin = (0,4);
type = TTSnap;
},
{
horizontal = 1;
origin = (0,18);
type = TTSnap;
},
{
horizontal = 1;
origin = (0,11);
type = TTSnap;
}
);
layerId = "B6B847DC-D4C7-4681-B636-DBEDDF55D14F";
name = "Jul 8 21, 21:33";
shapes = (
{
closed = 1;
nodes = (
(357,295,o),
(311,179,o),
(263,86,c),
(255,86,l),
(133,480,l),
(37,480,l),
(209,-41,l),
(207,10,l),
(160,-48,o),
(100,-96,o),
(35,-141,c),
(86,-212,l),
(162,-160,o),
(239,-94,o),
(302,1,cs),
(374,111,o),
(442,267,o),
(473,480,c),
(383,480,l)
);
}
);
width = 518;
},
{
anchors = (
{
name = bottom;
pos = (252,-108);
},
{
name = top;
pos = (249,468);
},
{
name = topright;
pos = (459,468);
}
);
associatedMasterId = "FA91A8E1-7324-47F6-AE85-AED49CFCD01C";
layerId = "81AE86D9-FD02-4F52-9624-4EA260B3AE13";
name = "Jul 8 21, 21:36";
shapes = (
{
closed = 1;
nodes = (
(382,277,o),
(340,148,o),
(258,9,c),
(255,9,l),
(67,468,l),
(59,468,l),
(253,-5,l),
(253,1,l),
(210,-71,o),
(158,-129,o),
(82,-200,c),
(86,-206,l),
(163,-134,o),
(216,-76,o),
(262,3,cs),
(346,146,o),
(388,274,o),
(431,468,c),
(424,468,l)
);
}
);
width = 511;
}
);
unicode = 121;
}
{
glyphname = braceleft;
layers = (
{
hints = (
{
horizontal = 1;
options = 4;
origin = (0,3);
stem = 1;
target = (0,2);
type = TTStem;
},
{
horizontal = 1;
options = 4;
origin = (0,23);
stem = 1;
target = (0,22);
type = TTStem;
},
{
horizontal = 1;
options = 4;
origin = (0,12);
stem = 1;
target = (0,13);
type = TTStem;
}
);
layerId = "3E7589AA-8194-470F-8E2F-13C1C581BE24";
shapes = (
{
closed = 1;
nodes = (
(207,-8,o),
(256,-33,o),
(351,-45,c),
(342,-133,l),
(178,-121,o),
(117,-27,o),
(117,84,cs),
(117,122,o),
(120,151,o),
(120,199,cs),
(120,261,o),
(101,270,o),
(50,274,c),
(50,351,l),
(99,356,o),
(121,372,o),
(121,428,cs),
(121,471,o),
(116,520,o),
(116,569,cs),
(116,683,o),
(179,763,o),
(342,773,c),
(351,684,l),
(260,676,o),
(207,655,o),
(207,554,cs),
(207,519,o),
(211,472,o),
(211,428,cs),
(211,364,o),
(182,331,o),
(138,323,c),
(138,318,l),
(181,307,o),
(210,287,o),
(210,204,cs),
(210,168,o),
(207,127,o),
(207,93,cs)
);
}
);
width = 415;
},
{
background = {
shapes = (
{
closed = 1;
nodes = (
(323,14,o),
(275,57,o),
(275,298,cs),
(275,531,o),
(323,586,o),
(394,586,c),
(384,800,l),
(158,800,o),
(51,677,o),
(51,298,cs),
(51,-112,o),
(158,-200,o),
(384,-200,c),
(394,14,l)
);
}
);
};
layerId = "BFFFD157-90D3-4B85-B99D-9A2F366F03CA";
shapes = (
{
closed = 1;
nodes = (
(332,58,o),
(356,43,o),
(452,37,c),
(437,-200,l),
(160,-186,o),
(112,-87,o),
(112,7,cs),
(112,53,o),
(119,86,o),
(119,124,cs),
(119,163,o),
(102,184,o),
(50,190,c),
(50,379,l),
(101,384,o),
(119,395,o),
(119,448,cs),
(119,501,o),
(111,540,o),
(111,593,cs),
(111,711,o),
(179,800,o),
(437,800,c),
(452,565,l),
(366,565,o),
(332,548,o),
(332,488,cs),
(332,456,o),
(336,426,o),
(336,397,cs),
(336,333,o),
(281,319,o),
(237,316,c),
(237,306,l),
(281,304,o),
(336,302,o),
(336,207,cs),
(336,177,o),
(332,143,o),
(332,110,cs)
);
}
);
width = 488;
},
{
layerId = "FA91A8E1-7324-47F6-AE85-AED49CFCD01C";
shapes = (
{
closed = 1;
nodes = (
(123,-40,o),
(179,-111,o),
(295,-112,c),
(294,-118,l),
(178,-120,o),
(116,-45,o),
(116,72,cs),
(116,110,o),
(123,152,o),
(123,226,cs),
(123,271,o),
(122,321,o),
(50,323,c),
(50,335,l),
(120,338,o),
(124,379,o),
(124,431,cs),
(124,501,o),
(118,557,o),
(118,606,cs),
(118,726,o),
(174,776,o),
(294,776,c),
(295,769,l),
(176,768,o),
(125,723,o),
(125,608,cs),
(125,563,o),
(131,506,o),
(131,431,cs),
(131,357,o),
(112,334,o),
(57,330,c),
(57,328,l),
(112,323,o),
(130,299,o),
(130,226,cs),
(130,149,o),
(123,110,o),
(123,69,cs)
);
}
);
width = 374;
}
);
metricRight = parenleft;
unicode = 123;
}
{
glyphname = bar;
layers = (
{
hints = (
{
horizontal = 1;
origin = (0,0);
type = TTSnap;
},
{
horizontal = 1;
origin = (0,3);
type = TTSnap;
}
);
layerId = "3E7589AA-8194-470F-8E2F-13C1C581BE24";
shapes = (
{
closed = 1;
nodes = (
(185,773,l),
(95,773,l),
(95,-133,l),
(185,-133,l)
);
}
);
width = 280;
},
{
layerId = "BFFFD157-90D3-4B85-B99D-9A2F366F03CA";
shapes = (
{
closed = 1;
nodes = (
(269,800,l),
(51,800,l),
(51,-200,l),
(269,-200,l)
);
}
);
width = 320;
},
{
layerId = "FA91A8E1-7324-47F6-AE85-AED49CFCD01C";
shapes = (
{
closed = 1;
nodes = (
(122,763,l),
(115,763,l),
(115,-120,l),
(122,-120,l)
);
}
);
width = 237;
}
);
metricRight = "=|";
unicode = 124;
}
{
glyphname = asciitilde;
layers = (
{
background = {
shapes = (
{
closed = 1;
nodes = (
(70,285,l),
(70,197,l),
(500,197,l),
(500,285,l)
);
}
);
};
hints = (
{
horizontal = 1;
options = 4;
origin = (0,5);
target = (0,12);
type = TTStem;
},
{
horizontal = 1;
options = 4;
origin = (0,12);
target = (0,9);
type = TTStem;
},
{
horizontal = 1;
options = 4;
origin = (0,9);
target = (0,15);
type = TTShift;
},
{
horizontal = 1;
options = 4;
origin = (0,15);
target = (0,2);
type = TTStem;
},
{
horizontal = 1;
options = 4;
origin = (0,5);
target = (0,19);
type = TTShift;
}
);
layerId = "3E7589AA-8194-470F-8E2F-13C1C581BE24";
shapes = (
{
closed = 1;
nodes = (
(157,224,o),
(180,256,o),
(213,256,cs),
(262,256,o),
(284,184,o),
(375,184,cs),
(471,184,o),
(504,260,o),
(514,333,c),
(430,333,l),
(425,298,o),
(411,264,o),
(373,264,cs),
(318,264,o),
(296,336,o),
(209,336,cs),
(118,336,o),
(83,258,o),
(70,190,c),
(152,190,l)
);
}
);
width = 584;
},
{
background = {
shapes = (
{
closed = 1;
nodes = (
(49,351,l),
(49,141,l),
(539,141,l),
(539,351,l)
);
}
);
};
layerId = "BFFFD157-90D3-4B85-B99D-9A2F366F03CA";
shapes = (
{
closed = 1;
nodes = (
(166,182,o),
(187,200,o),
(213,200,cs),
(261,200,o),
(277,138,o),
(380,138,cs),
(466,138,o),
(540,183,o),
(549,352,c),
(411,352,l),
(411,319,o),
(396,295,o),
(367,295,cs),
(321,295,o),
(306,357,o),
(208,357,cs),
(110,357,o),
(47,299,o),
(40,142,c),
(159,142,l)
);
}
);
width = 589;
},
{
layerId = "FA91A8E1-7324-47F6-AE85-AED49CFCD01C";
shapes = (
{
closed = 1;
nodes = (
(104,249,o),
(134,282,o),
(181,282,cs),
(254,282,o),
(271,193,o),
(354,193,cs),
(402,193,o),
(437,221,o),
(453,284,c),
(446,284,l),
(431,228,o),
(398,200,o),
(353,200,cs),
(274,200,o),
(258,289,o),
(182,289,cs),
(131,289,o),
(98,253,o),
(82,204,c),
(89,204,l)
);
}
);
width = 535;
}
);
metricLeft = minus;
metricRight = minus;
unicode = 126;
}
{
glyphname = exclamdown;
layers = (
{
hints = (
{
horizontal = 1;
options = 4;
place = (700, 120);
type = TTStem;
}
);
layerId = "3E7589AA-8194-470F-8E2F-13C1C581BE24";
shapes = (
{
closed = 1;
nodes = (
(117,515,l),
(78,0,l),
(223,0,l),
(184,515,l)
);
},
{
closed = 1;
nodes = (
(105,707,o),
(83,685,o),
(83,640,cs),
(83,596,o),
(105,574,o),
(149,574,cs),
(194,574,o),
(216,596,o),
(216,640,cs),
(216,685,o),
(194,707,o),
(149,707,cs)
);
}
);
width = 300;
},
{
layerId = "BFFFD157-90D3-4B85-B99D-9A2F366F03CA";
shapes = (
{
closed = 1;
nodes = (
(85,425,l),
(36,0,l),
(301,0,l),
(252,425,l)
);
},
{
closed = 1;
nodes = (
(80,711,o),
(40,670,o),
(40,587,cs),
(40,505,o),
(80,465,o),
(161,465,cs),
(244,465,o),
(284,505,o),
(284,587,cs),
(284,670,o),
(244,711,o),
(161,711,cs)
);
}
);
width = 337;
},
{
layerId = "FA91A8E1-7324-47F6-AE85-AED49CFCD01C";
shapes = (
{
closed = 1;
nodes = (
(104,561,l),
(101,0,l),
(112,0,l),
(109,561,l)
);
},
{
closed = 1;
nodes = (
(95,705,o),
(90,700,o),
(90,690,cs),
(90,680,o),
(95,675,o),
(104,675,cs),
(113,675,o),
(118,680,o),
(118,690,cs),
(118,700,o),
(113,705,o),
(104,705,cs)
);
}
);
width = 208;
}
);
metricLeft = "=|exclam";
metricRight = "=|exclam";
unicode = 161;
}
{
glyphname = cent;
layers = (
{
anchors = (
{
name = bottom;
pos = (301,0);
},
{
name = top;
pos = (300,480);
},
{
name = topright;
pos = (450,480);
}
);
background = {
shapes = (
{
closed = 1;
nodes = (
(419,98,l),
(386,83,o),
(340,76,o),
(305,76,cs),
(216,76,o),
(167,122,o),
(167,243,cs),
(167,354,o),
(209,401,o),
(301,401,cs),
(339,401,o),
(378,393,o),
(411,379,c),
(428,463,l),
(395,479,o),
(349,489,o),
(300,489,cs),
(151,489,o),
(77,401,o),
(77,237,cs),
(77,73,o),
(154,-11,o),
(301,-11,cs),
(350,-11,o),
(393,-2,o),
(430,14,c)
);
},
{
closed = 1;
nodes = (
(338,440,l),
(338,609,l),
(254,609,l),
(254,440,l)
);
},
{
closed = 1;
nodes = (
(338,-130,l),
(338,39,l),
(254,39,l),
(254,-130,l)
);
}
);
};
hints = (
{
horizontal = 1;
options = 4;
origin = (0,22);
stem = 1;
target = (0,3);
type = TTStem;
},
{
horizontal = 1;
options = 4;
origin = (0,16);
stem = 1;
target = (0,9);
type = TTStem;
},
{
horizontal = 1;
origin = (2,1);
type = TTSnap;
},
{
horizontal = 1;
origin = (1,0);
type = TTSnap;
}
);
layerId = "3E7589AA-8194-470F-8E2F-13C1C581BE24";
shapes = (
{
closed = 1;
nodes = (
(419,98,l),
(386,83,o),
(340,76,o),
(305,76,cs),
(216,76,o),
(167,122,o),
(167,243,cs),
(167,354,o),
(209,401,o),
(301,401,cs),
(339,401,o),
(378,393,o),
(411,379,c),
(428,463,l),
(395,479,o),
(349,489,o),
(300,489,cs),
(151,489,o),
(77,401,o),
(77,237,cs),
(77,73,o),
(154,-11,o),
(301,-11,cs),
(350,-11,o),
(393,-2,o),
(430,14,c)
);
},
{
closed = 1;
nodes = (
(338,-130,l),
(338,39,l),
(254,39,l),
(254,-130,l)
);
},
{
closed = 1;
nodes = (
(338,440,l),
(338,609,l),
(254,609,l),
(254,440,l)
);
}
);
width = 495;
},
{
anchors = (
{
name = bottom;
pos = (310,0);
},
{
name = top;
pos = (313,490);
},
{
name = topright;
pos = (439,490);
}
);
layerId = "BFFFD157-90D3-4B85-B99D-9A2F366F03CA";
shapes = (
{
closed = 1;
nodes = (
(421,198,l),
(401,188,o),
(373,183,o),
(345,183,cs),
(289,183,o),
(266,201,o),
(266,245,cs),
(266,288,o),
(289,304,o),
(343,304,cs),
(372,304,o),
(400,299,o),
(417,294,c),
(443,484,l),
(411,496,o),
(363,505,o),
(312,505,cs),
(150,505,o),
(55,418,o),
(55,245,cs),
(55,81,o),
(146,-15,o),
(307,-15,cs),
(358,-15,o),
(411,-6,o),
(446,9,c)
);
},
{
closed = 1;
nodes = (
(370,-130,l),
(370,79,l),
(180,79,l),
(180,-130,l)
);
},
{
closed = 1;
nodes = (
(370,440,l),
(370,639,l),
(180,639,l),
(180,440,l)
);
}
);
width = 496;
},
{
anchors = (
{
name = bottom;
pos = (283,0);
},
{
name = top;
pos = (288,468);
},
{
name = topright;
pos = (432,468);
}
);
layerId = "FA91A8E1-7324-47F6-AE85-AED49CFCD01C";
shapes = (
{
closed = 1;
nodes = (
(406,39,l),
(374,14,o),
(331,0,o),
(284,0,cs),
(169,0,o),
(116,76,o),
(116,230,cs),
(116,379,o),
(158,468,o),
(287,468,cs),
(339,468,o),
(371,452,o),
(402,425,c),
(405,432,l),
(375,457,o),
(342,475,o),
(287,475,cs),
(155,475,o),
(109,386,o),
(109,231,cs),
(109,71,o),
(164,-7,o),
(284,-7,cs),
(336,-7,o),
(376,7,o),
(409,32,c)
);
},
{
closed = 1;
nodes = (
(288,-117,l),
(288,-2,l),
(281,-2,l),
(281,-117,l)
);
},
{
closed = 1;
nodes = (
(291,471,l),
(291,596,l),
(284,596,l),
(284,471,l)
);
}
);
width = 508;
}
);
unicode = 162;
}
{
glyphname = sterling;
layers = (
{
background = {
shapes = (
{
closed = 1;
nodes = (
(233,700,l),
(140,700,l),
(140,0,l),
(233,0,l)
);
},
{
closed = 1;
nodes = (
(194,700,l),
(192,611,l),
(546,611,l),
(546,700,l)
);
},
{
closed = 1;
nodes = (
(194,89,l),
(192,0,l),
(556,0,l),
(556,89,l)
);
},
{
closed = 1;
nodes = (
(194,367,l),
(192,278,l),
(526,278,l),
(526,367,l)
);
}
);
};
hints = (
{
horizontal = 1;
options = 4;
origin = (0,29);
stem = 2;
target = (0,0);
type = TTStem;
},
{
horizontal = 1;
options = 4;
origin = (1,2);
stem = 2;
target = (1,3);
type = TTStem;
},
{
horizontal = 1;
options = 4;
origin = (0,18);
stem = 2;
target = (0,11);
type = TTStem;
}
);
layerId = "3E7589AA-8194-470F-8E2F-13C1C581BE24";
shapes = (
{
closed = 1;
nodes = (
(602,90,l),
(217,90,l),
(217,96,l),
(254,116,o),
(273,144,o),
(273,218,cs),
(273,294,o),
(257,402,o),
(257,474,cs),
(257,580,o),
(310,618,o),
(401,618,cs),
(447,618,o),
(491,609,o),
(533,592,c),
(556,678,l),
(513,698,o),
(460,710,o),
(402,710,cs),
(229,710,o),
(166,613,o),
(166,489,cs),
(166,416,o),
(183,297,o),
(183,228,cs),
(183,142,o),
(149,126,o),
(100,121,c),
(100,0,l),
(602,0,l)
);
},
{
closed = 1;
nodes = (
(101,365,l),
(92,279,l),
(481,279,l),
(493,365,l)
);
}
);
width = 670;
},
{
background = {
shapes = (
{
closed = 1;
nodes = (
(549,226,l),
(519,213,o),
(475,204,o),
(427,204,cs),
(332,204,o),
(283,242,o),
(283,347,cs),
(283,451,o),
(331,490,o),
(422,490,cs),
(465,490,o),
(501,480,o),
(527,466,c),
(595,668,l),
(542,700,o),
(472,715,o),
(399,715,cs),
(167,715,o),
(50,585,o),
(50,342,cs),
(50,111,o),
(163,-15,o),
(389,-15,cs),
(465,-15,o),
(539,1,o),
(587,26,c)
);
}
);
};
layerId = "BFFFD157-90D3-4B85-B99D-9A2F366F03CA";
shapes = (
{
closed = 1;
nodes = (
(592,190,l),
(331,190,l),
(331,197,l),
(350,212,o),
(356,240,o),
(356,263,cs),
(356,294,o),
(351,334,o),
(351,382,cs),
(351,458,o),
(372,489,o),
(425,489,cs),
(455,489,o),
(487,483,o),
(512,474,c),
(566,685,l),
(509,705,o),
(453,715,o),
(399,715,cs),
(165,715,o),
(126,565,o),
(126,478,cs),
(126,403,o),
(140,323,o),
(140,269,cs),
(140,228,o),
(125,204,o),
(91,196,c),
(91,0,l),
(592,0,l)
);
},
{
closed = 1;
nodes = (
(82,430,l),
(70,243,l),
(489,243,l),
(503,430,l)
);
}
);
width = 645;
},
{
layerId = "FA91A8E1-7324-47F6-AE85-AED49CFCD01C";
shapes = (
{
closed = 1;
nodes = (
(621,8,l),
(119,8,l),
(119,13,l),
(201,34,o),
(237,91,o),
(237,201,cs),
(237,324,o),
(209,392,o),
(209,495,cs),
(209,631,o),
(265,699,o),
(398,699,cs),
(453,699,o),
(509,685,o),
(549,656,c),
(552,663,l),
(507,696,o),
(452,707,o),
(399,707,cs),
(260,707,o),
(201,637,o),
(201,496,cs),
(201,382,o),
(229,319,o),
(229,202,cs),
(229,100,o),
(198,41,o),
(112,17,c),
(112,0,l),
(621,0,l)
);
},
{
closed = 1;
nodes = (
(122,330,l),
(122,322,l),
(481,322,l),
(481,330,l)
);
}
);
width = 692;
}
);
unicode = 163;
}
{
glyphname = currency;
layers = (
{
hints = (
{
horizontal = 1;
options = 4;
origin = (0,11);
stem = 1;
target = (1,11);
type = TTStem;
},
{
horizontal = 1;
options = 4;
origin = (1,5);
stem = 1;
target = (0,5);
type = TTStem;
},
{
horizontal = 1;
origin = (2,1);
type = TTSnap;
},
{
horizontal = 1;
origin = (5,2);
type = TTSnap;
},
{
horizontal = 1;
origin = (3,2);
type = TTSnap;
},
{
horizontal = 1;
origin = (4,1);
type = TTSnap;
}
);
layerId = "3E7589AA-8194-470F-8E2F-13C1C581BE24";
shapes = (
{
closed = 1;
nodes = (
(515,50,o),
(598,133,o),
(598,281,cs),
(598,429,o),
(514,512,o),
(367,512,cs),
(219,512,o),
(136,429,o),
(136,281,cs),
(136,133,o),
(219,50,o),
(367,50,cs)
);
},
{
closed = 1;
nodes = (
(277,139,o),
(225,191,o),
(225,281,cs),
(225,371,o),
(277,423,o),
(367,423,cs),
(457,423,o),
(509,371,o),
(509,281,cs),
(509,191,o),
(457,139,o),
(367,139,cs)
);
},
{
closed = 1;
nodes = (
(263,446,l),
(143,566,l),
(80,503,l),
(200,383,l)
);
},
{
closed = 1;
nodes = (
(201,175,l),
(81,55,l),
(144,-8,l),
(264,112,l)
);
},
{
closed = 1;
nodes = (
(469,117,l),
(589,-3,l),
(652,60,l),
(532,180,l)
);
},
{
closed = 1;
nodes = (
(532,382,l),
(652,502,l),
(589,565,l),
(469,445,l)
);
}
);
width = 732;
},
{
layerId = "BFFFD157-90D3-4B85-B99D-9A2F366F03CA";
shapes = (
{
closed = 1;
nodes = (
(586,57,o),
(688,159,o),
(688,341,cs),
(688,523,o),
(585,625,o),
(404,625,cs),
(222,625,o),
(119,523,o),
(119,341,cs),
(119,159,o),
(222,57,o),
(404,57,cs)
);
},
{
closed = 1;
nodes = (
(362,274,o),
(337,299,o),
(337,341,cs),
(337,383,o),
(362,408,o),
(404,408,cs),
(446,408,o),
(471,383,o),
(471,341,cs),
(471,299,o),
(446,274,o),
(404,274,cs)
);
},
{
closed = 1;
nodes = (
(344,553,l),
(206,691,l),
(54,540,l),
(192,402,l)
);
},
{
closed = 1;
nodes = (
(187,276,l),
(50,138,l),
(200,-14,l),
(338,124,l)
);
},
{
closed = 1;
nodes = (
(458,132,l),
(596,-6,l),
(748,145,l),
(610,282,l)
);
},
{
closed = 1;
nodes = (
(617,400,l),
(755,537,l),
(605,690,l),
(467,552,l)
);
}
);
width = 805;
},
{
layerId = "FA91A8E1-7324-47F6-AE85-AED49CFCD01C";
shapes = (
{
closed = 1;
nodes = (
(476,81,o),
(546,151,o),
(546,278,cs),
(546,405,o),
(475,475,o),
(349,475,cs),
(223,475,o),
(153,405,o),
(153,278,cs),
(153,151,o),
(223,81,o),
(349,81,cs)
);
},
{
closed = 1;
nodes = (
(229,88,o),
(160,156,o),
(160,278,cs),
(160,400,o),
(229,468,o),
(349,468,cs),
(470,468,o),
(539,400,o),
(539,278,cs),
(539,156,o),
(471,88,o),
(349,88,cs)
);
},
{
closed = 1;
nodes = (
(207,422,l),
(95,533,l),
(90,527,l),
(202,416,l)
);
},
{
closed = 1;
nodes = (
(207,135,l),
(96,24,l),
(101,18,l),
(212,130,l)
);
},
{
closed = 1;
nodes = (
(491,135,l),
(605,23,l),
(609,29,l),
(497,140,l)
);
},
{
closed = 1;
nodes = (
(493,419,l),
(603,529,l),
(598,534,l),
(488,423,l)
);
}
);
width = 699;
}
);
unicode = 164;
}
{
color = 4;
glyphname = ordfeminine;
kernLeft = supsletters;
kernRight = supsletters;
layers = (
{
background = {
shapes = (
{
closed = 1;
nodes = (
(133,715,o),
(93,702,o),
(58,655,c),
(90,628,l),
(114,664,o),
(141,676,o),
(194,676,cs),
(270,676,o),
(299,645,o),
(299,585,cs),
(299,543,l),
(178,543,ls),
(94,543,o),
(45,503,o),
(45,432,cs),
(45,403,o),
(54,376,o),
(73,357,cs),
(98,330,o),
(129,322,o),
(185,322,cs),
(237,322,o),
(267,332,o),
(299,363,c),
(299,327,l),
(342,327,l),
(342,589,ls),
(342,669,o),
(294,715,o),
(194,715,cs)
);
},
{
closed = 1;
nodes = (
(299,461,ls),
(299,426,o),
(292,402,o),
(279,389,cs),
(252,364,o),
(220,361,o),
(185,361,cs),
(117,361,o),
(88,384,o),
(88,433,cs),
(88,483,o),
(120,508,o),
(183,508,cs),
(299,508,l)
);
}
);
};
layerId = "3E7589AA-8194-470F-8E2F-13C1C581BE24";
shapes = (
{
ref = a.sups;
}
);
width = 281;
},
{
background = {
shapes = (
{
closed = 1;
nodes = (
(385,283,l),
(385,562,ls),
(385,667,o),
(319,718,o),
(196,718,cs),
(123,718,o),
(83,705,o),
(39,661,c),
(121,579,l),
(142,600,o),
(155,608,o),
(189,608,cs),
(235,608,o),
(254,593,o),
(254,554,cs),
(254,543,l),
(167,543,ls),
(65,543,o),
(21,483,o),
(21,418,cs),
(21,378,o),
(34,343,o),
(59,318,cs),
(83,294,o),
(118,279,o),
(161,279,cs),
(207,279,o),
(231,292,o),
(257,318,c),
(257,283,l)
);
},
{
closed = 1;
nodes = (
(254,444,ls),
(254,423,o),
(250,411,o),
(241,402,cs),
(228,389,o),
(215,387,o),
(189,387,cs),
(162,387,o),
(148,403,o),
(148,422,cs),
(148,441,o),
(162,456,o),
(188,456,cs),
(254,456,l)
);
}
);
};
layerId = "BFFFD157-90D3-4B85-B99D-9A2F366F03CA";
shapes = (
{
ref = a.sups;
}
);
width = 292;
},
{
layerId = "FA91A8E1-7324-47F6-AE85-AED49CFCD01C";
shapes = (
{
ref = a.sups;
}
);
width = 264;
}
);
metricLeft = "=a*0.8";
metricRight = "=a*0.8";
unicode = 170;
}
{
glyphname = logicalnot;
layers = (
{
hints = (
{
horizontal = 1;
options = 4;
origin = (0,1);
target = (0,0);
type = TTStem;
},
{
horizontal = 1;
origin = (1,2);
type = TTSnap;
}
);
layerId = "3E7589AA-8194-470F-8E2F-13C1C581BE24";
shapes = (
{
closed = 1;
nodes = (
(70,335,l),
(70,247,l),
(500,247,l),
(500,335,l)
);
},
{
closed = 1;
nodes = (
(500,335,l),
(412,335,l),
(412,101,l),
(500,101,l)
);
}
);
width = 570;
},
{
layerId = "BFFFD157-90D3-4B85-B99D-9A2F366F03CA";
shapes = (
{
closed = 1;
nodes = (
(40,401,l),
(40,191,l),
(530,191,l),
(530,401,l)
);
},
{
closed = 1;
nodes = (
(530,401,l),
(320,401,l),
(320,65,l),
(530,65,l)
);
}
);
width = 570;
},
{
layerId = "FA91A8E1-7324-47F6-AE85-AED49CFCD01C";
shapes = (
{
closed = 1;
nodes = (
(82,277,l),
(82,270,l),
(454,270,l),
(454,277,l)
);
},
{
closed = 1;
nodes = (
(454,277,l),
(447,277,l),
(447,136,l),
(454,136,l)
);
}
);
width = 536;
}
);
metricLeft = minus;
metricRight = minus;
unicode = 172;
}
{
glyphname = registered;
layers = (
{
background = {
shapes = (
{
closed = 1;
nodes = (
(518,251,l),
(496,243,o),
(471,239,o),
(449,239,cs),
(385,239,o),
(351,273,o),
(351,347,cs),
(351,426,o),
(385,458,o),
(451,458,cs),
(473,458,o),
(496,454,o),
(517,446,c),
(529,528,l),
(506,538,o),
(474,545,o),
(439,545,cs),
(335,545,o),
(267,477,o),
(267,344,cs),
(267,219,o),
(332,153,o),
(431,153,cs),
(472,153,o),
(506,162,o),
(530,173,c)
);
}
);
};
hints = (
{
horizontal = 1;
options = 4;
origin = (1,11);
stem = 0;
target = (0,11);
type = TTStem;
},
{
horizontal = 1;
options = 4;
origin = (3,21);
stem = 0;
target = (3,18);
type = TTStem;
},
{
horizontal = 1;
options = 4;
origin = (3,5);
stem = 0;
target = (3,12);
type = TTStem;
},
{
horizontal = 1;
options = 4;
origin = (1,5);
stem = 0;
target = (0,5);
type = TTStem;
},
{
horizontal = 1;
origin = (2,3);
type = TTSnap;
},
{
horizontal = 1;
options = 4;
origin = (2,3);
target = (4,3);
type = TTShift;
}
);
layerId = "3E7589AA-8194-470F-8E2F-13C1C581BE24";
shapes = (
{
closed = 1;
nodes = (
(248,78,o),
(149,177,o),
(149,350,cs),
(149,523,o),
(248,622,o),
(420,622,cs),
(592,622,o),
(691,523,o),
(691,350,cs),
(691,177,o),
(592,78,o),
(420,78,cs)
);
},
{
closed = 1;
nodes = (
(649,-11,o),
(780,120,o),
(780,350,cs),
(780,580,o),
(649,711,o),
(420,711,cs),
(191,711,o),
(60,580,o),
(60,350,cs),
(60,120,o),
(191,-11,o),
(420,-11,cs)
);
},
{
closed = 1;
nodes = (
(373,513,l),
(291,534,l),
(291,166,l),
(373,166,l)
);
},
{
closed = 1;
nodes = (
(509,283,o),
(562,332,o),
(562,410,cs),
(562,491,o),
(520,540,o),
(395,540,cs),
(364,540,o),
(324,537,o),
(291,534,c),
(357,458,l),
(376,458,o),
(390,458,o),
(398,458,cs),
(458,458,o),
(479,440,o),
(479,408,cs),
(479,376,o),
(457,358,o),
(407,358,cs),
(355,358,l),
(353,283,l),
(400,283,ls)
);
},
{
closed = 1;
nodes = (
(582,175,l),
(485,328,l),
(408,298,l),
(488,166,l),
(577,166,l)
);
}
);
width = 840;
},
{
layerId = "BFFFD157-90D3-4B85-B99D-9A2F366F03CA";
shapes = (
{
closed = 1;
nodes = (
(268,142,o),
(193,217,o),
(193,350,cs),
(193,483,o),
(268,558,o),
(400,558,cs),
(532,558,o),
(607,483,o),
(607,350,cs),
(607,217,o),
(532,142,o),
(400,142,cs)
);
},
{
closed = 1;
nodes = (
(629,-11,o),
(760,120,o),
(760,350,cs),
(760,580,o),
(629,711,o),
(400,711,cs),
(171,711,o),
(40,580,o),
(40,350,cs),
(40,120,o),
(171,-11,o),
(400,-11,cs)
);
},
{
closed = 1;
nodes = (
(381,478,l),
(275,506,l),
(275,194,l),
(381,194,l)
);
},
{
closed = 1;
nodes = (
(491,256,o),
(536,314,o),
(536,384,cs),
(536,454,o),
(493,511,o),
(369,511,cs),
(346,511,o),
(307,509,o),
(275,506,c),
(352,408,l),
(365,411,o),
(380,412,o),
(390,412,cs),
(419,412,o),
(430,398,o),
(430,377,cs),
(430,356,o),
(418,343,o),
(390,343,cs),
(351,343,l),
(330,256,l),
(395,256,ls)
);
},
{
closed = 1;
nodes = (
(542,201,l),
(463,351,l),
(370,329,l),
(423,194,l),
(540,194,l)
);
}
);
width = 800;
},
{
layerId = "FA91A8E1-7324-47F6-AE85-AED49CFCD01C";
shapes = (
{
closed = 1;
nodes = (
(226,-3,o),
(96,126,o),
(96,350,cs),
(96,574,o),
(226,703,o),
(448,703,cs),
(672,703,o),
(800,574,o),
(800,350,cs),
(800,126,o),
(672,-3,o),
(448,-3,cs)
);
},
{
closed = 1;
nodes = (
(677,-11,o),
(808,120,o),
(808,350,cs),
(808,580,o),
(677,711,o),
(448,711,cs),
(219,711,o),
(88,580,o),
(88,350,cs),
(88,120,o),
(219,-11,o),
(448,-11,cs)
);
},
{
closed = 1;
nodes = (
(355,533,l),
(349,534,l),
(349,151,l),
(355,151,l)
);
},
{
closed = 1;
nodes = (
(507,302,o),
(557,341,o),
(557,420,cs),
(557,497,o),
(511,538,o),
(412,538,cs),
(394,538,o),
(374,537,o),
(349,534,c),
(353,526,l),
(374,529,o),
(390,531,o),
(410,531,cs),
(506,531,o),
(550,490,o),
(550,421,cs),
(550,347,o),
(504,308,o),
(401,308,cs),
(352,308,l),
(352,302,l),
(405,302,ls)
);
},
{
closed = 1;
nodes = (
(559,154,l),
(428,306,l),
(420,305,l),
(551,151,l),
(558,151,l)
);
}
);
width = 896;
}
);
metricRight = "=|";
unicode = 174;
}
{
glyphname = degree;
kernLeft = asterisk;
kernRight = asterisk;
layers = (
{
hints = (
{
horizontal = 1;
options = 4;
origin = (1,11);
stem = -1;
target = (0,11);
type = TTStem;
},
{
horizontal = 1;
options = 4;
origin = (1,5);
stem = -1;
target = (0,5);
type = TTStem;
}
);
layerId = "3E7589AA-8194-470F-8E2F-13C1C581BE24";
shapes = (
{
closed = 1;
nodes = (
(179,457,o),
(146,489,o),
(146,546,cs),
(146,604,o),
(179,636,o),
(237,636,cs),
(295,636,o),
(326,604,o),
(326,546,cs),
(326,489,o),
(295,457,o),
(237,457,cs)
);
},
{
closed = 1;
nodes = (
(342,380,o),
(402,440,o),
(402,546,cs),
(402,651,o),
(342,712,o),
(237,712,cs),
(131,712,o),
(70,651,o),
(70,546,cs),
(70,440,o),
(131,380,o),
(237,380,cs)
);
}
);
width = 472;
},
{
background = {
shapes = (
{
closed = 1;
nodes = (
(222,566,o),
(227,558,o),
(227,545,cs),
(227,532,o),
(222,525,o),
(208,525,cs),
(194,525,o),
(190,532,o),
(190,545,cs),
(190,558,o),
(194,566,o),
(208,566,c)
);
}
);
};
layerId = "BFFFD157-90D3-4B85-B99D-9A2F366F03CA";
shapes = (
{
closed = 1;
nodes = (
(221,425,o),
(199,448,o),
(199,488,cs),
(199,528,o),
(221,551,o),
(263,551,cs),
(303,551,o),
(326,528,o),
(326,488,cs),
(326,448,o),
(303,425,o),
(263,425,cs)
);
},
{
closed = 1;
nodes = (
(405,266,o),
(486,347,o),
(486,490,cs),
(486,631,o),
(405,712,o),
(264,712,cs),
(121,712,o),
(40,631,o),
(40,490,cs),
(40,347,o),
(121,266,o),
(264,266,cs)
);
}
);
width = 526;
},
{
layerId = "FA91A8E1-7324-47F6-AE85-AED49CFCD01C";
shapes = (
{
closed = 1;
nodes = (
(111,459,o),
(65,504,o),
(65,581,cs),
(65,659,o),
(110,703,o),
(188,703,cs),
(265,703,o),
(310,658,o),
(310,581,cs),
(310,504,o),
(265,459,o),
(188,459,cs)
);
},
{
closed = 1;
nodes = (
(269,452,o),
(317,500,o),
(317,581,cs),
(317,663,o),
(269,710,o),
(188,710,cs),
(106,710,o),
(58,663,o),
(58,581,cs),
(58,500,o),
(106,452,o),
(188,452,cs)
);
}
);
width = 375;
}
);
metricRight = "=|";
unicode = 176;
}
{
glyphname = paragraph;
layers = (
{
hints = (
{
horizontal = 1;
options = 4;
origin = (1,25);
stem = 2;
target = (1,6);
type = TTStem;
},
{
horizontal = 1;
options = 4;
origin = (1,19);
stem = 2;
target = (1,12);
type = TTStem;
},
{
horizontal = 1;
origin = (2,1);
type = TTSnap;
},
{
horizontal = 1;
origin = (2,2);
type = TTSnap;
},
{
horizontal = 1;
origin = (0,3);
type = TTSnap;
}
);
layerId = "3E7589AA-8194-470F-8E2F-13C1C581BE24";
shapes = (
{
closed = 1;
nodes = (
(448,0,l),
(448,696,l),
(355,652,l),
(355,0,l)
);
},
{
closed = 1;
nodes = (
(338,217,o),
(371,219,o),
(404,225,c),
(402,317,l),
(369,311,o),
(335,309,o),
(310,309,cs),
(203,309,o),
(158,363,o),
(158,461,cs),
(158,557,o),
(206,612,o),
(326,612,cs),
(346,612,o),
(373,611,o),
(403,606,c),
(448,696,l),
(395,702,o),
(350,704,o),
(322,704,cs),
(132,704,o),
(65,594,o),
(65,460,cs),
(65,320,o),
(136,217,o),
(305,217,cs)
);
},
{
closed = 1;
nodes = (
(619,700,l),
(526,700,l),
(526,0,l),
(619,0,l)
);
}
);
width = 704;
},
{
layerId = "BFFFD157-90D3-4B85-B99D-9A2F366F03CA";
shapes = (
{
closed = 1;
nodes = (
(566,0,l),
(566,697,l),
(341,632,l),
(341,0,l)
);
},
{
closed = 1;
nodes = (
(349,131,o),
(391,134,o),
(432,139,c),
(398,338,l),
(372,333,o),
(345,330,o),
(319,330,cs),
(263,330,o),
(238,360,o),
(238,407,cs),
(238,453,o),
(262,485,o),
(319,485,cs),
(339,485,o),
(369,482,o),
(395,475,c),
(566,697,l),
(489,703,o),
(407,705,o),
(365,705,cs),
(111,705,o),
(20,581,o),
(20,410,cs),
(20,239,o),
(112,131,o),
(309,131,cs)
);
},
{
closed = 1;
nodes = (
(836,700,l),
(611,700,l),
(611,0,l),
(836,0,l)
);
}
);
width = 876;
},
{
layerId = "FA91A8E1-7324-47F6-AE85-AED49CFCD01C";
shapes = (
{
closed = 1;
nodes = (
(390,0,l),
(390,697,l),
(382,693,l),
(382,0,l)
);
},
{
closed = 1;
nodes = (
(328,258,o),
(356,260,o),
(384,265,c),
(385,273,l),
(360,268,o),
(330,266,o),
(300,266,cs),
(164,266,o),
(87,328,o),
(87,480,cs),
(87,621,o),
(159,696,o),
(298,696,cs),
(326,696,o),
(353,693,o),
(389,689,c),
(390,697,l),
(354,702,o),
(325,704,o),
(297,704,cs),
(154,704,o),
(79,628,o),
(79,481,cs),
(79,322,o),
(160,258,o),
(299,258,cs)
);
},
{
closed = 1;
nodes = (
(507,700,l),
(499,700,l),
(499,0,l),
(507,0,l)
);
}
);
width = 626;
}
);
metricLeft = "=|P";
metricRight = H;
unicode = 182;
}
{
color = 4;
glyphname = ordmasculine;
kernLeft = supsletters;
kernRight = supsletters;
layers = (
{
background = {
shapes = (
{
closed = 1;
nodes = (
(166,715,o),
(131,701,o),
(103,673,cs),
(62,632,o),
(55,575,o),
(55,519,cs),
(55,463,o),
(62,406,o),
(103,365,cs),
(131,337,o),
(166,323,o),
(209,323,cs),
(252,323,o),
(287,337,o),
(315,365,cs),
(356,406,o),
(363,463,o),
(363,519,cs),
(363,575,o),
(356,632,o),
(315,673,cs),
(287,701,o),
(252,715,o),
(209,715,cs)
);
},
{
closed = 1;
nodes = (
(240,676,o),
(266,665,o),
(287,644,cs),
(318,613,o),
(320,562,o),
(320,519,cs),
(320,476,o),
(318,425,o),
(287,394,cs),
(267,374,o),
(240,362,o),
(209,362,cs),
(178,362,o),
(151,374,o),
(131,394,cs),
(100,425,o),
(98,476,o),
(98,519,cs),
(98,562,o),
(100,613,o),
(131,644,cs),
(152,665,o),
(178,676,o),
(209,676,cs)
);
}
);
};
layerId = "3E7589AA-8194-470F-8E2F-13C1C581BE24";
shapes = (
{
ref = o.sups;
}
);
width = 311;
},
{
background = {
shapes = (
{
closed = 1;
nodes = (
(407,582,o),
(395,624,o),
(359,663,cs),
(334,690,o),
(290,718,o),
(221,718,cs),
(152,718,o),
(108,690,o),
(83,663,cs),
(47,624,o),
(35,582,o),
(35,498,cs),
(35,413,o),
(47,372,o),
(83,333,cs),
(108,306,o),
(152,278,o),
(221,278,cs),
(290,278,o),
(334,306,o),
(359,333,cs),
(395,372,o),
(407,413,o),
(407,498,cs)
);
},
{
closed = 1;
nodes = (
(275,456,o),
(273,425,o),
(256,408,cs),
(248,400,o),
(237,396,o),
(221,396,cs),
(205,396,o),
(194,400,o),
(186,408,cs),
(169,425,o),
(167,456,o),
(167,498,cs),
(167,540,o),
(169,571,o),
(186,588,cs),
(194,596,o),
(205,600,o),
(221,600,cs),
(237,600,o),
(248,596,o),
(256,588,cs),
(273,571,o),
(275,540,o),
(275,498,cs)
);
}
);
};
layerId = "BFFFD157-90D3-4B85-B99D-9A2F366F03CA";
shapes = (
{
ref = o.sups;
}
);
width = 320;
},
{
layerId = "FA91A8E1-7324-47F6-AE85-AED49CFCD01C";
shapes = (
{
ref = o.sups;
}
);
width = 291;
}
);
metricLeft = "=o*0.8";
metricRight = "=o*0.8";
unicode = 186;
}
{
glyphname = multiply;
layers = (
{
hints = (
{
horizontal = 1;
origin = (0,3);
type = TTSnap;
},
{
horizontal = 1;
origin = (1,0);
type = TTSnap;
},
{
horizontal = 1;
origin = (0,1);
type = TTSnap;
},
{
horizontal = 1;
origin = (1,2);
type = TTSnap;
}
);
layerId = "3E7589AA-8194-470F-8E2F-13C1C581BE24";
shapes = (
{
closed = 1;
nodes = (
(70,102,l),
(133,40,l),
(473,380,l),
(411,442,l)
);
},
{
closed = 1;
nodes = (
(133,442,l),
(71,379,l),
(411,39,l),
(473,102,l)
);
}
);
width = 543;
},
{
layerId = "BFFFD157-90D3-4B85-B99D-9A2F366F03CA";
shapes = (
{
closed = 1;
nodes = (
(40,146,l),
(188,-2,l),
(534,344,l),
(386,492,l)
);
},
{
closed = 1;
nodes = (
(188,492,l),
(40,344,l),
(386,-2,l),
(534,146,l)
);
}
);
width = 574;
},
{
layerId = "FA91A8E1-7324-47F6-AE85-AED49CFCD01C";
shapes = (
{
closed = 1;
nodes = (
(83,92,l),
(87,87,l),
(378,378,l),
(373,382,l)
);
},
{
closed = 1;
nodes = (
(87,383,l),
(82,379,l),
(373,88,l),
(378,93,l)
);
}
);
width = 460;
}
);
metricLeft = minus;
metricRight = minus;
unicode = 215;
}
{
glyphname = germandbls;
kernLeft = longs;
kernRight = germandbls;
layers = (
{
background = {
shapes = (
{
closed = 1;
nodes = (
(521,479,o),
(468,492,o),
(412,492,cs),
(290,492,o),
(228,436,o),
(228,345,cs),
(228,273,o),
(261,236,o),
(330,211,cs),
(366,198,o),
(406,189,o),
(430,179,cs),
(467,164,o),
(479,149,o),
(479,126,cs),
(479,89,o),
(448,77,o),
(390,77,cs),
(336,77,o),
(289,90,o),
(246,115,c),
(227,26,l),
(268,4,o),
(319,-11,o),
(383,-11,cs),
(496,-11,o),
(569,32,o),
(569,130,cs),
(569,179,o),
(553,229,o),
(459,261,cs),
(433,270,o),
(409,277,o),
(382,285,cs),
(339,298,o),
(317,314,o),
(317,347,cs),
(317,389,o),
(354,403,o),
(406,403,cs),
(454,403,o),
(505,390,o),
(540,370,c),
(560,456,l)
);
}
);
};
hints = (
{
horizontal = 1;
options = 4;
origin = (0,27);
stem = 1;
target = (0,36);
type = TTStem;
},
{
horizontal = 1;
origin = (0,32);
type = TTSnap;
},
{
horizontal = 1;
options = 4;
origin = (0,15);
stem = 1;
target = (0,8);
type = TTStem;
}
);
layerId = "3E7589AA-8194-470F-8E2F-13C1C581BE24";
shapes = (
{
closed = 1;
nodes = (
(385,441,o),
(275,434,o),
(275,334,cs),
(275,204,o),
(443,224,o),
(443,131,cs),
(443,90,o),
(411,77,o),
(358,77,cs),
(325,77,o),
(287,83,o),
(244,101,c),
(227,15,l),
(270,-3,o),
(315,-11,o),
(359,-11,cs),
(457,-11,o),
(533,33,o),
(533,135,cs),
(533,288,o),
(364,279,o),
(364,340,cs),
(364,390,o),
(475,418,o),
(475,570,cs),
(475,704,o),
(402,762,o),
(287,762,cs),
(123,762,o),
(75,655,o),
(75,509,cs),
(75,0,l),
(165,0,l),
(165,503,ls),
(165,605,o),
(182,674,o),
(280,674,cs),
(348,674,o),
(385,635,o),
(385,562,cs)
);
}
);
width = 577;
},
{
background = {
shapes = (
{
closed = 1;
nodes = (
(548,490,o),
(492,501,o),
(438,501,cs),
(275,501,o),
(223,425,o),
(223,327,cs),
(223,239,o),
(261,198,o),
(325,174,cs),
(349,165,o),
(365,161,o),
(383,156,cs),
(399,152,o),
(407,148,o),
(407,140,cs),
(407,132,o),
(400,130,o),
(385,130,cs),
(343,130,o),
(278,147,o),
(239,161,c),
(223,19,l),
(273,-1,o),
(344,-11,o),
(404,-11,cs),
(540,-11,o),
(596,47,o),
(596,146,cs),
(596,245,o),
(547,274,o),
(505,289,cs),
(482,297,o),
(461,302,o),
(439,308,cs),
(416,314,o),
(409,317,o),
(409,328,cs),
(409,338,o),
(418,343,o),
(448,343,cs),
(490,343,o),
(531,327,o),
(561,314,c),
(585,470,l)
);
}
);
};
layerId = "BFFFD157-90D3-4B85-B99D-9A2F366F03CA";
shapes = (
{
closed = 1;
nodes = (
(348,441,o),
(279,415,o),
(279,341,cs),
(279,260,o),
(368,233,o),
(368,188,cs),
(368,172,o),
(357,168,o),
(338,168,cs),
(320,168,o),
(303,172,o),
(282,181,c),
(274,13,l),
(312,-1,o),
(352,-8,o),
(391,-8,cs),
(511,-8,o),
(590,52,o),
(590,156,cs),
(590,284,o),
(505,304,o),
(505,372,cs),
(505,422,o),
(552,470,o),
(552,565,cs),
(552,699,o),
(456,765,o),
(306,765,cs),
(113,765,o),
(32,675,o),
(32,452,cs),
(32,0,l),
(252,0,l),
(252,503,ls),
(252,543,o),
(260,568,o),
(294,568,cs),
(326,568,o),
(348,548,o),
(348,509,cs)
);
}
);
width = 596;
},
{
layerId = "FA91A8E1-7324-47F6-AE85-AED49CFCD01C";
shapes = (
{
closed = 1;
nodes = (
(419,427,o),
(295,435,o),
(295,329,cs),
(295,207,o),
(459,245,o),
(459,112,cs),
(459,30,o),
(394,0,o),
(319,0,cs),
(278,0,o),
(242,10,o),
(207,28,c),
(205,22,l),
(238,3,o),
(275,-7,o),
(319,-7,cs),
(397,-7,o),
(466,25,o),
(466,112,cs),
(466,250,o),
(302,212,o),
(302,329,cs),
(302,431,o),
(426,424,o),
(426,590,cs),
(426,679,o),
(392,757,o),
(268,757,cs),
(132,757,o),
(98,658,o),
(98,533,cs),
(98,0,l),
(105,0,l),
(105,533,ls),
(105,655,o),
(136,750,o),
(269,750,cs),
(388,750,o),
(419,675,o),
(419,589,cs)
);
}
);
width = 540;
}
);
metricLeft = m;
unicode = 223;
}
{
glyphname = divide;
layers = (
{
hints = (
{
horizontal = 1;
options = 4;
origin = (1,2);
target = (1,3);
type = TTStem;
},
{
horizontal = 1;
options = 4;
origin = (2,3);
target = (2,2);
type = TTStem;
},
{
horizontal = 1;
options = 4;
origin = (0,2);
target = (0,3);
type = TTStem;
}
);
layerId = "3E7589AA-8194-470F-8E2F-13C1C581BE24";
shapes = (
{
closed = 1;
nodes = (
(70,285,l),
(70,197,l),
(500,197,l),
(500,285,l)
);
},
{
closed = 1;
nodes = (
(224,120,l),
(224,0,l),
(346,0,l),
(346,120,l)
);
},
{
closed = 1;
nodes = (
(224,480,l),
(224,360,l),
(346,360,l),
(346,480,l)
);
}
);
width = 570;
},
{
layerId = "BFFFD157-90D3-4B85-B99D-9A2F366F03CA";
shapes = (
{
closed = 1;
nodes = (
(40,321,l),
(40,171,l),
(530,171,l),
(530,321,l)
);
},
{
closed = 1;
nodes = (
(217,139,l),
(217,0,l),
(354,0,l),
(354,139,l)
);
},
{
closed = 1;
nodes = (
(217,490,l),
(217,351,l),
(354,351,l),
(354,490,l)
);
}
);
width = 570;
},
{
layerId = "FA91A8E1-7324-47F6-AE85-AED49CFCD01C";
shapes = (
{
closed = 1;
nodes = (
(82,238,l),
(82,231,l),
(454,231,l),
(454,238,l)
);
},
{
closed = 1;
nodes = (
(259,65,l),
(259,46,l),
(279,46,l),
(279,65,l)
);
},
{
closed = 1;
nodes = (
(259,425,l),
(259,406,l),
(279,406,l),
(279,425,l)
);
}
);
width = 536;
}
);
metricLeft = minus;
metricRight = minus;
unicode = 247;
}
{
color = 4;
glyphname = hcircumflex;
kernLeft = h;
kernRight = m;
layers = (
{
background = {
shapes = (
{
closed = 1;
nodes = (
(468,0,l),
(468,308,ls),
(468,420,o),
(401,488,o),
(290,488,cs),
(231,488,o),
(184,467,o),
(148,425,c),
(148,712,l),
(97,712,l),
(97,0,l),
(148,0,l),
(148,299,ls),
(148,392,o),
(197,443,o),
(284,443,cs),
(371,443,o),
(417,392,o),
(417,299,cs),
(417,0,l)
);
},
{
closed = 1;
nodes = (
(273,780,l),
(150,927,l),
(96,927,l),
(-27,780,l),
(30,780,l),
(123,889,l),
(216,780,l)
);
}
);
};
layerId = "3E7589AA-8194-470F-8E2F-13C1C581BE24";
shapes = (
{
ref = h;
},
{
pos = (-102,270);
ref = circumflex;
}
);
width = 538;
},
{
background = {
shapes = (
{
closed = 1;
nodes = (
(522,0,l),
(522,344,ls),
(522,401,o),
(514,452,o),
(468,498,cs),
(439,527,o),
(398,544,o),
(347,544,cs),
(302,544,o),
(258,527,o),
(226,494,c),
(226,712,l),
(62,712,l),
(62,0,l),
(226,0,l),
(226,322,ls),
(226,384,o),
(270,396,o),
(292,396,cs),
(314,396,o),
(358,384,o),
(358,322,cs),
(358,0,l)
);
},
{
closed = 1;
nodes = (
(345,782,l),
(209,961,l),
(79,961,l),
(-57,782,l),
(65,782,l),
(144,865,l),
(223,782,l)
);
}
);
};
layerId = "BFFFD157-90D3-4B85-B99D-9A2F366F03CA";
shapes = (
{
ref = h;
},
{
pos = (-107,260);
ref = circumflex;
}
);
width = 578;
},
{
layerId = "FA91A8E1-7324-47F6-AE85-AED49CFCD01C";
shapes = (
{
ref = h;
},
{
pos = (-87,282);
ref = circumflex;
}
);
width = 525;
}
);
unicode = 293;
}
{
color = 4;
glyphname = ibreve;
kernLeft = i;
kernRight = i;
layers = (
{
background = {
shapes = (
{
closed = 1;
nodes = (
(148,0,l),
(148,482,l),
(97,482,l),
(97,0,l)
);
},
{
closed = 1;
nodes = (
(242,722,l),
(234,666,o),
(191,632,o),
(122,632,cs),
(53,632,o),
(10,666,o),
(2,722,c),
(-43,722,l),
(-34,637,o),
(14,587,o),
(122,587,cs),
(230,587,o),
(278,637,o),
(287,722,c)
);
}
);
};
layerId = "3E7589AA-8194-470F-8E2F-13C1C581BE24";
shapes = (
{
ref = idotless;
},
{
pos = (-52,0);
ref = brevecomb.narrow;
}
);
width = 250;
},
{
background = {
shapes = (
{
closed = 1;
nodes = (
(226,0,l),
(226,517,l),
(62,517,l),
(62,0,l)
);
},
{
closed = 1;
nodes = (
(204,759,l),
(201,722,o),
(171,712,o),
(146,712,cs),
(121,712,o),
(91,722,o),
(88,759,c),
(-18,759,l),
(-15,641,o),
(69,602,o),
(146,602,cs),
(223,602,o),
(307,641,o),
(310,759,c)
);
}
);
};
layerId = "BFFFD157-90D3-4B85-B99D-9A2F366F03CA";
shapes = (
{
ref = idotless;
},
{
pos = (-80,0);
ref = brevecomb.narrow;
}
);
width = 288;
},
{
layerId = "FA91A8E1-7324-47F6-AE85-AED49CFCD01C";
shapes = (
{
ref = idotless;
},
{
pos = (-47,0);
ref = brevecomb.narrow;
}
);
width = 213;
}
);
unicode = 301;
}
{
glyphname = idotless;
kernLeft = i;
kernRight = i;
layers = (
{
anchors = (
{
name = bottom;
pos = (144,0);
},
{
name = ogonek;
pos = (254,0);
},
{
name = top;
pos = (144,490);
}
);
layerId = "BFFFD157-90D3-4B85-B99D-9A2F366F03CA";
shapes = (
{
closed = 1;
nodes = (
(34,490,l),
(34,0,l),
(254,0,l),
(254,490,l)
);
}
);
width = 288;
},
{
anchors = (
{
name = bottom;
pos = (125,0);
},
{
name = ogonek;
pos = (170,0);
},
{
name = top;
pos = (125,480);
}
);
hints = (
{
horizontal = 1;
origin = (0,0);
type = TTSnap;
},
{
horizontal = 1;
origin = (0,1);
type = TTSnap;
}
);
layerId = "3E7589AA-8194-470F-8E2F-13C1C581BE24";
shapes = (
{
closed = 1;
nodes = (
(80,480,l),
(80,0,l),
(170,0,l),
(170,480,l)
);
}
);
width = 250;
},
{
anchors = (
{
name = bottom;
pos = (106,0);
},
{
name = ogonek;
pos = (110,0);
},
{
name = top;
pos = (107,468);
}
);
layerId = "FA91A8E1-7324-47F6-AE85-AED49CFCD01C";
shapes = (
{
closed = 1;
nodes = (
(103,468,l),
(103,0,l),
(110,0,l),
(110,468,l)
);
}
);
width = 213;
}
);
unicode = 305;
}
{
color = 4;
glyphname = scircumflex;
kernLeft = s;
kernRight = s;
layers = (
{
background = {
shapes = (
{
closed = 1;
nodes = (
(438,231,o),
(377,255,o),
(297,263,cs),
(219,270,ls),
(151,277,o),
(121,300,o),
(121,351,cs),
(121,411,o),
(164,444,o),
(244,444,cs),
(297,444,o),
(342,430,o),
(379,403,c),
(413,437,l),
(370,469,o),
(311,488,o),
(244,488,cs),
(139,488,o),
(71,435,o),
(71,351,cs),
(71,275,o),
(119,233,o),
(216,225,cs),
(296,218,ls),
(360,212,o),
(388,188,o),
(388,137,cs),
(388,72,o),
(338,39,o),
(243,39,cs),
(175,39,o),
(122,59,o),
(85,98,c),
(50,63,l),
(99,16,o),
(161,-6,o),
(245,-6,cs),
(364,-6,o),
(438,49,o),
(438,137,cs)
);
},
{
closed = 1;
nodes = (
(400,590,l),
(277,737,l),
(223,737,l),
(100,590,l),
(157,590,l),
(250,699,l),
(343,590,l)
);
}
);
};
layerId = "3E7589AA-8194-470F-8E2F-13C1C581BE24";
shapes = (
{
ref = s;
},
{
pos = (1,0);
ref = circumflex;
}
);
width = 437;
},
{
background = {
shapes = (
{
closed = 1;
nodes = (
(477,262,o),
(428,329,o),
(315,340,cs),
(232,348,ls),
(205,351,o),
(197,362,o),
(197,378,cs),
(197,390,o),
(210,409,o),
(250,409,cs),
(292,409,o),
(337,404,o),
(364,377,c),
(465,478,l),
(412,531,o),
(341,544,o),
(253,544,cs),
(146,544,o),
(39,485,o),
(39,366,cs),
(39,261,o),
(102,219,o),
(195,210,cs),
(278,202,ls),
(310,199,o),
(317,183,o),
(317,168,cs),
(317,140,o),
(271,133,o),
(247,133,cs),
(219,133,o),
(161,133,o),
(116,178,c),
(10,72,l),
(84,-2,o),
(163,-6,o),
(244,-6,cs),
(369,-6,o),
(477,49,o),
(477,176,cs)
);
},
{
closed = 1;
nodes = (
(466,610,l),
(330,789,l),
(200,789,l),
(64,610,l),
(186,610,l),
(265,693,l),
(344,610,l)
);
}
);
};
layerId = "BFFFD157-90D3-4B85-B99D-9A2F366F03CA";
shapes = (
{
ref = s;
},
{
pos = (-29,0);
ref = circumflex;
}
);
width = 406;
},
{
layerId = "FA91A8E1-7324-47F6-AE85-AED49CFCD01C";
shapes = (
{
ref = s;
},
{
pos = (54,0);
ref = circumflex;
}
);
width = 457;
}
);
unicode = 349;
}
{
color = 10;
glyphname = Schwa;
kernLeft = Schwa;
kernRight = O;
layers = (
{
background = {
shapes = (
{
closed = 1;
nodes = (
(200,5,o),
(263,-11,o),
(339,-11,cs),
(539,-11,o),
(640,111,o),
(640,342,cs),
(640,585,o),
(533,711,o),
(323,711,cs),
(260,711,o),
(202,698,o),
(159,678,c),
(182,592,l),
(228,611,o),
(280,620,o),
(326,620,cs),
(473,620,o),
(547,533,o),
(547,344,cs),
(547,162,o),
(474,80,o),
(328,80,cs),
(285,80,o),
(228,88,o),
(180,107,c),
(157,26,l)
);
}
);
};
hints = (
{
horizontal = 1;
options = 4;
origin = (0,16);
stem = 2;
target = (0,23);
type = TTStem;
},
{
horizontal = 1;
options = 4;
origin = (0,10);
stem = 2;
target = (0,29);
type = TTStem;
},
{
horizontal = 1;
options = 4;
origin = (0,1);
stem = 2;
target = (0,2);
type = TTStem;
}
);
layerId = "3E7589AA-8194-470F-8E2F-13C1C581BE24";
shapes = (
{
closed = 1;
nodes = (
(130,278,l),
(591,278,l),
(589,367,l),
(57,367,l),
(123,480,l),
(94,397,o),
(85,336,o),
(85,284,cs),
(85,118,o),
(152,-11,o),
(348,-11,cs),
(542,-11,o),
(640,122,o),
(640,355,cs),
(640,608,o),
(525,710,o),
(320,710,cs),
(239,710,o),
(162,694,o),
(89,663,c),
(108,577,l),
(172,603,o),
(251,618,o),
(321,618,cs),
(461,618,o),
(548,559,o),
(548,344,cs),
(548,182,o),
(496,82,o),
(356,82,cs),
(235,82,o),
(178,155,o),
(178,266,cs),
(178,286,o),
(180,309,o),
(186,333,c)
);
}
);
width = 710;
},
{
background = {
shapes = (
{
closed = 1;
nodes = (
(175,1,o),
(249,-15,o),
(325,-15,cs),
(551,-15,o),
(664,111,o),
(664,342,cs),
(664,585,o),
(547,715,o),
(315,715,cs),
(242,715,o),
(172,700,o),
(119,668,c),
(187,466,l),
(213,480,o),
(249,490,o),
(292,490,cs),
(383,490,o),
(431,451,o),
(431,347,cs),
(431,242,o),
(382,204,o),
(287,204,cs),
(239,204,o),
(195,213,o),
(165,226,c),
(127,26,l)
);
}
);
};
layerId = "BFFFD157-90D3-4B85-B99D-9A2F366F03CA";
shapes = (
{
closed = 1;
nodes = (
(125,261,l),
(553,261,l),
(541,424,l),
(-10,424,l),
(84,521,l),
(54,464,o),
(35,379,o),
(35,295,cs),
(35,118,o),
(111,-13,o),
(344,-13,cs),
(591,-13,o),
(664,151,o),
(664,352,cs),
(664,626,o),
(517,711,o),
(299,711,cs),
(211,711,o),
(131,698,o),
(53,667,c),
(83,480,l),
(143,496,o),
(198,503,o),
(250,503,cs),
(329,503,o),
(439,488,o),
(439,328,cs),
(439,232,o),
(424,188,o),
(348,188,cs),
(286,188,o),
(260,219,o),
(260,284,cs),
(260,301,o),
(263,320,o),
(267,341,c)
);
}
);
width = 692;
},
{
associatedMasterId = "3E7589AA-8194-470F-8E2F-13C1C581BE24";
attr = {
coordinates = (
155
);
};
background = {
shapes = (
{
closed = 1;
nodes = (
(130,270,l),
(575,270,l),
(568,396,l),
(26,396,l),
(106,501,l),
(77,431,o),
(63,358,o),
(63,290,cs),
(63,118,o),
(134,-12,o),
(349,-12,cs),
(569,-12,o),
(655,137,o),
(655,354,cs),
(655,617,o),
(524,711,o),
(312,711,cs),
(228,711,o),
(149,696,o),
(74,665,c),
(98,529,l),
(160,550,o),
(227,561,o),
(288,561,cs),
(398,561,o),
(496,524,o),
(496,336,cs),
(496,207,o),
(463,135,o),
(355,135,cs),
(263,135,o),
(222,187,o),
(222,275,cs),
(222,294,o),
(224,315,o),
(229,337,c)
);
}
);
};
layerId = "8FFEE83F-4D5F-43AE-9670-509FF659BDB9";
name = "{155}";
shapes = (
{
closed = 1;
nodes = (
(129,263,l),
(573,263,l),
(566,405,l),
(25,405,l),
(105,501,l),
(75,431,o),
(61,358,o),
(61,290,cs),
(61,118,o),
(133,-12,o),
(347,-12,cs),
(563,-12,o),
(653,137,o),
(653,354,cs),
(653,617,o),
(517,711,o),
(312,711,cs),
(226,711,o),
(148,696,o),
(72,665,c),
(97,521,l),
(159,541,o),
(226,551,o),
(281,551,cs),
(397,551,o),
(495,506,o),
(495,336,cs),
(495,214,o),
(453,146,o),
(351,146,cs),
(265,146,o),
(220,195,o),
(220,278,cs),
(220,296,o),
(223,316,o),
(228,337,c)
);
}
);
width = 702;
},
{
layerId = "FA91A8E1-7324-47F6-AE85-AED49CFCD01C";
shapes = (
{
closed = 1;
nodes = (
(135,323,l),
(631,323,l),
(631,331,l),
(108,331,l),
(135,346,l),
(127,303,o),
(124,278,o),
(124,248,cs),
(124,103,o),
(194,-7,o),
(366,-7,cs),
(535,-7,o),
(636,97,o),
(636,352,cs),
(636,582,o),
(549,707,o),
(351,707,cs),
(266,707,o),
(203,685,o),
(151,663,c),
(152,655,l),
(209,680,o),
(277,699,o),
(352,699,cs),
(543,699,o),
(628,573,o),
(628,352,cs),
(628,101,o),
(529,1,o),
(367,1,cs),
(199,1,o),
(132,110,o),
(132,246,cs),
(132,273,o),
(135,299,o),
(140,328,c)
);
}
);
width = 721;
}
);
metricLeft = "=|G";
metricRight = O;
unicode = 399;
}
{
color = 4;
glyphname = Zstroke;
kernLeft = Z;
kernRight = Z;
layers = (
{
background = {
shapes = (
{
closed = 1;
nodes = (
(496,0,l),
(496,48,l),
(118,48,l),
(296,338,l),
(436,338,l),
(436,380,l),
(322,380,l),
(496,664,l),
(496,712,l),
(78,712,l),
(78,664,l),
(438,664,l),
(262,380,l),
(123,380,l),
(123,338,l),
(236,338,l),
(63,57,l),
(63,0,l)
);
}
);
};
layerId = "3E7589AA-8194-470F-8E2F-13C1C581BE24";
shapes = (
{
ref = Z;
},
{
pos = (75,80);
ref = strokelongcomb;
scale = (0.604,1);
}
);
width = 638;
},
{
background = {
shapes = (
{
closed = 1;
nodes = (
(513,0,l),
(513,156,l),
(239,156,l),
(328,293,l),
(439,293,l),
(439,427,l),
(416,427,l),
(513,576,l),
(513,712,l),
(42,712,l),
(42,556,l),
(303,556,l),
(219,427,l),
(109,427,l),
(109,293,l),
(132,293,l),
(30,136,l),
(30,0,l)
);
}
);
};
guides = (
{
pos = (219,427);
}
);
layerId = "BFFFD157-90D3-4B85-B99D-9A2F366F03CA";
shapes = (
{
ref = Z;
},
{
pos = (6,90);
ref = strokelongcomb;
scale = (0.675,1);
}
);
width = 586;
},
{
layerId = "FA91A8E1-7324-47F6-AE85-AED49CFCD01C";
shapes = (
{
ref = Z;
},
{
pos = (110,90);
ref = strokelongcomb;
scale = (0.554,1);
}
);
width = 649;
}
);
metricLeft = Z;
metricRight = Z;
unicode = 437;
}
{
color = 4;
glyphname = aeacute;
kernLeft = a;
kernRight = e;
layers = (
{
background = {
shapes = (
{
closed = 1;
nodes = (
(766,230,l),
(766,253,ls),
(766,401,o),
(694,488,o),
(573,488,cs),
(504,488,o),
(450,459,o),
(417,403,c),
(392,460,o),
(335,488,o),
(244,488,cs),
(165,488,o),
(115,471,o),
(74,414,c),
(111,382,l),
(142,426,o),
(176,443,o),
(244,443,cs),
(343,443,o),
(380,402,o),
(380,325,cs),
(380,271,l),
(224,271,ls),
(119,271,o),
(56,220,o),
(56,132,cs),
(56,96,o),
(68,61,o),
(91,38,cs),
(122,6,o),
(161,-6,o),
(233,-6,cs),
(322,-6,o),
(372,19,o),
(412,84,c),
(445,24,o),
(503,-6,o),
(584,-6,cs),
(664,-6,o),
(710,19,o),
(759,68,c),
(721,98,l),
(680,57,o),
(645,40,o),
(588,40,cs),
(485,40,o),
(431,107,o),
(431,230,c)
);
},
{
closed = 1;
nodes = (
(380,230,l),
(380,168,ls),
(380,124,o),
(371,93,o),
(353,76,cs),
(318,43,o),
(277,39,o),
(233,39,cs),
(145,39,o),
(107,69,o),
(107,133,cs),
(107,198,o),
(148,230,o),
(230,230,cs)
);
},
{
closed = 1;
nodes = (
(431,271,l),
(434,318,o),
(436,331,o),
(448,362,cs),
(468,414,o),
(517,443,o),
(573,443,cs),
(629,443,o),
(677,413,o),
(698,362,cs),
(711,333,o),
(712,317,o),
(715,271,c)
);
},
{
closed = 1;
nodes = (
(544,737,l),
(477,737,l),
(380,590,l),
(438,590,l)
);
}
);
};
layerId = "3E7589AA-8194-470F-8E2F-13C1C581BE24";
shapes = (
{
ref = ae;
},
{
pos = (242,0);
ref = acute;
}
);
width = 764;
},
{
background = {
shapes = (
{
closed = 1;
nodes = (
(802,216,l),
(802,284,ls),
(802,432,o),
(716,544,o),
(560,544,cs),
(504,544,o),
(455,529,o),
(416,499,c),
(377,529,o),
(320,544,o),
(246,544,cs),
(155,544,o),
(106,525,o),
(51,470,c),
(153,368,l),
(179,394,o),
(201,406,o),
(238,406,cs),
(295,406,o),
(319,388,o),
(319,339,cs),
(319,325,l),
(213,325,ls),
(82,325,o),
(27,250,o),
(27,169,cs),
(27,119,o),
(43,74,o),
(74,43,cs),
(105,12,o),
(149,-6,o),
(203,-6,cs),
(269,-6,o),
(322,-1,o),
(387,59,c),
(438,8,o),
(509,-6,o),
(575,-6,cs),
(675,-6,o),
(729,24,o),
(784,79,c),
(686,177,l),
(657,148,o),
(632,132,o),
(575,132,cs),
(514,132,o),
(480,172,o),
(480,216,c)
);
},
{
closed = 1;
nodes = (
(480,325,l),
(480,338,o),
(482,352,o),
(489,367,cs),
(499,389,o),
(521,409,o),
(560,409,cs),
(599,409,o),
(621,389,o),
(631,367,cs),
(638,352,o),
(640,338,o),
(640,325,c)
);
},
{
closed = 1;
nodes = (
(319,202,ls),
(319,174,o),
(315,159,o),
(302,147,cs),
(285,132,o),
(270,128,o),
(243,128,cs),
(203,128,o),
(184,147,o),
(184,172,cs),
(184,199,o),
(203,216,o),
(241,216,cs),
(319,216,l)
);
},
{
closed = 1;
nodes = (
(536,790,l),
(383,790,l),
(318,610,l),
(435,610,l)
);
}
);
};
layerId = "BFFFD157-90D3-4B85-B99D-9A2F366F03CA";
shapes = (
{
ref = ae;
},
{
pos = (192,0);
ref = acute;
}
);
width = 712;
},
{
layerId = "FA91A8E1-7324-47F6-AE85-AED49CFCD01C";
shapes = (
{
ref = ae;
},
{
pos = (279,0);
ref = acute;
}
);
width = 751;
}
);
unicode = 509;
}
{
glyphname = jdotless;
kernLeft = j;
kernRight = j;
layers = (
{
anchors = (
{
name = bottom;
pos = (146,0);
},
{
name = ogonek;
pos = (191,0);
},
{
name = top;
pos = (146,480);
}
);
background = {
shapes = (
{
closed = 1;
nodes = (
(227,293,o),
(193,180,o),
(147,86,c),
(139,86,l),
(17,480,l),
(-79,480,l),
(77,0,l),
(39,-50,o),
(-20,-97,o),
(-77,-134,c),
(-31,-212,l),
(49,-159,o),
(123,-94,o),
(181,-6,cs),
(263,119,o),
(313,269,o),
(347,480,c),
(257,480,l)
);
}
);
};
hints = (
{
horizontal = 1;
origin = (0,0);
type = TTSnap;
},
{
horizontal = 1;
origin = (0,6);
type = TTSnap;
}
);
layerId = "3E7589AA-8194-470F-8E2F-13C1C581BE24";
shapes = (
{
closed = 1;
nodes = (
(191,480,l),
(101,480,l),
(101,70,ls),
(101,-52,o),
(62,-90,o),
(-36,-126,c),
(-1,-209,l),
(124,-155,o),
(191,-90,o),
(191,70,cs)
);
}
);
width = 266;
},
{
anchors = (
{
name = bottom;
pos = (166,0);
},
{
name = ogonek;
pos = (276,0);
},
{
name = top;
pos = (166,490);
}
);
background = {
shapes = (
{
closed = 1;
nodes = (
(232,344,o),
(221,251,o),
(208,159,c),
(201,159,l),
(158,490,l),
(-74,490,l),
(39,0,l),
(10,-10,o),
(-26,-19,o),
(-59,-24,c),
(-28,-212,l),
(90,-194,o),
(173,-154,o),
(233,-102,cs),
(371,14,o),
(425,207,o),
(449,490,c),
(234,490,l)
);
}
);
};
layerId = "BFFFD157-90D3-4B85-B99D-9A2F366F03CA";
shapes = (
{
closed = 1;
nodes = (
(276,490,l),
(56,490,l),
(56,67,ls),
(56,5,o),
(43,-16,o),
(-46,-35,c),
(-8,-212,l),
(209,-187,o),
(276,-75,o),
(276,90,cs)
);
}
);
width = 308;
},
{
anchors = (
{
name = bottom;
pos = (132,0);
},
{
name = ogonek;
pos = (135,0);
},
{
name = top;
pos = (132,468);
}
);
layerId = "FA91A8E1-7324-47F6-AE85-AED49CFCD01C";
shapes = (
{
closed = 1;
nodes = (
(135,468,l),
(128,468,l),
(128,42,ls),
(128,-104,o),
(86,-160,o),
(-32,-201,c),
(-29,-207,l),
(91,-166,o),
(135,-108,o),
(135,45,cs)
);
}
);
width = 233;
}
);
metricRight = "=|m";
unicode = 567;
}
{
glyphname = acutecomb;
layers = (
{
anchors = (
{
name = _top;
pos = (127,480);
},
{
name = top;
pos = (127,670);
}
);
hints = (
{
horizontal = 1;
origin = (0,0);
type = TTSnap;
},
{
horizontal = 1;
origin = (0,2);
type = TTSnap;
}
);
layerId = "3E7589AA-8194-470F-8E2F-13C1C581BE24";
shapes = (
{
closed = 1;
nodes = (
(168,710,l),
(50,571,l),
(147,571,l),
(287,710,l)
);
}
);
width = 337;
},
{
anchors = (
{
name = _top;
pos = (161,490);
},
{
name = top;
pos = (161,700);
}
);
background = {
shapes = (
{
closed = 1;
nodes = (
(144,720,l),
(26,551,l),
(242,551,l),
(412,720,l)
);
}
);
};
layerId = "BFFFD157-90D3-4B85-B99D-9A2F366F03CA";
shapes = (
{
closed = 1;
nodes = (
(128,720,l),
(50,551,l),
(236,551,l),
(366,720,l)
);
}
);
width = 416;
},
{
anchors = (
{
name = _top;
pos = (74,468);
},
{
name = top;
pos = (74,613);
}
);
layerId = "FA91A8E1-7324-47F6-AE85-AED49CFCD01C";
shapes = (
{
closed = 1;
nodes = (
(178,688,l),
(50,559,l),
(59,559,l),
(189,688,l)
);
}
);
width = 239;
}
);
metricLeft = "=50";
metricRight = "=50";
unicode = 769;
}
{
glyphname = circumflexcomb;
layers = (
{
anchors = (
{
name = _top;
pos = (223,480);
},
{
name = top;
pos = (224,660);
}
);
background = {
shapes = (
{
closed = 1;
nodes = (
(289,700,l),
(162,700,l),
(50,571,l),
(150,571,l),
(223,646,l),
(294,571,l),
(397,571,l)
);
}
);
};
hints = (
{
horizontal = 1;
origin = (0,1);
type = TTSnap;
},
{
horizontal = 1;
origin = (0,3);
type = TTSnap;
}
);
layerId = "3E7589AA-8194-470F-8E2F-13C1C581BE24";
shapes = (
{
closed = 1;
nodes = (
(279,710,l),
(172,710,l),
(50,571,l),
(150,571,l),
(223,646,l),
(294,571,l),
(397,571,l)
);
}
);
width = 447;
},
{
anchors = (
{
name = _top;
pos = (245,490);
},
{
name = top;
pos = (245,700);
}
);
background = {
shapes = (
{
closed = 1;
nodes = (
(358,720,l),
(136,720,l),
(50,550,l),
(167,550,l),
(243,618,l),
(317,550,l),
(439,550,l)
);
}
);
};
layerId = "BFFFD157-90D3-4B85-B99D-9A2F366F03CA";
shapes = (
{
closed = 1;
nodes = (
(358,720,l),
(136,720,l),
(50,550,l),
(167,550,l),
(243,618,l),
(317,550,l),
(439,550,l)
);
}
);
width = 489;
},
{
anchors = (
{
name = _top;
pos = (187,468);
},
{
name = top;
pos = (188,640);
}
);
layerId = "FA91A8E1-7324-47F6-AE85-AED49CFCD01C";
shapes = (
{
closed = 1;
nodes = (
(189,688,l),
(186,688,l),
(50,559,l),
(59,559,l),
(187,680,l),
(313,559,l),
(322,559,l)
);
}
);
width = 372;
}
);
metricLeft = "=50";
metricRight = "=50";
unicode = 770;
}
{
glyphname = macroncomb;
layers = (
{
anchors = (
{
name = _center;
pos = (222,625);
},
{
name = _top;
pos = (222,480);
},
{
name = top;
pos = (222,639);
}
);
background = {
shapes = (
{
closed = 1;
nodes = (
(156,571,l),
(283,571,l),
(395,700,l),
(295,700,l),
(222,625,l),
(151,700,l),
(48,700,l)
);
}
);
};
hints = (
{
horizontal = 1;
origin = (0,1);
type = TTSnap;
},
{
horizontal = 1;
origin = (0,2);
type = TTSnap;
}
);
layerId = "3E7589AA-8194-470F-8E2F-13C1C581BE24";
shapes = (
{
closed = 1;
nodes = (
(50,586,l),
(393,586,l),
(393,667,l),
(50,667,l)
);
}
);
width = 443;
},
{
anchors = (
{
name = _center;
pos = (240,628);
},
{
name = _top;
pos = (239,490);
},
{
name = top;
pos = (239,670);
}
);
background = {
shapes = (
{
closed = 1;
nodes = (
(125,550,l),
(347,550,l),
(467,720,l),
(316,720,l),
(240,652,l),
(166,720,l),
(10,720,l)
);
}
);
};
layerId = "BFFFD157-90D3-4B85-B99D-9A2F366F03CA";
shapes = (
{
closed = 1;
nodes = (
(50,563,l),
(428,563,l),
(428,700,l),
(50,700,l)
);
}
);
width = 478;
},
{
anchors = (
{
name = _center;
pos = (183,629);
},
{
name = _top;
pos = (182,468);
},
{
name = top;
pos = (182,583);
}
);
layerId = "FA91A8E1-7324-47F6-AE85-AED49CFCD01C";
shapes = (
{
closed = 1;
nodes = (
(50,625,l),
(313,625,l),
(313,632,l),
(50,632,l)
);
}
);
width = 363;
}
);
metricLeft = "=50";
metricRight = "=50";
unicode = 772;
}
{
glyphname = dotaccentcomb;
kernLeft = dotaccent;
kernRight = dotaccent;
layers = (
{
anchors = (
{
name = _top;
pos = (167,490);
},
{
name = top;
pos = (167,760);
}
);
background = {
shapes = (
{
closed = 1;
nodes = (
(56,780,l),
(56,556,l),
(276,556,l),
(276,780,l)
);
}
);
};
layerId = "BFFFD157-90D3-4B85-B99D-9A2F366F03CA";
shapes = (
{
closed = 1;
nodes = (
(244,541,o),
(282,580,o),
(282,659,cs),
(282,737,o),
(244,775,o),
(167,775,cs),
(88,775,o),
(50,737,o),
(50,659,cs),
(50,580,o),
(88,541,o),
(167,541,cs)
);
}
);
width = 332;
},
{
anchors = (
{
name = _top;
pos = (109,480);
},
{
name = top;
pos = (109,670);
}
);
background = {
shapes = (
{
closed = 1;
nodes = (
(61,700,l),
(61,601,l),
(158,601,l),
(158,700,l)
);
}
);
};
hints = (
{
horizontal = 1;
place = (601, 0);
type = TTSnap;
},
{
horizontal = 1;
place = (700, 0);
type = TTSnap;
}
);
layerId = "3E7589AA-8194-470F-8E2F-13C1C581BE24";
shapes = (
{
closed = 1;
nodes = (
(150,591,o),
(169,611,o),
(169,651,cs),
(169,691,o),
(150,710,o),
(110,710,cs),
(70,710,o),
(50,691,o),
(50,651,cs),
(50,611,o),
(70,591,o),
(110,591,cs)
);
}
);
width = 219;
},
{
anchors = (
{
name = _top;
pos = (64,468);
},
{
name = top;
pos = (64,623);
}
);
background = {
shapes = (
{
closed = 1;
nodes = (
(54,643,l),
(54,623,l),
(75,623,l),
(75,643,l)
);
}
);
};
layerId = "FA91A8E1-7324-47F6-AE85-AED49CFCD01C";
shapes = (
{
closed = 1;
nodes = (
(73,628,o),
(78,633,o),
(78,643,cs),
(78,653,o),
(73,658,o),
(64,658,cs),
(55,658,o),
(50,653,o),
(50,643,cs),
(50,633,o),
(55,628,o),
(64,628,cs)
);
}
);
width = 128;
}
);
metricLeft = "=50";
metricRight = "=50";
unicode = 775;
}
{
glyphname = hookabovecomb;
layers = (
{
anchors = (
{
name = _top;
pos = (164,490);
},
{
name = top;
pos = (164,781);
}
);
background = {
shapes = (
{
closed = 1;
nodes = (
(250,576,o),
(302,618,o),
(302,687,cs),
(302,761,o),
(241,797,o),
(163,797,cs),
(69,797,o),
(10,750,o),
(10,654,c),
(121,653,l),
(121,667,o),
(126,679,o),
(144,679,cs),
(156,679,o),
(165,674,o),
(165,662,cs),
(165,643,o),
(146,635,o),
(111,618,c),
(154,527,l)
);
}
);
};
hints = (
{
horizontal = 1;
options = 4;
origin = (0,12);
stem = -1;
target = (0,5);
type = TTStem;
},
{
horizontal = 1;
origin = (0,19);
type = TTSnap;
}
);
layerId = "3E7589AA-8194-470F-8E2F-13C1C581BE24";
shapes = (
{
closed = 1;
nodes = (
(236,592,o),
(278,631,o),
(278,689,cs),
(278,750,o),
(233,781,o),
(166,781,cs),
(94,781,o),
(50,751,o),
(50,671,c),
(119,671,l),
(119,694,o),
(133,711,o),
(162,711,cs),
(187,711,o),
(202,698,o),
(202,679,cs),
(202,652,o),
(173,629,o),
(126,609,c),
(157,555,l)
);
}
);
width = 328;
},
{
anchors = (
{
name = _top;
pos = (204,490);
},
{
name = top;
pos = (196,770);
}
);
layerId = "BFFFD157-90D3-4B85-B99D-9A2F366F03CA";
shapes = (
{
closed = 1;
nodes = (
(290,570,o),
(342,616,o),
(342,685,cs),
(342,759,o),
(281,797,o),
(203,797,cs),
(114,797,o),
(50,750,o),
(50,654,c),
(161,653,l),
(161,667,o),
(166,679,o),
(184,679,cs),
(196,679,o),
(205,674,o),
(205,661,cs),
(205,643,o),
(188,632,o),
(151,618,c),
(194,527,l)
);
}
);
width = 392;
},
{
anchors = (
{
name = _top;
pos = (111,468);
},
{
name = top;
pos = (112,724);
}
);
layerId = "FA91A8E1-7324-47F6-AE85-AED49CFCD01C";
shapes = (
{
closed = 1;
nodes = (
(142,584,o),
(166,618,o),
(166,658,cs),
(166,693,o),
(148,721,o),
(108,721,cs),
(74,721,o),
(50,700,o),
(50,656,c),
(57,656,l),
(57,696,o),
(79,714,o),
(108,714,cs),
(144,714,o),
(159,688,o),
(159,658,cs),
(159,621,o),
(136,587,o),
(86,556,c),
(91,551,l)
);
}
);
width = 216;
}
);
metricLeft = "=50";
metricRight = "=50";
unicode = 777;
}
{
glyphname = hungarumlautcomb;
layers = (
{
anchors = (
{
name = _top;
pos = (228,480);
},
{
name = top;
pos = (228,670);
}
);
background = {
shapes = (
{
closed = 1;
nodes = (
(118,710,l),
(7,580,l),
(11,571,l),
(107,571,l),
(238,701,l),
(232,710,l)
);
},
{
closed = 1;
nodes = (
(325,710,l),
(214,580,l),
(218,571,l),
(314,571,l),
(445,701,l),
(439,710,l)
);
}
);
};
hints = (
{
horizontal = 1;
origin = (0,0);
type = TTSnap;
},
{
horizontal = 1;
origin = (0,2);
type = TTSnap;
},
{
horizontal = 1;
origin = (1,0);
type = TTSnap;
},
{
horizontal = 1;
origin = (1,2);
type = TTSnap;
}
);
layerId = "3E7589AA-8194-470F-8E2F-13C1C581BE24";
shapes = (
{
closed = 1;
nodes = (
(138,710,l),
(50,571,l),
(157,571,l),
(267,710,l)
);
},
{
closed = 1;
nodes = (
(338,710,l),
(250,571,l),
(357,571,l),
(467,710,l)
);
}
);
width = 517;
},
{
anchors = (
{
name = _top;
pos = (267,490);
},
{
name = top;
pos = (267,700);
}
);
background = {
shapes = (
{
closed = 1;
nodes = (
(34,720,l),
(-64,562,l),
(-60,551,l),
(142,551,l),
(266,705,l),
(259,720,l)
);
},
{
closed = 1;
nodes = (
(334,720,l),
(216,562,l),
(220,551,l),
(422,551,l),
(566,705,l),
(559,720,l)
);
}
);
};
layerId = "BFFFD157-90D3-4B85-B99D-9A2F366F03CA";
shapes = (
{
closed = 1;
nodes = (
(108,720,l),
(50,551,l),
(226,551,l),
(306,720,l)
);
},
{
closed = 1;
nodes = (
(349,720,l),
(271,551,l),
(447,551,l),
(547,720,l)
);
}
);
width = 597;
},
{
anchors = (
{
name = _top;
pos = (142,468);
},
{
name = top;
pos = (142,638);
}
);
layerId = "FA91A8E1-7324-47F6-AE85-AED49CFCD01C";
shapes = (
{
closed = 1;
nodes = (
(148,688,l),
(50,559,l),
(57,559,l),
(158,688,l)
);
},
{
closed = 1;
nodes = (
(301,688,l),
(203,559,l),
(211,559,l),
(311,688,l)
);
}
);
width = 361;
}
);
metricLeft = "=50";
metricRight = "=50";
unicode = 779;
}
{
glyphname = caroncomb;
layers = (
{
anchors = (
{
name = _top;
pos = (223,480);
},
{
name = top;
pos = (224,660);
}
);
hints = (
{
horizontal = 1;
origin = (0,0);
type = TTSnap;
},
{
horizontal = 1;
origin = (0,5);
type = TTSnap;
}
);
layerId = "3E7589AA-8194-470F-8E2F-13C1C581BE24";
shapes = (
{
closed = 1;
nodes = (
(168,571,l),
(275,571,l),
(397,710,l),
(297,710,l),
(224,635,l),
(153,710,l),
(50,710,l)
);
}
);
width = 447;
},
{
anchors = (
{
name = _top;
pos = (245,490);
},
{
name = top;
pos = (245,690);
}
);
layerId = "BFFFD157-90D3-4B85-B99D-9A2F366F03CA";
shapes = (
{
closed = 1;
nodes = (
(131,550,l),
(353,550,l),
(439,720,l),
(322,720,l),
(246,652,l),
(172,720,l),
(50,720,l)
);
}
);
width = 489;
},
{
anchors = (
{
name = _top;
pos = (187,468);
},
{
name = top;
pos = (188,618);
}
);
layerId = "FA91A8E1-7324-47F6-AE85-AED49CFCD01C";
shapes = (
{
closed = 1;
nodes = (
(184,559,l),
(188,559,l),
(323,688,l),
(314,688,l),
(186,567,l),
(59,688,l),
(50,688,l)
);
}
);
width = 373;
}
);
metricLeft = "=50";
metricRight = "=50";
unicode = 780;
}
{
glyphname = breveinvertedcomb;
layers = (
{
anchors = (
{
name = _top;
pos = (203,480);
},
{
name = top;
pos = (203,671);
}
);
hints = (
{
horizontal = 1;
options = 4;
origin = (0,0);
target = (0,3);
type = TTStem;
},
{
horizontal = 1;
options = 4;
origin = (0,10);
stem = 0;
target = (0,3);
type = TTStem;
},
{
horizontal = 1;
options = 4;
origin = (0,0);
target = (0,6);
type = TTShift;
}
);
layerId = "3E7589AA-8194-470F-8E2F-13C1C581BE24";
shapes = (
{
closed = 1;
nodes = (
(126,568,l),
(126,607,o),
(154,629,o),
(202,629,cs),
(251,629,o),
(279,607,o),
(279,568,c),
(355,568,l),
(355,653,o),
(299,701,o),
(201,701,cs),
(105,701,o),
(50,653,o),
(50,568,c)
);
}
);
width = 405;
},
{
anchors = (
{
name = _top;
pos = (254,490);
},
{
name = top;
pos = (254,691);
}
);
background = {
shapes = (
{
closed = 1;
nodes = (
(187,543,l),
(187,575,o),
(206,589,o),
(253,589,cs),
(301,589,o),
(321,575,o),
(321,543,c),
(458,543,l),
(458,669,o),
(400,721,o),
(255,721,cs),
(112,721,o),
(50,669,o),
(50,543,c)
);
}
);
};
layerId = "BFFFD157-90D3-4B85-B99D-9A2F366F03CA";
shapes = (
{
closed = 1;
nodes = (
(198,543,l),
(198,575,o),
(214,589,o),
(253,589,cs),
(293,589,o),
(310,575,o),
(310,543,c),
(458,543,l),
(458,669,o),
(400,721,o),
(255,721,cs),
(112,721,o),
(50,669,o),
(50,543,c)
);
}
);
width = 508;
},
{
anchors = (
{
name = _top;
pos = (171,468);
},
{
name = top;
pos = (171,636);
}
);
layerId = "FA91A8E1-7324-47F6-AE85-AED49CFCD01C";
shapes = (
{
closed = 1;
nodes = (
(57,560,l),
(57,635,o),
(99,681,o),
(171,681,cs),
(245,681,o),
(288,636,o),
(288,560,c),
(294,560,l),
(294,641,o),
(250,687,o),
(171,687,cs),
(95,687,o),
(50,641,o),
(50,560,c)
);
}
);
width = 344;
}
);
metricLeft = "=50";
metricRight = "=50";
unicode = 785;
}
{
glyphname = commaturnedabovecomb;
layers = (
{
anchors = (
{
name = _top;
pos = (99,480);
},
{
name = top;
pos = (99,755);
}
);
hints = (
{
horizontal = 1;
origin = (0,4);
type = TTSnap;
},
{
horizontal = 1;
origin = (0,9);
type = TTSnap;
}
);
layerId = "3E7589AA-8194-470F-8E2F-13C1C581BE24";
shapes = (
{
closed = 1;
nodes = (
(81,740,o),
(50,695,o),
(50,612,cs),
(50,546,l),
(133,546,l),
(133,611,ls),
(133,658,o),
(148,679,o),
(208,686,c),
(189,755,l)
);
}
);
width = 258;
},
{
anchors = (
{
name = _top;
pos = (130,490);
},
{
name = top;
pos = (130,798);
}
);
layerId = "BFFFD157-90D3-4B85-B99D-9A2F366F03CA";
shapes = (
{
closed = 1;
nodes = (
(98,773,o),
(50,716,o),
(50,594,cs),
(50,539,l),
(198,539,l),
(198,585,ls),
(198,649,o),
(213,661,o),
(260,668,c),
(230,788,l)
);
}
);
width = 310;
},
{
anchors = (
{
name = _top;
pos = (58,468);
},
{
name = top;
pos = (58,741);
}
);
layerId = "FA91A8E1-7324-47F6-AE85-AED49CFCD01C";
shapes = (
{
closed = 1;
nodes = (
(63,726,o),
(50,689,o),
(50,629,cs),
(50,537,l),
(57,537,l),
(57,627,ls),
(57,686,o),
(69,721,o),
(123,735,c),
(122,741,l)
);
}
);
width = 173;
}
);
metricLeft = "=50";
metricRight = "=50";
unicode = 786;
}
{
glyphname = ringhalfleftbelowcomb;
layers = (
{
anchors = (
{
name = _bottom;
pos = (117,0);
},
{
name = bottom;
pos = (117,-260);
}
);
hints = (
{
horizontal = 1;
options = 4;
origin = (0,0);
stem = -1;
target = (0,13);
type = TTStem;
},
{
horizontal = 1;
options = 4;
origin = (0,6);
stem = -1;
target = (0,7);
type = TTStem;
}
);
layerId = "3E7589AA-8194-470F-8E2F-13C1C581BE24";
shapes = (
{
closed = 1;
nodes = (
(183,-193,l),
(144,-193,o),
(122,-180,o),
(122,-158,cs),
(122,-135,o),
(144,-122,o),
(183,-122,c),
(183,-55,l),
(98,-55,o),
(50,-93,o),
(50,-159,cs),
(50,-223,o),
(98,-260,o),
(183,-260,c)
);
}
);
width = 233;
},
{
anchors = (
{
name = _bottom;
pos = (139,0);
},
{
name = bottom;
pos = (139,-260);
}
);
layerId = "BFFFD157-90D3-4B85-B99D-9A2F366F03CA";
shapes = (
{
closed = 1;
nodes = (
(228,-165,l),
(196,-165,o),
(182,-160,o),
(182,-146,cs),
(182,-131,o),
(196,-126,o),
(228,-126,c),
(228,-30,l),
(102,-30,o),
(50,-63,o),
(50,-145,cs),
(50,-225,o),
(102,-260,o),
(228,-260,c)
);
}
);
width = 278;
},
{
anchors = (
{
name = _bottom;
pos = (88,0);
},
{
name = bottom;
pos = (88,-230);
}
);
layerId = "FA91A8E1-7324-47F6-AE85-AED49CFCD01C";
shapes = (
{
closed = 1;
nodes = (
(125,-224,l),
(82,-224,o),
(57,-197,o),
(57,-153,cs),
(57,-109,o),
(82,-81,o),
(125,-81,c),
(125,-75,l),
(77,-75,o),
(50,-104,o),
(50,-153,cs),
(50,-201,o),
(77,-230,o),
(125,-230,c)
);
}
);
width = 175;
}
);
metricLeft = "=50";
metricRight = "=50";
unicode = 796;
}
{
glyphname = dotbelowcomb;
layers = (
{
anchors = (
{
name = _bottom;
pos = (107,0);
},
{
name = bottom;
pos = (107,-187);
}
);
background = {
shapes = (
{
closed = 1;
nodes = (
(61,-86,l),
(61,-185,l),
(158,-185,l),
(158,-86,l)
);
}
);
};
hints = (
{
horizontal = 1;
place = (-185, 0);
type = TTSnap;
},
{
horizontal = 1;
place = (-86, 0);
type = TTSnap;
}
);
layerId = "3E7589AA-8194-470F-8E2F-13C1C581BE24";
shapes = (
{
closed = 1;
nodes = (
(150,-190,o),
(169,-170,o),
(169,-130,cs),
(169,-90,o),
(150,-71,o),
(110,-71,cs),
(70,-71,o),
(50,-90,o),
(50,-130,cs),
(50,-170,o),
(70,-190,o),
(110,-190,cs)
);
}
);
width = 219;
},
{
anchors = (
{
name = _bottom;
pos = (172,0);
},
{
name = bottom;
pos = (172,-269);
}
);
background = {
shapes = (
{
closed = 1;
nodes = (
(83,-53,l),
(83,-233,l),
(261,-233,l),
(261,-53,l)
);
}
);
};
layerId = "BFFFD157-90D3-4B85-B99D-9A2F366F03CA";
shapes = (
{
closed = 1;
nodes = (
(254,-296,o),
(294,-255,o),
(294,-172,cs),
(294,-90,o),
(254,-50,o),
(173,-50,cs),
(90,-50,o),
(50,-90,o),
(50,-172,cs),
(50,-255,o),
(90,-296,o),
(173,-296,cs)
);
}
);
width = 344;
},
{
anchors = (
{
name = _bottom;
pos = (64,0);
},
{
name = bottom;
pos = (64,-151);
}
);
background = {
shapes = (
{
closed = 1;
nodes = (
(54,-132,l),
(54,-151,l),
(73,-151,l),
(73,-132,l)
);
}
);
};
layerId = "FA91A8E1-7324-47F6-AE85-AED49CFCD01C";
shapes = (
{
closed = 1;
nodes = (
(73,-147,o),
(78,-142,o),
(78,-132,cs),
(78,-122,o),
(73,-117,o),
(64,-117,cs),
(55,-117,o),
(50,-122,o),
(50,-132,cs),
(50,-142,o),
(55,-147,o),
(64,-147,cs)
);
}
);
width = 128;
}
);
metricLeft = "=50";
metricRight = "=50";
unicode = 803;
}
{
glyphname = cedillacomb;
layers = (
{
anchors = (
{
name = _bottom;
pos = (127,0);
},
{
name = bottom;
pos = (167,-204);
}
);
hints = (
{
horizontal = 1;
options = 4;
place = (0, 0);
type = TTSnap;
},
{
horizontal = 1;
options = 4;
place = (0, 0);
type = TTStem;
},
{
horizontal = 1;
options = 4;
origin = (0,22);
stem = -1;
target = (0,3);
type = TTStem;
},
{
horizontal = 1;
options = 4;
origin = (0,3);
stem = -1;
target = (0,9);
type = TTStem;
},
{
horizontal = 1;
options = 4;
origin = (0,9);
stem = -1;
target = (0,16);
type = TTStem;
}
);
layerId = "3E7589AA-8194-470F-8E2F-13C1C581BE24";
shapes = (
{
closed = 1;
nodes = (
(68,-117,l),
(87,-115,o),
(106,-113,o),
(121,-113,cs),
(144,-113,o),
(164,-117,o),
(164,-136,cs),
(164,-156,o),
(144,-161,o),
(124,-161,cs),
(103,-161,o),
(80,-157,o),
(53,-150,c),
(50,-202,l),
(72,-215,o),
(97,-220,o),
(129,-220,cs),
(168,-220,o),
(231,-196,o),
(231,-127,cs),
(231,-72,o),
(190,-56,o),
(148,-56,cs),
(133,-56,o),
(113,-58,o),
(97,-62,c),
(137,-95,l),
(153,22,l),
(87,23,l)
);
}
);
width = 281;
},
{
anchors = (
{
name = _bottom;
pos = (160,0);
},
{
name = bottom;
pos = (160,-260);
}
);
background = {
shapes = (
{
closed = 1;
nodes = (
(64,-135,l),
(81,-134,o),
(97,-132,o),
(110,-132,cs),
(131,-132,o),
(147,-135,o),
(147,-151,cs),
(147,-168,o),
(131,-173,o),
(113,-173,cs),
(94,-173,o),
(75,-170,o),
(52,-164,c),
(43,-245,l),
(75,-262,o),
(109,-270,o),
(153,-270,cs),
(208,-270,o),
(296,-236,o),
(296,-140,cs),
(296,-63,o),
(239,-40,o),
(180,-40,cs),
(159,-40,o),
(131,-44,o),
(109,-50,c),
(198,-116,l),
(215,22,l),
(86,23,l)
);
}
);
};
layerId = "BFFFD157-90D3-4B85-B99D-9A2F366F03CA";
shapes = (
{
closed = 1;
nodes = (
(71,-126,l),
(88,-125,o),
(104,-123,o),
(117,-123,cs),
(138,-123,o),
(154,-126,o),
(154,-142,cs),
(154,-159,o),
(138,-164,o),
(120,-164,cs),
(101,-164,o),
(82,-161,o),
(59,-155,c),
(50,-236,l),
(82,-253,o),
(116,-260,o),
(160,-260,cs),
(215,-260,o),
(303,-227,o),
(303,-131,cs),
(303,-54,o),
(246,-31,o),
(187,-31,cs),
(166,-31,o),
(138,-35,o),
(116,-41,c),
(205,-107,l),
(219,62,l),
(90,63,l)
);
}
);
width = 353;
},
{
anchors = (
{
name = _bottom;
pos = (94,0);
},
{
name = bottom;
pos = (131,-204);
}
);
layerId = "FA91A8E1-7324-47F6-AE85-AED49CFCD01C";
shapes = (
{
closed = 1;
nodes = (
(76,-96,l),
(89,-93,o),
(109,-88,o),
(132,-88,cs),
(170,-88,o),
(204,-97,o),
(204,-140,cs),
(204,-185,o),
(160,-197,o),
(126,-197,cs),
(97,-197,o),
(73,-190,o),
(52,-176,c),
(50,-182,l),
(70,-195,o),
(94,-203,o),
(126,-203,cs),
(163,-203,o),
(210,-188,o),
(210,-140,cs),
(210,-93,o),
(173,-81,o),
(132,-81,cs),
(116,-81,o),
(98,-83,o),
(79,-88,c),
(83,-91,l),
(96,0,l),
(90,1,l)
);
}
);
width = 260;
}
);
metricLeft = "=50";
metricRight = "=50";
unicode = 807;
}
{
glyphname = strokeshortcomb;
layers = (
{
anchors = (
{
name = _center;
pos = (215,264);
},
{
name = _stroke;
pos = (215,264);
}
);
hints = (
{
horizontal = 1;
origin = (0,2);
type = TTSnap;
},
{
horizontal = 1;
origin = (0,3);
type = TTSnap;
}
);
layerId = "3E7589AA-8194-470F-8E2F-13C1C581BE24";
shapes = (
{
closed = 1;
nodes = (
(50,307,l),
(50,224,l),
(380,224,l),
(380,307,l)
);
}
);
width = 430;
},
{
anchors = (
{
name = _center;
pos = (240,266);
},
{
name = _stroke;
pos = (240,266);
}
);
layerId = "BFFFD157-90D3-4B85-B99D-9A2F366F03CA";
shapes = (
{
closed = 1;
nodes = (
(50,351,l),
(50,181,l),
(430,181,l),
(430,351,l)
);
}
);
width = 480;
},
{
anchors = (
{
name = _center;
pos = (204,262);
},
{
name = _stroke;
pos = (204,262);
}
);
layerId = "FA91A8E1-7324-47F6-AE85-AED49CFCD01C";
shapes = (
{
closed = 1;
nodes = (
(50,266,l),
(50,259,l),
(358,259,l),
(358,266,l)
);
}
);
width = 408;
}
);
metricLeft = "=50";
metricRight = "=50";
unicode = 821;
}
{
glyphname = ypogegrammenicomb;
layers = (
{
anchors = (
{
name = _bottom;
pos = (54,0);
},
{
name = bottom;
pos = (54,-237);
}
);
layerId = "FA91A8E1-7324-47F6-AE85-AED49CFCD01C";
shapes = (
{
closed = 1;
nodes = (
(128,-230,l),
(75,-215,o),
(58,-188,o),
(58,-139,cs),
(58,-54,l),
(50,-54,l),
(50,-137,ls),
(50,-185,o),
(66,-221,o),
(125,-237,c)
);
}
);
width = 178;
},
{
anchors = (
{
name = _bottom;
pos = (94,0);
},
{
name = bottom;
pos = (94,-260);
}
);
layerId = "3E7589AA-8194-470F-8E2F-13C1C581BE24";
shapes = (
{
closed = 1;
nodes = (
(212,-174,l),
(152,-167,o),
(137,-146,o),
(137,-107,cs),
(137,-62,l),
(50,-62,l),
(50,-109,ls),
(50,-197,o),
(80,-244,o),
(193,-260,c)
);
}
);
width = 262;
},
{
anchors = (
{
name = _bottom;
pos = (129,0);
},
{
name = bottom;
pos = (129,-289);
}
);
layerId = "BFFFD157-90D3-4B85-B99D-9A2F366F03CA";
shapes = (
{
closed = 1;
nodes = (
(258,-137,l),
(224,-128,o),
(208,-118,o),
(208,-81,cs),
(208,-31,l),
(50,-31,l),
(50,-119,ls),
(50,-232,o),
(120,-276,o),
(202,-282,c)
);
}
);
width = 308;
}
);
metricLeft = "=50";
metricRight = "=50";
unicode = 837;
}
{
glyphname = tonos;
layers = (
{
anchors = (
{
name = _tonos;
pos = (107,700);
},
{
name = _top;
pos = (74,468);
},
{
name = top;
pos = (74,700);
}
);
layerId = "FA91A8E1-7324-47F6-AE85-AED49CFCD01C";
shapes = (
{
closed = 1;
nodes = (
(97,700,l),
(69,559,l),
(75,559,l),
(107,700,l)
);
}
);
width = 600;
},
{
anchors = (
{
name = _tonos;
pos = (230,750);
},
{
name = _top;
pos = (127,480);
},
{
name = top;
pos = (127,750);
}
);
hints = (
{
horizontal = 1;
origin = (0,0);
type = TTSnap;
},
{
horizontal = 1;
origin = (0,2);
type = TTSnap;
}
);
layerId = "3E7589AA-8194-470F-8E2F-13C1C581BE24";
shapes = (
{
closed = 1;
nodes = (
(121,750,l),
(80,571,l),
(167,571,l),
(230,750,l)
);
}
);
width = 600;
},
{
anchors = (
{
name = _tonos;
pos = (326,750);
},
{
name = _top;
pos = (161,490);
},
{
name = top;
pos = (161,750);
}
);
layerId = "BFFFD157-90D3-4B85-B99D-9A2F366F03CA";
shapes = (
{
closed = 1;
nodes = (
(88,750,l),
(60,551,l),
(246,551,l),
(326,750,l)
);
}
);
width = 600;
}
);
unicode = 900;
}
{
glyphname = Gamma;
kernRight = Gamma.sc;
layers = (
{
anchors = (
{
name = stroke;
pos = (188,368);
},
{
name = top;
pos = (303,700);
}
);
background = {
shapes = (
{
closed = 1;
nodes = (
(127,700,l),
(119,700,l),
(119,0,l),
(127,0,l)
);
},
{
closed = 1;
nodes = (
(126,700,l),
(125,692,l),
(505,692,l),
(505,700,l)
);
}
);
};
layerId = "FA91A8E1-7324-47F6-AE85-AED49CFCD01C";
shapes = (
{
closed = 1;
nodes = (
(127,700,l),
(119,700,l),
(119,0,l),
(127,0,l)
);
},
{
closed = 1;
nodes = (
(124,700,l),
(124,692,l),
(505,692,l),
(505,700,l)
);
}
);
width = 564;
},
{
anchors = (
{
name = stroke;
pos = (177,368);
},
{
name = top;
pos = (293,700);
}
);
background = {
shapes = (
{
closed = 1;
nodes = (
(178,700,l),
(85,700,l),
(85,0,l),
(178,0,l)
);
},
{
closed = 1;
nodes = (
(139,700,l),
(137,609,l),
(481,609,l),
(481,700,l)
);
}
);
};
layerId = "3E7589AA-8194-470F-8E2F-13C1C581BE24";
shapes = (
{
closed = 1;
nodes = (
(178,700,l),
(85,700,l),
(85,0,l),
(178,0,l)
);
},
{
closed = 1;
nodes = (
(139,700,l),
(137,609,l),
(481,609,l),
(481,700,l)
);
}
);
width = 537;
},
{
anchors = (
{
name = stroke;
pos = (177,321);
},
{
name = top;
pos = (283,700);
}
);
background = {
shapes = (
{
closed = 1;
nodes = (
(265,700,l),
(40,700,l),
(40,0,l),
(265,0,l)
);
},
{
closed = 1;
nodes = (
(170,700,l),
(162,490,l),
(488,490,l),
(488,700,l)
);
},
{
closed = 1;
nodes = (
(170,397,l),
(162,197,l),
(473,197,l),
(473,397,l)
);
}
);
};
layerId = "BFFFD157-90D3-4B85-B99D-9A2F366F03CA";
shapes = (
{
closed = 1;
nodes = (
(265,700,l),
(40,700,l),
(40,0,l),
(265,0,l)
);
},
{
closed = 1;
nodes = (
(170,700,l),
(162,485,l),
(488,485,l),
(488,700,l)
);
}
);
width = 518;
}
);
metricLeft = L;
metricRight = L;
unicode = 915;
}
{
glyphname = Delta;
kernLeft = A;
kernRight = A;
layers = (
{
layerId = "FA91A8E1-7324-47F6-AE85-AED49CFCD01C";
shapes = (
{
closed = 1;
nodes = (
(351,703,l),
(323,703,l),
(70,0,l),
(78,0,l),
(328,695,l),
(346,695,l),
(592,0,l),
(602,0,l)
);
},
{
closed = 1;
nodes = (
(78,8,l),
(75,0,l),
(598,0,l),
(595,8,l)
);
}
);
width = 672;
},
{
layerId = "3E7589AA-8194-470F-8E2F-13C1C581BE24";
shapes = (
{
closed = 1;
nodes = (
(417,700,l),
(253,700,l),
(45,0,l),
(139,0,l),
(318,610,l),
(347,610,l),
(526,0,l),
(622,0,l)
);
},
{
closed = 1;
nodes = (
(106,91,l),
(104,0,l),
(566,0,l),
(570,91,l)
);
}
);
width = 667;
},
{
background = {
shapes = (
{
closed = 1;
nodes = (
(545,700,l),
(195,700,l),
(10,0,l),
(243,0,l),
(349,450,l),
(373,450,l),
(481,0,l),
(723,0,l)
);
}
);
};
layerId = "BFFFD157-90D3-4B85-B99D-9A2F366F03CA";
shapes = (
{
closed = 1;
nodes = (
(545,700,l),
(195,700,l),
(10,0,l),
(243,0,l),
(351,480,l),
(375,480,l),
(481,0,l),
(723,0,l)
);
},
{
closed = 1;
nodes = (
(152,185,l),
(144,0,l),
(586,0,l),
(590,185,l)
);
}
);
width = 732;
}
);
metricLeft = A;
metricRight = A;
unicode = 916;
}
{
glyphname = Pi;
layers = (
{
background = {
shapes = (
{
closed = 1;
nodes = (
(127,700,l),
(119,700,l),
(119,0,l),
(127,0,l)
);
},
{
closed = 1;
nodes = (
(581,700,l),
(573,700,l),
(573,0,l),
(581,0,l)
);
},
{
closed = 1;
nodes = (
(124,331,l),
(124,323,l),
(574,323,l),
(574,331,l)
);
}
);
};
layerId = "FA91A8E1-7324-47F6-AE85-AED49CFCD01C";
shapes = (
{
closed = 1;
nodes = (
(127,700,l),
(119,700,l),
(119,0,l),
(127,0,l)
);
},
{
closed = 1;
nodes = (
(581,700,l),
(573,700,l),
(573,0,l),
(581,0,l)
);
},
{
closed = 1;
nodes = (
(123,700,l),
(123,692,l),
(578,692,l),
(578,700,l)
);
}
);
width = 700;
},
{
background = {
shapes = (
{
closed = 1;
nodes = (
(178,700,l),
(85,700,l),
(85,0,l),
(178,0,l)
);
},
{
closed = 1;
nodes = (
(625,700,l),
(532,700,l),
(532,0,l),
(625,0,l)
);
},
{
closed = 1;
nodes = (
(138,366,l),
(138,275,l),
(533,275,l),
(533,366,l)
);
}
);
};
layerId = "3E7589AA-8194-470F-8E2F-13C1C581BE24";
shapes = (
{
closed = 1;
nodes = (
(178,700,l),
(85,700,l),
(85,0,l),
(178,0,l)
);
},
{
closed = 1;
nodes = (
(625,700,l),
(532,700,l),
(532,0,l),
(625,0,l)
);
},
{
closed = 1;
nodes = (
(138,700,l),
(138,609,l),
(563,609,l),
(563,700,l)
);
}
);
width = 710;
},
{
background = {
shapes = (
{
closed = 1;
nodes = (
(265,700,l),
(40,700,l),
(40,0,l),
(265,0,l)
);
},
{
closed = 1;
nodes = (
(680,700,l),
(455,700,l),
(455,0,l),
(680,0,l)
);
},
{
closed = 1;
nodes = (
(256,427,l),
(256,208,l),
(462,208,l),
(462,427,l)
);
}
);
};
layerId = "BFFFD157-90D3-4B85-B99D-9A2F366F03CA";
shapes = (
{
closed = 1;
nodes = (
(265,700,l),
(40,700,l),
(40,0,l),
(265,0,l)
);
},
{
closed = 1;
nodes = (
(680,700,l),
(455,700,l),
(455,0,l),
(680,0,l)
);
},
{
closed = 1;
nodes = (
(256,700,l),
(256,481,l),
(462,481,l),
(462,700,l)
);
}
);
width = 720;
}
);
metricLeft = H;
metricRight = H;
unicode = 928;
}
{
glyphname = Psi;
layers = (
{
layerId = "FA91A8E1-7324-47F6-AE85-AED49CFCD01C";
shapes = (
{
closed = 1;
nodes = (
(376,700,l),
(368,700,l),
(368,0,l),
(376,0,l)
);
},
{
closed = 1;
nodes = (
(107,417,ls),
(107,245,o),
(185,163,o),
(372,163,cs),
(563,163,o),
(631,245,o),
(631,417,cs),
(631,700,l),
(623,700,l),
(623,419,ls),
(623,249,o),
(557,171,o),
(374,171,cs),
(191,171,o),
(115,249,o),
(115,419,cs),
(115,700,l),
(107,700,l)
);
}
);
width = 738;
},
{
layerId = "3E7589AA-8194-470F-8E2F-13C1C581BE24";
shapes = (
{
closed = 1;
nodes = (
(417,700,l),
(324,700,l),
(324,0,l),
(417,0,l)
);
},
{
closed = 1;
nodes = (
(77,420,ls),
(77,214,o),
(167,118,o),
(369,118,cs),
(583,118,o),
(661,222,o),
(661,420,cs),
(661,700,l),
(570,700,l),
(570,410,ls),
(570,294,o),
(541,209,o),
(375,209,cs),
(214,209,o),
(170,294,o),
(170,410,cs),
(170,700,l),
(77,700,l)
);
}
);
width = 738;
},
{
layerId = "BFFFD157-90D3-4B85-B99D-9A2F366F03CA";
shapes = (
{
closed = 1;
nodes = (
(544,700,l),
(319,700,l),
(319,0,l),
(544,0,l)
);
},
{
closed = 1;
nodes = (
(36,410,ls),
(36,201,o),
(133,95,o),
(429,95,cs),
(737,95,o),
(822,210,o),
(822,410,cs),
(822,700,l),
(602,700,l),
(602,398,ls),
(602,335,o),
(589,316,o),
(435,316,cs),
(278,316,o),
(261,335,o),
(261,398,cs),
(261,700,l),
(36,700,l)
);
}
);
width = 858;
}
);
metricLeft = U;
metricRight = U;
unicode = 936;
}
{
glyphname = alpha;
kernLeft = o;
kernRight = l;
layers = (
{
anchors = (
{
name = bottom;
pos = (253,0);
},
{
name = top;
pos = (267,468);
}
);
layerId = "FA91A8E1-7324-47F6-AE85-AED49CFCD01C";
shapes = (
{
closed = 1;
nodes = (
(136,0,o),
(82,72,o),
(82,223,cs),
(82,384,o),
(142,468,o),
(271,468,cs),
(331,468,o),
(371,458,o),
(412,436,c),
(410,440,l),
(410,190,ls),
(410,53,o),
(353,0,o),
(252,0,cs)
);
},
{
closed = 1;
nodes = (
(417,442,l),
(373,465,o),
(334,475,o),
(271,475,cs),
(139,475,o),
(75,391,o),
(75,224,cs),
(75,66,o),
(131,-7,o),
(251,-7,cs),
(340,-7,o),
(391,32,o),
(407,107,c),
(410,107,l),
(410,23,o),
(434,-4,o),
(478,-4,cs),
(489,-4,o),
(500,-3,o),
(512,1,c),
(512,8,l),
(501,4,o),
(491,3,o),
(478,3,cs),
(435,3,o),
(417,31,o),
(417,107,cs)
);
}
);
width = 532;
},
{
anchors = (
{
name = bottom;
pos = (273,0);
},
{
name = top;
pos = (287,480);
}
);
layerId = "3E7589AA-8194-470F-8E2F-13C1C581BE24";
shapes = (
{
closed = 1;
nodes = (
(195,79,o),
(145,116,o),
(145,226,cs),
(145,333,o),
(179,399,o),
(279,399,cs),
(313,399,o),
(353,392,o),
(385,375,c),
(364,424,l),
(364,236,ls),
(364,123,o),
(322,79,o),
(253,79,cs)
);
},
{
closed = 1;
nodes = (
(454,457,l),
(389,481,o),
(338,489,o),
(292,489,cs),
(123,489,o),
(55,378,o),
(55,217,cs),
(55,87,o),
(109,-10,o),
(227,-10,cs),
(283,-10,o),
(329,9,o),
(364,53,c),
(374,53,l),
(396,11,o),
(430,-8,o),
(486,-8,cs),
(503,-8,o),
(520,-6,o),
(536,-2,c),
(544,85,l),
(531,82,o),
(518,81,o),
(508,81,cs),
(468,81,o),
(454,100,o),
(454,138,cs)
);
}
);
width = 558;
},
{
anchors = (
{
name = bottom;
pos = (303,0);
},
{
name = top;
pos = (297,490);
}
);
background = {
shapes = (
{
closed = 1;
nodes = (
(434,-14,o),
(523,77,o),
(523,248,cs),
(523,412,o),
(441,505,o),
(277,505,cs),
(112,505,o),
(20,410,o),
(20,239,cs),
(20,75,o),
(104,-14,o),
(267,-14,cs)
);
},
{
closed = 1;
nodes = (
(238,164,o),
(221,189,o),
(221,243,cs),
(221,293,o),
(237,316,o),
(271,316,cs),
(305,316,o),
(322,292,o),
(322,238,cs),
(322,188,o),
(306,164,o),
(273,164,cs)
);
}
);
};
layerId = "BFFFD157-90D3-4B85-B99D-9A2F366F03CA";
shapes = (
{
closed = 1;
nodes = (
(243,164,o),
(233,190,o),
(233,237,cs),
(233,287,o),
(250,316,o),
(286,316,cs),
(305,316,o),
(324,311,o),
(341,303,c),
(322,396,l),
(322,243,ls),
(322,189,o),
(308,164,o),
(276,164,cs)
);
},
{
closed = 1;
nodes = (
(538,465,l),
(466,491,o),
(392,503,o),
(312,503,cs),
(94,503,o),
(20,392,o),
(20,227,cs),
(20,75,o),
(77,-10,o),
(212,-10,cs),
(271,-10,o),
(318,8,o),
(348,47,c),
(360,47,l),
(387,5,o),
(416,-10,o),
(483,-10,cs),
(527,-10,o),
(557,-6,o),
(583,5,c),
(593,180,l),
(586,178,o),
(580,177,o),
(571,177,cs),
(552,177,o),
(538,185,o),
(538,206,cs)
);
}
);
width = 603;
}
);
unicode = 945;
}
{
glyphname = gamma;
kernLeft = v;
kernRight = v;
layers = (
{
layerId = "FA91A8E1-7324-47F6-AE85-AED49CFCD01C";
shapes = (
{
closed = 1;
nodes = (
(264,-2,l),
(350,146,o),
(392,274,o),
(435,468,c),
(428,468,l),
(386,277,o),
(344,148,o),
(262,9,c),
(259,9,l),
(71,468,l),
(63,468,l),
(257,-5,l)
);
},
{
closed = 1;
nodes = (
(264,4,l),
(257,4,l),
(257,-150,l),
(264,-150,l)
);
}
);
width = 498;
},
{
layerId = "3E7589AA-8194-470F-8E2F-13C1C581BE24";
shapes = (
{
closed = 1;
nodes = (
(303,-14,l),
(384,111,o),
(452,267,o),
(483,480,c),
(393,480,l),
(367,295,o),
(321,179,o),
(273,86,c),
(265,86,l),
(143,480,l),
(47,480,l),
(232,-50,l)
);
},
{
closed = 1;
nodes = (
(313,70,l),
(223,70,l),
(223,-150,l),
(313,-150,l)
);
}
);
width = 530;
},
{
background = {
shapes = (
{
closed = 1;
nodes = (
(328,-102,l),
(461,11,o),
(515,207,o),
(539,490,c),
(324,490,l),
(322,344,o),
(311,251,o),
(298,159,c),
(291,159,l),
(248,490,l),
(16,490,l),
(155,-115,l)
);
}
);
};
layerId = "BFFFD157-90D3-4B85-B99D-9A2F366F03CA";
shapes = (
{
closed = 1;
nodes = (
(328,-92,l),
(461,21,o),
(515,207,o),
(539,490,c),
(334,490,l),
(332,344,o),
(321,251,o),
(308,159,c),
(301,159,l),
(258,490,l),
(16,490,l),
(187,-49,l)
);
},
{
closed = 1;
nodes = (
(399,15,l),
(179,5,l),
(179,-150,l),
(399,-150,l)
);
}
);
width = 555;
}
);
metricLeft = "=v+10";
metricRight = "=v+10";
unicode = 947;
}
{
glyphname = delta;
kernLeft = o;
kernRight = o;
layers = (
{
layerId = "FA91A8E1-7324-47F6-AE85-AED49CFCD01C";
shapes = (
{
closed = 1;
nodes = (
(437,380,o),
(388,443,o),
(335,477,cs),
(301,499,o),
(268,518,o),
(246,532,cs),
(214,553,o),
(184,580,o),
(184,639,cs),
(184,714,o),
(234,748,o),
(316,748,cs),
(341,748,o),
(377,746,o),
(414,737,c),
(415,744,l),
(376,753,o),
(341,755,o),
(316,755,cs),
(230,755,o),
(177,717,o),
(177,639,cs),
(177,578,o),
(207,549,o),
(241,527,cs),
(269,509,o),
(333,476,o),
(360,449,c),
(359,448,l),
(343,458,o),
(321,475,o),
(258,475,cs),
(141,475,o),
(74,404,o),
(74,233,cs),
(74,73,o),
(139,-7,o),
(261,-7,cs),
(375,-7,o),
(437,67,o),
(437,233,cs)
);
},
{
closed = 1;
nodes = (
(143,0,o),
(81,77,o),
(81,233,cs),
(81,400,o),
(144,468,o),
(258,468,cs),
(369,468,o),
(430,403,o),
(430,235,cs),
(430,71,o),
(372,0,o),
(261,0,cs)
);
}
);
width = 511;
},
{
background = {
shapes = (
{
closed = 1;
nodes = (
(478,500,o),
(293,574,o),
(255,618,cs),
(249,625,o),
(246,633,o),
(246,642,cs),
(246,663,o),
(263,673,o),
(301,673,cs),
(334,673,o),
(393,665,o),
(444,642,c),
(462,733,l),
(407,753,o),
(343,762,o),
(302,762,cs),
(189,762,o),
(156,702,o),
(156,649,cs),
(156,619,o),
(167,594,o),
(183,573,cs),
(221,525,o),
(260,522,o),
(301,462,c),
(323,480,l),
(308,487,o),
(291,492,o),
(256,492,cs),
(127,492,o),
(52,404,o),
(52,239,cs),
(52,79,o),
(126,-12,o),
(264,-12,cs),
(401,-12,o),
(478,69,o),
(478,251,cs)
);
},
{
closed = 1;
nodes = (
(187,72,o),
(141,123,o),
(141,240,cs),
(141,357,o),
(184,403,o),
(264,403,cs),
(345,403,o),
(389,360,o),
(389,238,cs),
(389,119,o),
(348,72,o),
(268,72,cs)
);
}
);
};
layerId = "3E7589AA-8194-470F-8E2F-13C1C581BE24";
shapes = (
{
closed = 1;
nodes = (
(478,388,o),
(422,472,o),
(365,528,cs),
(319,573,o),
(273,598,o),
(256,618,cs),
(250,625,o),
(246,633,o),
(246,642,cs),
(246,661,o),
(263,673,o),
(309,673,cs),
(341,673,o),
(398,667,o),
(449,652,c),
(459,745,l),
(402,758,o),
(355,762,o),
(321,762,cs),
(188,762,o),
(156,699,o),
(156,646,cs),
(156,616,o),
(167,592,o),
(184,571,cs),
(216,533,o),
(256,518,o),
(301,462,c),
(323,480,l),
(308,487,o),
(291,492,o),
(256,492,cs),
(127,492,o),
(52,404,o),
(52,239,cs),
(52,79,o),
(126,-12,o),
(264,-12,cs),
(401,-12,o),
(478,69,o),
(478,251,cs)
);
},
{
closed = 1;
nodes = (
(187,72,o),
(141,123,o),
(141,240,cs),
(141,357,o),
(184,403,o),
(264,403,cs),
(345,403,o),
(389,360,o),
(389,238,cs),
(389,119,o),
(348,72,o),
(268,72,cs)
);
}
);
width = 530;
},
{
background = {
shapes = (
{
closed = 1;
nodes = (
(431,-14,o),
(520,77,o),
(520,248,cs),
(520,412,o),
(438,505,o),
(274,505,cs),
(109,505,o),
(17,410,o),
(17,239,cs),
(17,75,o),
(101,-14,o),
(264,-14,cs)
);
},
{
closed = 1;
nodes = (
(235,164,o),
(218,189,o),
(218,243,cs),
(218,293,o),
(234,316,o),
(268,316,cs),
(302,316,o),
(319,292,o),
(319,238,cs),
(319,188,o),
(303,164,o),
(270,164,cs)
);
}
);
};
layerId = "BFFFD157-90D3-4B85-B99D-9A2F366F03CA";
shapes = (
{
closed = 1;
nodes = (
(508,353,o),
(483,411,o),
(450,449,cs),
(415,490,o),
(371,511,o),
(341,524,cs),
(323,532,o),
(317,536,o),
(317,544,cs),
(317,552,o),
(322,557,o),
(341,557,cs),
(360,557,o),
(415,552,o),
(476,542,c),
(498,741,l),
(439,757,o),
(382,764,o),
(324,764,cs),
(161,764,o),
(97,726,o),
(97,631,cs),
(97,601,o),
(104,578,o),
(120,554,cs),
(142,522,o),
(176,500,o),
(212,429,c),
(265,493,l),
(250,500,o),
(229,503,o),
(203,503,cs),
(86,503,o),
(17,413,o),
(17,244,cs),
(17,81,o),
(103,-12,o),
(262,-12,cs),
(419,-12,o),
(508,68,o),
(508,251,cs)
);
},
{
closed = 1;
nodes = (
(230,170,o),
(218,198,o),
(218,255,cs),
(218,307,o),
(229,331,o),
(263,331,cs),
(297,331,o),
(309,306,o),
(309,249,cs),
(309,197,o),
(298,170,o),
(265,170,cs)
);
}
);
width = 525;
}
);
metricLeft = o;
metricRight = o;
unicode = 948;
}
{
glyphname = zeta;
layers = (
{
background = {
shapes = (
{
closed = 1;
nodes = (
(423,380,o),
(374,443,o),
(321,477,cs),
(287,499,o),
(254,518,o),
(232,532,cs),
(200,553,o),
(170,580,o),
(170,639,cs),
(170,714,o),
(220,748,o),
(294,748,cs),
(322,748,o),
(362,743,o),
(397,728,c),
(399,735,l),
(362,750,o),
(322,755,o),
(294,755,cs),
(216,755,o),
(163,717,o),
(163,639,cs),
(163,578,o),
(193,549,o),
(227,527,cs),
(255,509,o),
(319,476,o),
(346,449,c),
(345,448,l),
(329,458,o),
(307,475,o),
(244,475,cs),
(127,475,o),
(60,404,o),
(60,233,cs),
(60,73,o),
(125,-7,o),
(247,-7,cs),
(361,-7,o),
(423,67,o),
(423,233,cs)
);
},
{
closed = 1;
nodes = (
(129,0,o),
(67,77,o),
(67,233,cs),
(67,400,o),
(130,468,o),
(244,468,cs),
(355,468,o),
(416,403,o),
(416,235,cs),
(416,71,o),
(358,0,o),
(247,0,cs)
);
}
);
};
layerId = "FA91A8E1-7324-47F6-AE85-AED49CFCD01C";
shapes = (
{
closed = 1;
nodes = (
(59,743,l),
(375,743,l),
(374,748,l),
(162,561,o),
(46,404,o),
(46,230,cs),
(46,29,o),
(188,4,o),
(381,0,c),
(378,3,l),
(373,-150,l),
(380,-150,l),
(387,7,l),
(192,12,o),
(53,34,o),
(53,230,cs),
(53,399,o),
(167,556,o),
(382,745,c),
(382,750,l),
(59,750,l)
);
}
);
width = 440;
},
{
background = {
shapes = (
{
closed = 1;
nodes = (
(412,750,l),
(66,750,l),
(61,660,l),
(172,660,l),
(145,670,l),
(97,640,o),
(68,594,o),
(68,519,cs),
(68,439,o),
(103,391,o),
(166,366,c),
(166,360,l),
(103,350,o),
(40,296,o),
(40,189,cs),
(40,31,o),
(176,-4,o),
(372,-8,c),
(344,34,l),
(333,-130,l),
(410,-135,l),
(435,80,l),
(211,87,o),
(133,111,o),
(133,200,cs),
(133,269,o),
(178,299,o),
(271,307,cs),
(294,309,o),
(323,310,o),
(376,310,c),
(376,398,l),
(322,398,o),
(294,399,o),
(270,403,cs),
(196,415,o),
(160,455,o),
(160,517,cs),
(160,617,o),
(255,656,o),
(412,659,c)
);
}
);
};
layerId = "3E7589AA-8194-470F-8E2F-13C1C581BE24";
shapes = (
{
closed = 1;
nodes = (
(59,660,l),
(317,660,l),
(278,683,l),
(164,600,o),
(46,427,o),
(46,231,cs),
(46,29,o),
(166,-4,o),
(362,-8,c),
(334,34,l),
(334,-150,l),
(411,-150,l),
(425,80,l),
(201,87,o),
(136,120,o),
(136,245,cs),
(136,397,o),
(226,554,o),
(412,694,c),
(412,750,l),
(64,750,l)
);
}
);
width = 454;
},
{
layerId = "BFFFD157-90D3-4B85-B99D-9A2F366F03CA";
shapes = (
{
closed = 1;
nodes = (
(49,530,l),
(246,530,l),
(189,606,l),
(103,513,o),
(26,404,o),
(26,246,cs),
(26,70,o),
(124,-3,o),
(332,-7,c),
(265,83,l),
(267,-150,l),
(454,-150,l),
(468,184,l),
(279,189,o),
(238,213,o),
(238,283,cs),
(238,372,o),
(311,484,o),
(459,614,c),
(459,750,l),
(59,750,l)
);
}
);
width = 496;
}
);
unicode = 950;
}
{
glyphname = eta;
kernLeft = m;
kernRight = m;
layers = (
{
anchors = (
{
name = apostrophe;
pos = (48,468);
},
{
name = bottom;
pos = (102,0);
},
{
name = top;
pos = (257,468);
}
);
layerId = "FA91A8E1-7324-47F6-AE85-AED49CFCD01C";
shapes = (
{
closed = 1;
nodes = (
(105,0,l),
(105,282,ls),
(105,414,o),
(172,468,o),
(268,468,cs),
(360,468,o),
(404,420,o),
(404,303,cs),
(404,-200,l),
(411,-200,l),
(411,304,ls),
(411,423,o),
(365,475,o),
(269,475,cs),
(168,475,o),
(116,417,o),
(105,343,c),
(104,343,l),
(104,468,l),
(98,468,l),
(98,0,l)
);
}
);
width = 505;
},
{
anchors = (
{
name = apostrophe;
pos = (36,480);
},
{
name = bottom;
pos = (122,0);
},
{
name = top;
pos = (269,480);
}
);
hints = (
{
horizontal = 1;
origin = (0,19);
type = TTSnap;
},
{
horizontal = 1;
origin = (0,0);
type = TTSnap;
},
{
horizontal = 1;
origin = (0,8);
type = TTSnap;
},
{
horizontal = 1;
options = 4;
origin = (0,13);
stem = 1;
target = (0,20);
type = TTStem;
}
);
layerId = "3E7589AA-8194-470F-8E2F-13C1C581BE24";
shapes = (
{
closed = 1;
nodes = (
(166,0,l),
(166,259,ls),
(166,350,o),
(206,397,o),
(284,397,cs),
(353,397,o),
(379,360,o),
(379,289,cs),
(379,-190,l),
(469,-190,l),
(469,314,ls),
(469,405,o),
(441,490,o),
(303,490,cs),
(215,490,o),
(173,454,o),
(154,419,c),
(146,419,l),
(138,480,l),
(76,480,l),
(76,0,l)
);
}
);
width = 538;
},
{
anchors = (
{
name = apostrophe;
pos = (25,490);
},
{
name = bottom;
pos = (141,0);
},
{
name = top;
pos = (287,490);
}
);
layerId = "BFFFD157-90D3-4B85-B99D-9A2F366F03CA";
shapes = (
{
closed = 1;
nodes = (
(250,0,l),
(250,242,ls),
(250,281,o),
(264,298,o),
(292,298,cs),
(318,298,o),
(326,283,o),
(326,252,cs),
(326,-181,l),
(546,-181,l),
(546,317,ls),
(546,453,o),
(482,501,o),
(371,501,cs),
(276,501,o),
(225,466,o),
(198,426,c),
(188,426,l),
(165,490,l),
(30,490,l),
(30,0,l)
);
}
);
width = 572;
}
);
unicode = 951;
}
{
glyphname = theta;
layers = (
{
layerId = "FA91A8E1-7324-47F6-AE85-AED49CFCD01C";
shapes = (
{
closed = 1;
nodes = (
(375,-7,o),
(440,71,o),
(440,351,cs),
(440,684,o),
(374,757,o),
(258,757,cs),
(139,757,o),
(75,686,o),
(75,351,cs),
(75,70,o),
(141,-7,o),
(258,-7,cs)
);
},
{
closed = 1;
nodes = (
(145,0,o),
(82,73,o),
(82,352,cs),
(82,682,o),
(144,750,o),
(258,750,cs),
(369,750,o),
(433,681,o),
(433,351,cs),
(433,74,o),
(370,0,o),
(259,0,cs)
);
},
{
closed = 1;
nodes = (
(78,341,l),
(437,341,l),
(437,348,l),
(78,348,l)
);
}
);
width = 515;
},
{
layerId = "3E7589AA-8194-470F-8E2F-13C1C581BE24";
shapes = (
{
closed = 1;
nodes = (
(400,-12,o),
(473,79,o),
(473,369,cs),
(473,674,o),
(404,761,o),
(267,761,cs),
(129,761,o),
(55,673,o),
(55,369,cs),
(55,79,o),
(125,-12,o),
(263,-12,cs)
);
},
{
closed = 1;
nodes = (
(186,72,o),
(143,123,o),
(143,370,cs),
(143,626,o),
(183,672,o),
(265,672,cs),
(344,672,o),
(385,629,o),
(385,368,cs),
(385,119,o),
(347,72,o),
(267,72,cs)
);
},
{
closed = 1;
nodes = (
(102,311,l),
(437,311,l),
(437,398,l),
(102,398,l)
);
}
);
width = 528;
},
{
layerId = "BFFFD157-90D3-4B85-B99D-9A2F366F03CA";
shapes = (
{
closed = 1;
nodes = (
(439,-14,o),
(528,77,o),
(528,361,cs),
(528,672,o),
(446,765,o),
(282,765,cs),
(117,765,o),
(25,670,o),
(25,361,cs),
(25,75,o),
(109,-14,o),
(272,-14,cs)
);
},
{
closed = 1;
nodes = (
(243,159,o),
(226,178,o),
(226,361,cs),
(226,555,o),
(242,571,o),
(276,571,cs),
(310,571,o),
(327,554,o),
(327,361,cs),
(327,177,o),
(311,159,o),
(278,159,cs)
);
},
{
closed = 1;
nodes = (
(102,257,l),
(437,257,l),
(427,442,l),
(92,442,l)
);
}
);
width = 553;
}
);
unicode = 952;
}
{
glyphname = lambda;
layers = (
{
background = {
shapes = (
{
closed = 1;
nodes = (
(425,0,l),
(382,194,o),
(339,322,o),
(256,465,cs),
(210,544,o),
(157,602,o),
(80,674,c),
(76,668,l),
(152,597,o),
(204,539,o),
(247,467,c),
(247,473,l),
(53,0,l),
(61,0,l),
(249,459,l),
(252,459,l),
(334,320,o),
(376,191,o),
(418,0,c)
);
}
);
};
layerId = "FA91A8E1-7324-47F6-AE85-AED49CFCD01C";
shapes = (
{
closed = 1;
nodes = (
(425,0,l),
(174,703,ls),
(157,750,o),
(141,757,o),
(113,757,cs),
(96,757,o),
(80,754,o),
(61,749,c),
(61,743,l),
(80,748,o),
(96,750,o),
(113,750,cs),
(137,751,o),
(151,745,o),
(167,701,cs),
(251,468,l),
(251,474,l),
(53,0,l),
(61,0,l),
(252,460,l),
(254,460,l),
(418,0,l)
);
}
);
width = 478;
},
{
layerId = "3E7589AA-8194-470F-8E2F-13C1C581BE24";
shapes = (
{
closed = 1;
nodes = (
(484,0,l),
(267,657,ls),
(248,714,o),
(229,755,o),
(150,755,cs),
(132,755,o),
(107,753,o),
(73,746,c),
(71,666,l),
(94,669,o),
(115,671,o),
(129,671,cs),
(159,671,o),
(175,658,o),
(187,616,cs),
(241,424,l),
(230,496,l),
(37,0,l),
(130,0,l),
(265,359,l),
(273,359,l),
(387,0,l)
);
}
);
width = 521;
},
{
layerId = "BFFFD157-90D3-4B85-B99D-9A2F366F03CA";
shapes = (
{
closed = 1;
nodes = (
(529,0,l),
(414,534,ls),
(377,705,o),
(336,761,o),
(191,761,cs),
(143,761,o),
(85,755,o),
(25,741,c),
(25,555,l),
(47,557,o),
(73,559,o),
(100,559,cs),
(135,559,o),
(168,554,o),
(176,518,cs),
(202,400,l),
(176,544,l),
(6,0,l),
(228,0,l),
(264,290,l),
(271,290,l),
(304,0,l)
);
}
);
width = 535;
}
);
metricLeft = v;
metricRight = v;
unicode = 955;
}
